<svg width="17" height="17" fill="none" xmlns="http://www.w3.org/2000/svg"><path d="M12.1429 4.25H4.85714C4.69612 4.25 4.54169 4.31397 4.42783 4.42783C4.31397 4.54169 4.25 4.69612 4.25 4.85714V12.1429C4.25 12.3039 4.31397 12.4583 4.42783 12.5722C4.54169 12.686 4.69612 12.75 4.85714 12.75H12.1429C12.3039 12.75 12.4583 12.686 12.5722 12.5722C12.686 12.4583 12.75 12.3039 12.75 12.1429V4.85714C12.75 4.69612 12.686 4.54169 12.5722 4.42783C12.4583 4.31397 12.3039 4.25 12.1429 4.25ZM11.5357 11.5357H5.46429V5.46429H11.5357V11.5357Z" fill="#BBFFBA"/><path d="M16.3929 7.89286C16.5539 7.89286 16.7083 7.82889 16.8222 7.71503C16.936 7.60117 17 7.44674 17 7.28571C17 7.12469 16.936 6.97026 16.8222 6.8564C16.7083 6.74254 16.5539 6.67857 16.3929 6.67857H15.1786V5.46429H16.3929C16.5539 5.46429 16.7083 5.40032 16.8222 5.28646C16.936 5.1726 17 5.01817 17 4.85714C17 4.69612 16.936 4.54169 16.8222 4.42783C16.7083 4.31397 16.5539 4.25 16.3929 4.25H15.1786C15.1786 3.6059 14.9227 2.98819 14.4673 2.53274C14.0118 2.0773 13.3941 1.82143 12.75 1.82143V0.607143C12.75 0.446119 12.686 0.291689 12.5722 0.177828C12.4583 0.0639666 12.3039 0 12.1429 0C11.9818 0 11.8274 0.0639666 11.7135 0.177828C11.5997 0.291689 11.5357 0.446119 11.5357 0.607143V1.82143H10.3214V0.607143C10.3214 0.446119 10.2575 0.291689 10.1436 0.177828C10.0297 0.0639666 9.87531 0 9.71429 0C9.55326 0 9.39883 0.0639666 9.28497 0.177828C9.17111 0.291689 9.10714 0.446119 9.10714 0.607143V1.82143H7.89286V0.607143C7.89286 0.446119 7.82889 0.291689 7.71503 0.177828C7.60117 0.0639666 7.44674 0 7.28571 0C7.12469 0 6.97026 0.0639666 6.8564 0.177828C6.74254 0.291689 6.67857 0.446119 6.67857 0.607143V1.82143H5.46429V0.607143C5.46429 0.446119 5.40032 0.291689 5.28646 0.177828C5.1726 0.0639666 5.01817 0 4.85714 0C4.69612 0 4.54169 0.0639666 4.42783 0.177828C4.31397 0.291689 4.25 0.446119 4.25 0.607143V1.82143C3.6059 1.82143 2.98819 2.0773 2.53274 2.53274C2.0773 2.98819 1.82143 3.6059 1.82143 4.25H0.607143C0.446119 4.25 0.291689 4.31397 0.177828 4.42783C0.0639666 4.54169 0 4.69612 0 4.85714C0 5.01817 0.0639666 5.1726 0.177828 5.28646C0.291689 5.40032 0.446119 5.46429 0.607143 5.46429H1.82143V6.67857H0.607143C0.446119 6.67857 0.291689 6.74254 0.177828 6.8564C0.0639666 6.97026 0 7.12469 0 7.28571C0 7.44674 0.0639666 7.60117 0.177828 7.71503C0.291689 7.82889 0.446119 7.89286 0.607143 7.89286H1.82143V9.10714H0.607143C0.446119 9.10714 0.291689 9.17111 0.177828 9.28497C0.0639666 9.39883 0 9.55326 0 9.71429C0 9.87531 0.0639666 10.0297 0.177828 10.1436C0.291689 10.2575 0.446119 10.3214 0.607143 10.3214H1.82143V11.5357H0.607143C0.446119 11.5357 0.291689 11.5997 0.177828 11.7135C0.0639666 11.8274 0 11.9818 0 12.1429C0 12.3039 0.0639666 12.4583 0.177828 12.5722C0.291689 12.686 0.446119 12.75 0.607143 12.75H1.82143C1.82143 13.3941 2.0773 14.0118 2.53274 14.4673C2.98819 14.9227 3.6059 15.1786 4.25 15.1786V16.3929C4.25 16.5539 4.31397 16.7083 4.42783 16.8222C4.54169 16.936 4.69612 17 4.85714 17C5.01817 17 5.1726 16.936 5.28646 16.8222C5.40032 16.7083 5.46429 16.5539 5.46429 16.3929V15.1786H6.67857V16.3929C6.67857 16.5539 6.74254 16.7083 6.8564 16.8222C6.97026 16.936 7.12469 17 7.28571 17C7.44674 17 7.60117 16.936 7.71503 16.8222C7.82889 16.7083 7.89286 16.5539 7.89286 16.3929V15.1786H9.10714V16.3929C9.10714 16.5539 9.17111 16.7083 9.28497 16.8222C9.39883 16.936 9.55326 17 9.71429 17C9.87531 17 10.0297 16.936 10.1436 16.8222C10.2575 16.7083 10.3214 16.5539 10.3214 16.3929V15.1786H11.5357V16.3929C11.5357 16.5539 11.5997 16.7083 11.7135 16.8222C11.8274 16.936 11.9818 17 12.1429 17C12.3039 17 12.4583 16.936 12.5722 16.8222C12.686 16.7083 12.75 16.5539 12.75 16.3929V15.1786C13.3941 15.1786 14.0118 14.9227 14.4673 14.4673C14.9227 14.0118 15.1786 13.3941 15.1786 12.75H16.3929C16.5539 12.75 16.7083 12.686 16.8222 12.5722C16.936 12.4583 17 12.3039 17 12.1429C17 11.9818 16.936 11.8274 16.8222 11.7135C16.7083 11.5997 16.5539 11.5357 16.3929 11.5357H15.1786V10.3214H16.3929C16.5539 10.3214 16.7083 10.2575 16.8222 10.1436C16.936 10.0297 17 9.87531 17 9.71429C17 9.55326 16.936 9.39883 16.8222 9.28497C16.7083 9.17111 16.5539 9.10714 16.3929 9.10714H15.1786V7.89286H16.3929ZM13.9643 12.75C13.9643 13.072 13.8364 13.3809 13.6086 13.6086C13.3809 13.8364 13.072 13.9643 12.75 13.9643H4.25C3.92795 13.9643 3.61909 13.8364 3.39137 13.6086C3.16365 13.3809 3.03571 13.072 3.03571 12.75V4.25C3.03571 3.92795 3.16365 3.61909 3.39137 3.39137C3.61909 3.16365 3.92795 3.03571 4.25 3.03571H12.75C13.072 3.03571 13.3809 3.16365 13.6086 3.39137C13.8364 3.61909 13.9643 3.92795 13.9643 4.25V12.75Z" fill="#BBFFBA"/></svg>