<svg width="181" height="36" fill="none" xmlns="http://www.w3.org/2000/svg"><path fill-rule="evenodd" clip-rule="evenodd" d="M12.3734 5.51887L6.80712 11.0379L8.88279 13.095L10.9583 15.1521L14.4938 11.6513L18.0293 8.15041L21.5226 11.6094L25.0156 15.0684L27.0447 13.0517L29.0735 11.0353L23.5065 5.51764L17.9395 0L12.3734 5.51887ZM151.353 8.67458C148.001 9.39655 145.049 12.272 144.151 15.6894C143.807 16.9983 143.804 19.6047 144.144 20.9005C145.006 24.1783 147.614 26.7892 151.004 27.7658C152.294 28.1374 155.256 28.1423 156.657 27.7751C158.057 27.4081 158.96 26.9291 160.376 25.8027L161.581 24.8433L160.385 23.5903C159.728 22.9013 159.129 22.2661 159.055 22.1788C158.981 22.0911 158.489 22.3505 157.952 22.7608C156.595 23.7986 155.489 24.1774 153.822 24.1753C152.068 24.1732 150.998 23.7065 149.852 22.4434C148.645 21.1123 148.248 19.9366 148.338 17.9578C148.45 15.4937 149.44 13.8257 151.382 12.8282C152.136 12.4407 152.513 12.3671 153.779 12.3601C155.058 12.3529 155.436 12.4231 156.313 12.8306C156.881 13.0941 157.66 13.5568 158.045 13.8592C158.43 14.1614 158.766 14.3793 158.792 14.3438C158.818 14.308 159.423 13.615 160.136 12.8035L161.431 11.3282L160.654 10.6563C158.467 8.76498 154.681 7.95805 151.353 8.67458ZM104.477 8.97346C104.39 9.1935 102.561 13.4643 100.414 18.4643C98.2667 23.4644 96.5098 27.6229 96.5098 27.7056C96.5098 27.7884 97.4556 27.8561 98.6114 27.8561H100.713L101.583 25.71L102.452 23.5639L106.52 23.5169L110.589 23.47L111.472 25.6192L112.356 27.7685L114.529 27.8179L116.701 27.8671L116.595 27.4675C116.537 27.2476 114.711 22.9288 112.537 17.8702L108.584 8.67266L106.61 8.62308C104.697 8.57508 104.631 8.58594 104.477 8.97346ZM42.4645 18.2532L42.5103 27.7685L47.106 27.8191C51.996 27.8729 54.0568 27.7089 55.5773 27.1451C57.6736 26.3678 58.7555 24.7564 58.7469 22.4251C58.7396 20.4683 57.9082 19.1528 56.0936 18.227L55.3595 17.8525L56.2176 17.0568C58.2447 15.1775 58.2345 12.0877 56.1952 10.2704C54.6776 8.91792 54.4264 8.87272 48.0323 8.8009L42.4189 8.738L42.4645 18.2532ZM64.1631 18.3138V27.8671L66.24 27.8179L68.3169 27.7685L68.3627 18.2644L68.4083 8.76025H66.2858H64.1631V18.3138ZM74.7686 18.3138V27.8671L76.8455 27.8179L78.9224 27.7685L79.0107 21.8286L79.0991 15.8888L83.6948 21.8775L88.2905 27.8661L90.0581 27.8174L91.8257 27.7685L91.8715 18.2644L91.9171 8.76025H89.7969H87.6767L87.63 14.5631L87.5835 20.3661L83.1646 14.5724L78.7456 8.77865L76.7571 8.76954L74.7686 8.76025V18.3138ZM121.433 18.3082V27.8561H123.463H125.493L125.54 21.7943L125.586 15.7325L130.234 21.7943L134.882 27.8561H136.642H138.401V18.3082V8.76025H136.369H134.336V14.5519C134.336 17.8131 134.268 20.3022 134.181 20.2489C134.096 20.1969 132.061 17.5906 129.658 14.4573L125.29 8.76025H123.361H121.433V18.3082ZM166.506 18.3082V27.8561H173.753H181V25.929V24.0019H175.874H170.748V21.9872V19.9725H175.255H179.763V18.133V16.2935H175.255H170.748V14.3664V12.4393H175.874H181V10.5998V8.76025H173.753H166.506V18.3082ZM46.6641 14.4731V16.5068L49.2712 16.4366C52.0513 16.3616 52.7106 16.1878 53.2817 15.3795C53.882 14.5302 53.4977 13.2448 52.4946 12.7462C51.9914 12.496 51.4003 12.4398 49.2712 12.4396L46.6641 12.4393V14.4731ZM105.303 16.6181C104.646 18.2221 104.109 19.5937 104.11 19.6659C104.11 19.7381 105.232 19.7973 106.604 19.7973C108.528 19.7973 109.077 19.7474 109.008 19.5783C108.063 17.2593 106.757 14.1526 106.644 13.9569C106.542 13.7802 106.13 14.5976 105.303 16.6181ZM15.8612 15.9019L13.7869 17.9632L15.8667 20.0191L17.9464 22.0749L20.0207 20.0136L22.0949 17.9523L20.0152 15.8965L17.9354 13.8406L15.8612 15.9019ZM1.89714 15.9021C0.85374 16.9396 0 17.8672 0 17.9636C0 18.0599 0.896162 19.0243 1.99135 20.1068L3.98271 22.0749L6.00977 20.0601L8.03665 18.0454L6.00977 16.0307C4.89495 14.9226 3.94046 14.016 3.8885 14.016C3.83671 14.016 2.94054 14.8648 1.89714 15.9021ZM29.9133 15.9897L27.9276 17.9634L29.9604 19.9725L31.9932 21.9814L34.0259 19.9725L36.0588 17.9634L34.0731 15.9897C32.9809 14.9042 32.045 14.016 31.9932 14.016C31.9414 14.016 31.0054 14.9042 29.9133 15.9897ZM46.6641 22.0944V24.2161L49.8015 24.1448C53.1527 24.0684 53.7471 23.9302 54.3422 23.0879C54.6889 22.5975 54.6966 21.6823 54.3597 21.0366C53.9053 20.1655 53.0539 19.9725 49.6654 19.9725H46.6641V22.0944ZM8.83736 22.8637L6.80836 24.8803L12.4179 30.4401L18.0275 36L20.8686 33.1982C22.4313 31.6572 24.9115 29.1495 26.3806 27.6255L29.0514 24.8547L27.03 22.8512L25.0086 20.8477L21.4764 24.3519L17.9441 27.8561L14.4052 24.3517L10.8662 20.8472L8.83736 22.8637Z" fill="white"/></svg>