<svg width="266" height="35" fill="none" xmlns="http://www.w3.org/2000/svg"><mask id="path-1-outside-1_6_38" maskUnits="userSpaceOnUse" x="-3" y="-3" width="272" height="41" fill="black"><rect fill="white" x="-3" y="-3" width="272" height="41"/><path d="M10.6369 25.4H39.0869L32.4369 34H0.236914V0.549999H38.9869L32.2869 9.25H10.6369V13.25H37.1369L31.1869 20.85H10.6369V25.4ZM53.1197 0.549999V34H42.7697V0.549999H53.1197ZM78.6631 25.4H102.113L95.4631 34H78.6631C67.0631 34 58.5131 26.65 58.5131 16.95C58.5131 7.15 67.0631 0.549999 78.6631 0.549999H102.113L95.4631 9.25H78.6631C73.0631 9.25 68.8631 12.6 68.8631 17.4C68.8631 22.15 73.0131 25.4 78.6631 25.4ZM146.306 0.549999V34H136.006V21.1H116.106V34H105.706V0.549999H116.106V12.4H136.006V0.549999H146.306ZM205.728 34H166.828L173.078 25.4H181.478C183.478 25.4 185.828 25.4 187.428 25.5C186.528 24.3 185.128 22.25 184.028 20.65L178.028 11.8L162.328 34H150.078L171.528 3.75C172.928 1.8 174.978 -3.57628e-07 178.228 -3.57628e-07C181.328 -3.57628e-07 183.378 1.65 184.828 3.75L205.728 34ZM219.917 0.549999V34H209.567V0.549999H219.917ZM260.26 34.55C258.96 34.55 257.71 34.25 256.11 32.75L235.61 14.35V34H226.21V6.25C226.21 1.8 228.91 -3.57628e-07 231.86 -3.57628e-07C233.11 -3.57628e-07 234.36 0.299999 236.01 1.8L256.51 20.2V0.549999H265.96V28.25C265.96 32.7 263.26 34.55 260.26 34.55Z"/></mask><path d="M10.6369 25.4H39.0869L32.4369 34H0.236914V0.549999H38.9869L32.2869 9.25H10.6369V13.25H37.1369L31.1869 20.85H10.6369V25.4ZM53.1197 0.549999V34H42.7697V0.549999H53.1197ZM78.6631 25.4H102.113L95.4631 34H78.6631C67.0631 34 58.5131 26.65 58.5131 16.95C58.5131 7.15 67.0631 0.549999 78.6631 0.549999H102.113L95.4631 9.25H78.6631C73.0631 9.25 68.8631 12.6 68.8631 17.4C68.8631 22.15 73.0131 25.4 78.6631 25.4ZM146.306 0.549999V34H136.006V21.1H116.106V34H105.706V0.549999H116.106V12.4H136.006V0.549999H146.306ZM205.728 34H166.828L173.078 25.4H181.478C183.478 25.4 185.828 25.4 187.428 25.5C186.528 24.3 185.128 22.25 184.028 20.65L178.028 11.8L162.328 34H150.078L171.528 3.75C172.928 1.8 174.978 -3.57628e-07 178.228 -3.57628e-07C181.328 -3.57628e-07 183.378 1.65 184.828 3.75L205.728 34ZM219.917 0.549999V34H209.567V0.549999H219.917ZM260.26 34.55C258.96 34.55 257.71 34.25 256.11 32.75L235.61 14.35V34H226.21V6.25C226.21 1.8 228.91 -3.57628e-07 231.86 -3.57628e-07C233.11 -3.57628e-07 234.36 0.299999 236.01 1.8L256.51 20.2V0.549999H265.96V28.25C265.96 32.7 263.26 34.55 260.26 34.55Z" fill="black" fill-opacity="0.8"/><path d="M10.6369 25.4H7.63692V28.4H10.6369V25.4ZM39.0869 25.4L41.4602 27.2351L45.199 22.4H39.0869V25.4ZM32.4369 34V37H33.9094L34.8102 35.8351L32.4369 34ZM0.236914 34H-2.76309V37H0.236914V34ZM0.236914 0.549998V-2.45H-2.76309V0.549998H0.236914ZM38.9869 0.549998L41.3638 2.38045L45.0838 -2.45H38.9869V0.549998ZM32.2869 9.25V12.25H33.7631L34.6638 11.0805L32.2869 9.25ZM10.6369 9.25V6.25H7.63692V9.25H10.6369ZM10.6369 13.25H7.63692V16.25H10.6369V13.25ZM37.1369 13.25L39.4991 15.0993L43.2956 10.25H37.1369V13.25ZM31.1869 20.85V23.85H32.6483L33.5491 22.6993L31.1869 20.85ZM10.6369 20.85V17.85H7.63692V20.85H10.6369ZM10.6369 28.4H39.0869V22.4H10.6369V28.4ZM36.7137 23.5649L30.0637 32.1649L34.8102 35.8351L41.4602 27.2351L36.7137 23.5649ZM32.4369 31H0.236914V37H32.4369V31ZM3.23691 34V0.549998H-2.76309V34H3.23691ZM0.236914 3.55H38.9869V-2.45H0.236914V3.55ZM36.6101 -1.28045L29.9101 7.41955L34.6638 11.0805L41.3638 2.38045L36.6101 -1.28045ZM32.2869 6.25H10.6369V12.25H32.2869V6.25ZM7.63692 9.25V13.25H13.6369V9.25H7.63692ZM10.6369 16.25H37.1369V10.25H10.6369V16.25ZM34.7747 11.4007L28.8247 19.0007L33.5491 22.6993L39.4991 15.0993L34.7747 11.4007ZM31.1869 17.85H10.6369V23.85H31.1869V17.85ZM7.63692 20.85V25.4H13.6369V20.85H7.63692ZM53.1197 0.549998H56.1197V-2.45H53.1197V0.549998ZM53.1197 34V37H56.1197V34H53.1197ZM42.7697 34H39.7697V37H42.7697V34ZM42.7697 0.549998V-2.45H39.7697V0.549998H42.7697ZM50.1197 0.549998V34H56.1197V0.549998H50.1197ZM53.1197 31H42.7697V37H53.1197V31ZM45.7697 34V0.549998H39.7697V34H45.7697ZM42.7697 3.55H53.1197V-2.45H42.7697V3.55ZM102.113 25.4L104.486 27.2351L108.225 22.4H102.113V25.4ZM95.4631 34V37H96.9356L97.8363 35.8351L95.4631 34ZM102.113 0.549998L104.497 2.37184L108.182 -2.45H102.113V0.549998ZM95.4631 9.25V12.25H96.946L97.8465 11.0718L95.4631 9.25ZM78.6631 28.4H102.113V22.4H78.6631V28.4ZM99.7398 23.5649L93.0898 32.1649L97.8363 35.8351L104.486 27.2351L99.7398 23.5649ZM95.4631 31H78.6631V37H95.4631V31ZM78.6631 31C68.2449 31 61.5131 24.555 61.5131 16.95H55.5131C55.5131 28.745 65.8813 37 78.6631 37V31ZM61.5131 16.95C61.5131 13.0033 63.203 9.74902 66.1142 7.41601C69.0727 5.04506 73.41 3.55 78.6631 3.55V-2.45C72.3162 -2.45 66.5785 -0.645061 62.362 2.73398C58.0982 6.15098 55.5131 11.0967 55.5131 16.95H61.5131ZM78.6631 3.55H102.113V-2.45H78.6631V3.55ZM99.7296 -1.27184L93.0796 7.42816L97.8465 11.0718L104.497 2.37184L99.7296 -1.27184ZM95.4631 6.25H78.6631V12.25H95.4631V6.25ZM78.6631 6.25C71.9852 6.25 65.8631 10.4182 65.8631 17.4H71.8631C71.8631 14.7818 74.141 12.25 78.6631 12.25V6.25ZM65.8631 17.4C65.8631 24.3773 71.9911 28.4 78.6631 28.4V22.4C74.0351 22.4 71.8631 19.9227 71.8631 17.4H65.8631ZM146.306 0.549998H149.306V-2.45H146.306V0.549998ZM146.306 34V37H149.306V34H146.306ZM136.006 34H133.006V37H136.006V34ZM136.006 21.1H139.006V18.1H136.006V21.1ZM116.106 21.1V18.1H113.106V21.1H116.106ZM116.106 34V37H119.106V34H116.106ZM105.706 34H102.706V37H105.706V34ZM105.706 0.549998V-2.45H102.706V0.549998H105.706ZM116.106 0.549998H119.106V-2.45H116.106V0.549998ZM116.106 12.4H113.106V15.4H116.106V12.4ZM136.006 12.4V15.4H139.006V12.4H136.006ZM136.006 0.549998V-2.45H133.006V0.549998H136.006ZM143.306 0.549998V34H149.306V0.549998H143.306ZM146.306 31H136.006V37H146.306V31ZM139.006 34V21.1H133.006V34H139.006ZM136.006 18.1H116.106V24.1H136.006V18.1ZM113.106 21.1V34H119.106V21.1H113.106ZM116.106 31H105.706V37H116.106V31ZM108.706 34V0.549998H102.706V34H108.706ZM105.706 3.55H116.106V-2.45H105.706V3.55ZM113.106 0.549998V12.4H119.106V0.549998H113.106ZM116.106 15.4H136.006V9.4H116.106V15.4ZM139.006 12.4V0.549998H133.006V12.4H139.006ZM136.006 3.55H146.306V-2.45H136.006V3.55ZM205.728 34V37H211.447L208.197 32.2947L205.728 34ZM166.828 34L164.402 32.2363L160.94 37H166.828V34ZM173.078 25.4V22.4H171.55L170.652 23.6363L173.078 25.4ZM187.428 25.5L187.241 28.4942L193.728 28.8996L189.828 23.7L187.428 25.5ZM184.028 20.65L181.545 22.3335L181.551 22.3415L181.556 22.3496L184.028 20.65ZM178.028 11.8L180.511 10.1165L178.08 6.53071L175.579 10.0678L178.028 11.8ZM162.328 34V37H163.881L164.778 35.7322L162.328 34ZM150.078 34L147.631 32.2647L144.273 37H150.078V34ZM171.528 3.75L169.091 2.00038L169.086 2.00753L169.081 2.01471L171.528 3.75ZM184.828 3.75L182.36 5.45457L182.36 5.45529L184.828 3.75ZM205.728 31H166.828V37H205.728V31ZM169.255 35.7637L175.505 27.1637L170.652 23.6363L164.402 32.2363L169.255 35.7637ZM173.078 28.4H181.478V22.4H173.078V28.4ZM181.478 28.4C183.516 28.4 185.757 28.4014 187.241 28.4942L187.615 22.5058C185.9 22.3986 183.441 22.4 181.478 22.4V28.4ZM189.828 23.7C188.976 22.5636 187.624 20.5844 186.5 18.9504L181.556 22.3496C182.633 23.9156 184.081 26.0364 185.028 27.3L189.828 23.7ZM186.511 18.9665L180.511 10.1165L175.545 13.4835L181.545 22.3335L186.511 18.9665ZM175.579 10.0678L159.879 32.2678L164.778 35.7322L180.478 13.5322L175.579 10.0678ZM162.328 31H150.078V37H162.328V31ZM152.526 35.7353L173.976 5.48529L169.081 2.01471L147.631 32.2647L152.526 35.7353ZM173.965 5.49962C175.062 3.97243 176.318 3 178.228 3V-3C173.639 -3 170.795 -0.372439 169.091 2.00038L173.965 5.49962ZM178.228 3C180.029 3 181.264 3.868 182.36 5.45457L187.297 2.04543C185.493 -0.568 182.628 -3 178.228 -3V3ZM182.36 5.45529L203.26 35.7053L208.197 32.2947L187.297 2.0447L182.36 5.45529ZM219.917 0.549998H222.917V-2.45H219.917V0.549998ZM219.917 34V37H222.917V34H219.917ZM209.567 34H206.567V37H209.567V34ZM209.567 0.549998V-2.45H206.567V0.549998H209.567ZM216.917 0.549998V34H222.917V0.549998H216.917ZM219.917 31H209.567V37H219.917V31ZM212.567 34V0.549998H206.567V34H212.567ZM209.567 3.55H219.917V-2.45H209.567V3.55ZM256.11 32.75L258.162 30.5614L258.138 30.5391L258.114 30.5174L256.11 32.75ZM235.61 14.35L237.614 12.1174L232.61 7.62612V14.35H235.61ZM235.61 34V37H238.61V34H235.61ZM226.21 34H223.21V37H226.21V34ZM236.01 1.8L233.992 4.01982L233.999 4.02622L234.006 4.03259L236.01 1.8ZM256.51 20.2L254.506 22.4326L259.51 26.9239V20.2H256.51ZM256.51 0.549998V-2.45H253.51V0.549998H256.51ZM265.96 0.549998H268.96V-2.45H265.96V0.549998ZM260.26 31.55C259.859 31.55 259.615 31.5058 259.385 31.4165C259.143 31.3223 258.748 31.1108 258.162 30.5614L254.058 34.9386C255.072 35.8892 256.102 36.5777 257.21 37.0085C258.33 37.4442 259.361 37.55 260.26 37.55V31.55ZM258.114 30.5174L237.614 12.1174L233.606 16.5826L254.106 34.9826L258.114 30.5174ZM232.61 14.35V34H238.61V14.35H232.61ZM235.61 31H226.21V37H235.61V31ZM229.21 34V6.25H223.21V34H229.21ZM229.21 6.25C229.21 4.64973 229.678 3.93732 230.011 3.61601C230.375 3.26501 230.976 3 231.86 3V-3C229.794 -3 227.57 -2.36501 225.847 -0.703515C224.092 0.987679 223.21 3.40027 223.21 6.25H229.21ZM231.86 3C232.222 3 232.458 3.04033 232.698 3.13351C232.955 3.23366 233.373 3.45714 233.992 4.01982L238.028 -0.419824C236.997 -1.35714 235.965 -2.03366 234.872 -2.45852C233.762 -2.89034 232.748 -3 231.86 -3V3ZM234.006 4.03259L254.506 22.4326L258.514 17.9674L238.014 -0.43259L234.006 4.03259ZM259.51 20.2V0.549998H253.51V20.2H259.51ZM256.51 3.55H265.96V-2.45H256.51V3.55ZM262.96 0.549998V28.25H268.96V0.549998H262.96ZM262.96 28.25C262.96 29.851 262.492 30.5803 262.146 30.9156C261.772 31.278 261.159 31.55 260.26 31.55V37.55C262.361 37.55 264.597 36.897 266.324 35.2219C268.078 33.5197 268.96 31.099 268.96 28.25H262.96Z" fill="url(#paint0_linear_6_38)" mask="url(#path-1-outside-1_6_38)"/><defs><linearGradient id="paint0_linear_6_38" x1="133" y1="-8" x2="133" y2="42" gradientUnits="userSpaceOnUse"><stop stop-color="#BBFFBA"/><stop offset="1" stop-color="#59E457"/></linearGradient></defs></svg>