<svg width="17" height="20" fill="none" xmlns="http://www.w3.org/2000/svg"><path id="Vector" d="M6 16C5.45 16 4.97933 15.8043 4.588 15.413C4.19667 15.0217 4.00067 14.5507 4 14V2C4 1.45 4.196 0.979333 4.588 0.588C4.98 0.196667 5.45067 0.000666667 6 0H15C15.55 0 16.021 0.196 16.413 0.588C16.805 0.98 17.0007 1.45067 17 2V14C17 14.55 16.8043 15.021 16.413 15.413C16.0217 15.805 15.5507 16.0007 15 16H6ZM2 20C1.45 20 0.979333 19.8043 0.588 19.413C0.196667 19.0217 0.000666667 18.5507 0 18V5C0 4.71667 0.0960001 4.47933 0.288 4.288C0.48 4.09667 0.717333 4.00067 1 4C1.28333 4 1.521 4.096 1.713 4.288C1.905 4.48 2.00067 4.71733 2 5V18H12C12.2833 18 12.521 18.096 12.713 18.288C12.905 18.48 13.0007 18.7173 13 19C13 19.2833 12.904 19.521 12.712 19.713C12.52 19.905 12.2827 20.0007 12 20H2Z" fill="#7A7A7A"/></svg>