<svg width="155" height="32" fill="none" xmlns="http://www.w3.org/2000/svg"><g clip-path="url(#clip0_6_66)"><path d="M56.7911 19.9753L53.9065 24.3349H39.9445V7.37756H56.7478L53.8425 11.7888H44.4554V13.8113H55.9461L53.3652 17.6652H44.4577V19.9753H56.7911Z" fill="white"/><path d="M74.4166 24.3348L77.1254 19.9753H80.7684C81.6363 19.9753 82.6549 19.9753 83.3493 20.027C82.9587 19.418 82.3512 18.3798 81.8738 17.5685L79.2724 13.0742L72.4752 24.3348H67.1536L76.4539 9C77.0615 8.01123 77.9499 7.09888 79.3592 7.09888C80.7044 7.09888 81.5929 7.93708 82.221 9L91.2838 24.3348H74.4166Z" fill="white"/><path d="M109.905 19.9753L107 24.3349H94.1868V7.37756H98.6748V19.9753H109.905Z" fill="white"/><path d="M121.092 13.7506H130.372V24.3349H120.421C115.396 24.3349 111.684 20.609 111.684 15.6922C111.684 10.7236 115.391 7.37756 120.421 7.37756H130.806L127.901 11.7888H120.421C117.993 11.7888 116.15 13.5124 116.15 15.9191C116.15 18.391 117.926 19.9753 120.421 19.9753H125.902V17.5169H118.404L121.092 13.7506Z" fill="white"/><path d="M155 15.8449C155 21.9011 151.444 24.609 144.398 24.609C137.352 24.609 133.798 21.8966 133.798 15.8449C133.798 9.79326 137.34 7.09888 144.398 7.09888C151.455 7.09888 155 9.78652 155 15.8449ZM150.535 15.8449C150.535 12.1933 148.909 11.5101 144.398 11.5101C139.887 11.5101 138.263 12.1843 138.263 15.8449C138.263 19.5056 139.889 20.2045 144.398 20.2045C148.906 20.2045 150.535 19.4944 150.535 15.8449Z" fill="white"/><path fill-rule="evenodd" clip-rule="evenodd" d="M7.3156 27.8854C5.86299 28.1102 4.36927 27.2989 3.60642 25.6877C2.19949 22.7259 3.73661 19.3955 5.66201 17.2899C8.19951 14.5236 18.8177 7.59106 16.7028 4.1169C18.1554 3.89218 19.6491 4.70117 20.4142 6.3124C21.8189 9.2742 20.2818 12.6045 18.3586 14.7124C15.8211 17.4764 5.20293 24.409 7.31789 27.8854H7.3156Z" fill="url(#paint0_linear_6_66)"/><path fill-rule="evenodd" clip-rule="evenodd" d="M12.0206 32C4.43318 22.9438 22.0358 21.6629 22.4629 11.5078C26.8893 19.8044 21.3917 24.9168 12.0206 32Z" fill="url(#paint1_linear_6_66)"/><path fill-rule="evenodd" clip-rule="evenodd" d="M11.9976 0C19.585 9.05618 1.9801 10.3371 1.55299 20.4921C-2.86879 12.1955 2.62646 7.08315 11.9976 0Z" fill="url(#paint2_linear_6_66)"/><path d="M64.1319 24.254H59.6324V13.7506H64.1319V24.254Z" fill="white"/><path d="M64.1319 10.6472H59.6324V7.29663H64.1319V10.6472Z" fill="white"/></g><defs><linearGradient id="paint0_linear_6_66" x1="3.06055" y1="16" x2="20.9601" y2="16" gradientUnits="userSpaceOnUse"><stop stop-color="#2E3389"/><stop offset="1" stop-color="#387FC1"/></linearGradient><linearGradient id="paint1_linear_6_66" x1="10.1226" y1="21.755" x2="24.0183" y2="21.755" gradientUnits="userSpaceOnUse"><stop stop-color="#2E3389"/><stop offset="1" stop-color="#387FC1"/></linearGradient><linearGradient id="paint2_linear_6_66" x1="-0.000114365" y1="10.2449" x2="13.8956" y2="10.2449" gradientUnits="userSpaceOnUse"><stop stop-color="#2E3389"/><stop offset="1" stop-color="#387FC1"/></linearGradient><clipPath id="clip0_6_66"><rect width="155" height="32" fill="white"/></clipPath></defs></svg>