<svg width="35" height="35" fill="none" xmlns="http://www.w3.org/2000/svg"><path fill-rule="evenodd" clip-rule="evenodd" d="M17.5 35C27.165 35 35 27.165 35 17.5C35 7.83502 27.165 0 17.5 0C7.83502 0 0 7.83502 0 17.5C0 27.165 7.83502 35 17.5 35ZM17.1621 10.2991L12.3458 12.9726L12.3492 12.9746L9.87292 11.5893L17.1696 7.40364L17.1621 10.2991ZM17.1617 21.284L17.1614 21.2842H17.1621L17.1617 21.284ZM26.9173 15.7444L17.1617 21.284L9.82186 17.1902V20.0105L17.156 24.1643L26.9234 18.5834L26.9193 21.4536L17.1621 26.9229L7.40417 21.2881V13.0164L17.1621 18.5116L26.9234 12.9274L26.9173 15.7444ZM22.0887 13.0244L17.2887 15.6953H17.288L14.7689 14.2675L22.0887 10.1835V13.0244Z" fill="#59E457"/></svg>