<svg width="196" height="26" fill="none" xmlns="http://www.w3.org/2000/svg"><g clip-path="url(#clip0_6_90)"><path d="M69.098 18.2367L65.5968 23.7474H48.7154V2.31226H69.0455L65.5305 7.88835H54.1703V10.4449H68.0838L64.9529 15.3222H54.1758V18.2367H69.098Z" fill="white"/><path d="M99.2601 10.8681C103.538 10.8681 105.845 12.8225 105.845 16.7311C105.845 21.1199 103.668 23.7474 98.3178 23.7474H81.9752L85.4626 18.2367H98.7267C100.012 18.2367 100.586 17.7878 100.586 16.6658C100.586 15.5438 100.012 15.129 98.7267 15.129H89.1876C84.6778 15.129 82.6053 12.6606 82.6053 8.97631C82.6053 4.93982 84.816 2.31226 90.1327 2.31226H105.373L101.885 7.88835H89.7126C88.4525 7.88835 87.8501 8.27183 87.8501 9.36262C87.8501 10.4534 88.4525 10.8681 89.7126 10.8681H99.2601Z" fill="white"/><path d="M127.433 15.7681C125.91 12.4702 125.203 10.8681 124.6 9.32852C124.047 10.8681 123.34 12.4361 121.82 15.7369L119.013 21.8243C118.383 23.202 117.438 24.0968 116.023 24.0968C114.658 24.0968 113.45 23.1367 112.983 21.1482L108.52 2.31223H113.956L115.614 9.77733C116.166 12.1805 116.531 13.9445 116.794 15.6744C117.371 14.1689 118.054 12.5327 119.259 9.74608L121.621 4.34895C122.539 2.23554 123.431 1.9458 124.716 1.9458C126.001 1.9458 126.946 2.22986 127.864 4.34895L130.199 9.76313C131.509 12.7117 132.114 14.2172 132.664 15.6602C132.94 13.9558 133.346 12.135 133.871 9.76313L135.529 2.29803H140.827L136.289 21.1369C135.817 23.1253 134.609 24.0854 133.249 24.0854C131.89 24.0854 130.914 23.2333 130.26 21.813L127.433 15.7681Z" fill="white"/><path d="M148.915 23.7474L152.195 18.2367H156.6C157.65 18.2367 158.882 18.2367 159.723 18.302C159.25 17.5322 158.515 16.217 157.937 15.1773L154.79 9.49613L146.563 23.7474H140.128L151.38 4.35749C152.115 3.10763 153.19 1.95435 154.895 1.95435C156.523 1.95435 157.597 3.01105 158.357 4.35749L169.322 23.7417L148.915 23.7474Z" fill="white"/><path d="M187.367 18.2764H178.187V23.7559H172.785V12.7884H187.892C189.572 12.7884 190.542 11.797 190.542 10.3227C190.542 8.84848 189.572 7.88835 187.892 7.88835H172.785L176.377 2.31226H187.395C192.825 2.31226 196 5.58178 196 10.354C196 15.1262 192.825 18.2764 187.367 18.2764Z" fill="white"/><path d="M78.0319 23.7474H72.5881V10.4677H78.0319V23.7474Z" fill="white"/><path d="M78.0319 6.54759H72.5881V2.31226H78.0319V6.54759Z" fill="white"/><path fill-rule="evenodd" clip-rule="evenodd" d="M37.5956 12.9986L20.8026 26H13.8666L30.6623 12.9986L17.7905 3.0366H10.8573L23.7263 12.9986L6.93328 26H0L16.793 12.9986L0 0H20.7004L28.9103 6.27772L37.579 12.9872L37.5956 12.9986Z" fill="url(#paint0_linear_6_90)"/></g><defs><linearGradient id="paint0_linear_6_90" x1="0" y1="12.9986" x2="37.5956" y2="12.9986" gradientUnits="userSpaceOnUse"><stop stop-color="#50C0AA"/><stop offset="1" stop-color="#211C53"/></linearGradient><clipPath id="clip0_6_90"><rect width="196" height="26" fill="white"/></clipPath></defs></svg>