<svg width="117" height="38" fill="none" xmlns="http://www.w3.org/2000/svg"><path d="M6.56611 18.575H18.2911V21.45H1.99111V1.075H18.2911V3.95H6.56611V9.55H17.5411V12.425H6.56611V18.575ZM25.7491 21.45H21.1741V6.875H25.7491V21.45ZM25.7491 5.25H21.1741V1.05H25.7491V5.25ZM43.9587 1.05H48.8587L41.0337 21.45H35.6587L27.7087 1.05H32.6337L38.4587 17.625L43.9587 1.05ZM66.6372 15.475H55.1372C55.6039 17.3917 57.1789 18.35 59.8622 18.35C61.6622 18.3333 63.6289 17.625 65.7622 16.225V19.425C64.0455 20.9917 61.8122 21.8 59.0622 21.85C56.3789 21.85 54.2539 21.1667 52.6872 19.8C51.1539 18.4667 50.3872 16.675 50.3872 14.425C50.3872 11.925 51.1039 9.99167 52.5372 8.625C53.9372 7.275 55.8789 6.6 58.3622 6.6C61.2122 6.6 63.2955 7.29167 64.6122 8.675C65.9622 10.0917 66.6372 12.3583 66.6372 15.475ZM58.6122 9.675C56.5955 9.675 55.4122 10.6417 55.0622 12.575H62.1622C62.1622 11.6917 61.8622 10.9917 61.2622 10.475C60.6455 9.94167 59.7622 9.675 58.6122 9.675ZM80.6349 6.875V9.75H76.8099C75.0599 9.73333 74.1932 10.5333 74.2099 12.15V21.45H69.6099V12.1C69.6099 10.3167 70.0932 8.99167 71.0599 8.125C71.9932 7.29167 73.3932 6.875 75.2599 6.875H80.6349ZM82.322 19.25V16.325C84.5053 17.575 86.6886 18.2833 88.872 18.45C91.1553 18.6167 92.297 18.1917 92.297 17.175C92.297 16.6917 92.0886 16.3333 91.672 16.1C91.2386 15.8667 90.497 15.7083 89.447 15.625C87.0136 15.425 85.247 14.9333 84.147 14.15C83.1303 13.4167 82.622 12.4 82.622 11.1C82.6053 9.71667 83.147 8.61667 84.247 7.8C85.397 6.95 87.0386 6.525 89.172 6.525C91.2386 6.525 92.847 6.88333 93.997 7.6C95.097 8.28333 95.9303 9.38333 96.497 10.9H91.947C91.4803 9.95 90.6303 9.475 89.397 9.475C88.0303 9.55833 87.3386 10.05 87.322 10.95C87.322 11.9167 88.4553 12.475 90.722 12.625C92.8553 12.7583 94.4303 13.2 95.447 13.95C96.497 14.7167 97.022 15.8583 97.022 17.375C97.022 20.3583 94.8553 21.85 90.522 21.85C87.0386 21.8167 84.3053 20.95 82.322 19.25ZM115.636 15.475H104.136C104.603 17.3917 106.178 18.35 108.861 18.35C110.661 18.3333 112.628 17.625 114.761 16.225V19.425C113.045 20.9917 110.811 21.8 108.061 21.85C105.378 21.85 103.253 21.1667 101.686 19.8C100.153 18.4667 99.3862 16.675 99.3862 14.425C99.3862 11.925 100.103 9.99167 101.536 8.625C102.936 7.275 104.878 6.6 107.361 6.6C110.211 6.6 112.295 7.29167 113.611 8.675C114.961 10.0917 115.636 12.3583 115.636 15.475ZM107.611 9.675C105.595 9.675 104.411 10.6417 104.061 12.575H111.161C111.161 11.6917 110.861 10.9917 110.261 10.475C109.645 9.94167 108.761 9.675 107.611 9.675Z" fill="white"/><path d="M33.5886 33.24V34.512C32.9806 35.2213 32.1033 35.576 30.9566 35.576C29.9486 35.576 29.1486 35.2587 28.5566 34.624C27.9806 34.0053 27.6926 33.1893 27.6926 32.176C27.6926 31.1733 27.9913 30.3653 28.5886 29.752C29.1753 29.1493 29.9379 28.848 30.8766 28.848C31.6713 28.848 32.3166 29.0293 32.8126 29.392C33.3193 29.76 33.6473 30.2907 33.7966 30.984H32.3646C32.2633 30.6053 32.0846 30.32 31.8286 30.128C31.5939 29.952 31.3059 29.864 30.9646 29.864C30.4419 29.864 30.0233 30.056 29.7086 30.44C29.3673 30.856 29.1966 31.4533 29.1966 32.232C29.1966 32.8827 29.3859 33.3973 29.7646 33.776C30.1379 34.1493 30.6446 34.336 31.2846 34.336C32.1326 34.3253 32.9006 33.96 33.5886 33.24ZM37.1356 31.696C36.4156 31.696 36.0556 32.176 36.0556 33.136C36.0556 33.632 36.1596 34 36.3676 34.24C36.5543 34.4533 36.8103 34.56 37.1356 34.56C37.5036 34.56 37.7783 34.4507 37.9596 34.232C38.1569 33.9973 38.2556 33.632 38.2556 33.136C38.2343 32.176 37.8609 31.696 37.1356 31.696ZM37.1356 35.576C36.3676 35.576 35.7463 35.3547 35.2716 34.912C34.7916 34.464 34.5516 33.8747 34.5516 33.144C34.5516 32.408 34.7809 31.8187 35.2396 31.376C35.7143 30.9173 36.3569 30.688 37.1676 30.688C38.0049 30.688 38.6529 30.9227 39.1116 31.392C39.5383 31.8293 39.7516 32.4133 39.7516 33.144C39.7516 33.9333 39.5169 34.5387 39.0476 34.96C38.5889 35.3707 37.9516 35.576 37.1356 35.576ZM48.4011 35.464H46.9291V32.616C46.9291 32.0293 46.6038 31.7307 45.9531 31.72H45.2811V35.464H43.8091V32.56C43.8091 32.2827 43.7398 32.0747 43.6011 31.936C43.4571 31.792 43.2278 31.72 42.9131 31.72H42.1451V35.464H40.6811V30.8H46.4651C47.1371 30.8 47.6278 30.9333 47.9371 31.2C48.2464 31.4667 48.4011 31.8933 48.4011 32.48V35.464ZM50.9728 35.464H49.5088V30.8H50.9728V35.464ZM50.9728 30.28H49.5088V28.936H50.9728V30.28ZM56.7999 35.464H55.3359V32.616C55.3306 32.0293 54.9946 31.7307 54.3279 31.72H53.5039V35.464H52.0319V30.8H54.8319C55.5199 30.8 56.0212 30.936 56.3359 31.208C56.6452 31.4747 56.7999 31.8987 56.7999 32.48V35.464ZM61.205 31.72H60.645C60.1703 31.72 59.8103 31.8347 59.565 32.064C59.309 32.304 59.181 32.656 59.181 33.12C59.181 33.5733 59.3036 33.9253 59.549 34.176C59.7943 34.4267 60.1463 34.552 60.605 34.552H61.205V31.72ZM62.669 30.8V35.224C62.669 35.9973 62.4716 36.5547 62.077 36.896C61.6983 37.2213 61.085 37.384 60.237 37.384C59.1863 37.384 58.381 37.112 57.821 36.568V35.544C58.461 36.0027 59.1196 36.2427 59.797 36.264C60.2876 36.2747 60.6476 36.2133 60.877 36.08C61.0956 35.952 61.205 35.7493 61.205 35.472H60.325C59.4396 35.472 58.7756 35.2667 58.333 34.856C57.901 34.456 57.685 33.8693 57.685 33.096C57.6903 32.36 57.9196 31.7947 58.373 31.4C58.8316 31 59.4823 30.8 60.325 30.8H62.669ZM66.1089 34.512V33.352C66.9142 34.0133 67.8502 34.3627 68.9169 34.4C69.7436 34.432 70.1569 34.192 70.1569 33.68C70.1676 33.264 69.7516 32.9893 68.9089 32.856C67.8049 32.6587 67.0689 32.3947 66.7009 32.064C66.3649 31.7707 66.2049 31.3627 66.2209 30.84C66.2209 30.2853 66.4342 29.8267 66.8609 29.464C67.3249 29.0693 67.9569 28.872 68.7569 28.872C69.5036 28.872 70.1169 29.0427 70.5969 29.384C71.0876 29.7307 71.3889 30.2293 71.5009 30.88H70.0769C69.8796 30.208 69.4556 29.872 68.8049 29.872C68.4582 29.872 68.1862 29.968 67.9889 30.16C67.8129 30.3307 67.7249 30.5467 67.7249 30.808C67.7249 31.0533 67.8102 31.248 67.9809 31.392C68.1729 31.552 68.4982 31.664 68.9569 31.728C69.9382 31.8667 70.6422 32.1013 71.0689 32.432C71.4689 32.7413 71.6689 33.1733 71.6689 33.728C71.6689 34.3733 71.4636 34.8453 71.0529 35.144C70.6422 35.4427 69.9916 35.592 69.1009 35.592C68.5409 35.592 67.9942 35.4987 67.4609 35.312C66.8956 35.1147 66.4449 34.848 66.1089 34.512ZM74.9793 31.696C74.2593 31.696 73.8993 32.176 73.8993 33.136C73.8993 33.632 74.0033 34 74.2113 34.24C74.398 34.4533 74.654 34.56 74.9793 34.56C75.3473 34.56 75.622 34.4507 75.8033 34.232C76.0007 33.9973 76.0993 33.632 76.0993 33.136C76.078 32.176 75.7047 31.696 74.9793 31.696ZM74.9793 35.576C74.2113 35.576 73.59 35.3547 73.1153 34.912C72.6353 34.464 72.3953 33.8747 72.3953 33.144C72.3953 32.408 72.6247 31.8187 73.0833 31.376C73.558 30.9173 74.2007 30.688 75.0113 30.688C75.8487 30.688 76.4967 30.9227 76.9553 31.392C77.382 31.8293 77.5953 32.4133 77.5953 33.144C77.5953 33.9333 77.3607 34.5387 76.8913 34.96C76.4327 35.3707 75.7953 35.576 74.9793 35.576ZM80.9168 31.696C80.1968 31.696 79.8368 32.176 79.8368 33.136C79.8368 33.632 79.9408 34 80.1488 34.24C80.3355 34.4533 80.5915 34.56 80.9168 34.56C81.2848 34.56 81.5595 34.4507 81.7408 34.232C81.9382 33.9973 82.0368 33.632 82.0368 33.136C82.0155 32.176 81.6422 31.696 80.9168 31.696ZM80.9168 35.576C80.1488 35.576 79.5275 35.3547 79.0528 34.912C78.5728 34.464 78.3328 33.8747 78.3328 33.144C78.3328 32.408 78.5622 31.8187 79.0208 31.376C79.4955 30.9173 80.1382 30.688 80.9488 30.688C81.7862 30.688 82.4342 30.9227 82.8928 31.392C83.3195 31.8293 83.5328 32.4133 83.5328 33.144C83.5328 33.9333 83.2982 34.5387 82.8288 34.96C82.3702 35.3707 81.7328 35.576 80.9168 35.576ZM89.1983 35.464H87.7343V32.616C87.729 32.0293 87.393 31.7307 86.7263 31.72H85.9023V35.464H84.4303V30.8H87.2303C87.9183 30.8 88.4197 30.936 88.7343 31.208C89.0437 31.4747 89.1983 31.8987 89.1983 32.48V35.464Z" fill="white"/></svg>