<svg xmlns="http://www.w3.org/2000/svg" xmlns:xlink="http://www.w3.org/1999/xlink" viewBox="0 0 48 49"><defs><style>.cls-1{fill:none;stroke:#59e457;}.cls-2{fill:url(#linear-gradient);}</style><linearGradient id="linear-gradient" x1="285.85" y1="-288.01" x2="299.02" y2="-291.26" gradientTransform="matrix(1, 0, 0, -1, -267.5, -265)" gradientUnits="userSpaceOnUse"><stop offset="0" stop-color="#59e457"/><stop offset="1" stop-color="#009d52"/></linearGradient></defs><g id="Layer_2" data-name="Layer 2"><g id="Layer_1-2" data-name="Layer 1"><rect class="cls-1" x="0.5" y="0.5" width="47" height="48" rx="4.5"/><path class="cls-2" d="M26.38,14.5a1.85,1.85,0,0,1,2,2A2.6,2.6,0,0,1,25.72,19a1.78,1.78,0,0,1-1.93-2A2.55,2.55,0,0,1,26.38,14.5Zm-4,20c-1,0-1.8-.65-1.07-3.52l1.18-5.1c.21-.81.24-1.14,0-1.14A7.8,7.8,0,0,0,20,25.86L19.5,25c2.52-2.19,5.41-3.47,6.65-3.47,1,0,1.21,1.28.69,3.23L25.48,30.1c-.24.94-.14,1.27.11,1.27a5.35,5.35,0,0,0,2.32-1.21l.59.81C26.05,33.52,23.38,34.5,22.35,34.5Z"/></g></g></svg>