<svg width="60" height="60" fill="none" xmlns="http://www.w3.org/2000/svg"><rect x="0.5" y="0.5" width="59" height="59" rx="4.5" stroke="#59E457"/><path fill-rule="evenodd" clip-rule="evenodd" d="M40.5037 17.171C40.8809 17.0196 41.2938 16.9674 41.6994 17.0198C42.105 17.0722 42.4885 17.2273 42.8098 17.4691C43.1312 17.7108 43.3788 18.0303 43.5268 18.3942C43.6749 18.7582 43.7179 19.1533 43.6515 19.5385L40.1892 39.5691C39.8534 41.5013 37.6307 42.6093 35.7729 41.6469C34.2189 40.8417 31.9107 39.6012 29.8346 38.3068C28.7966 37.6588 25.6168 35.584 26.0076 34.1076C26.3434 32.8452 31.6863 28.1015 34.7394 25.2811C35.9378 24.1731 35.3913 23.5339 33.9762 24.5531C30.462 27.0837 24.8199 30.932 22.9545 32.0153C21.3088 32.9704 20.4509 33.1335 19.4251 32.9704C17.5535 32.6734 15.8178 32.2133 14.4012 31.6527C12.4869 30.8956 12.58 28.3854 14.3997 27.6545L40.5037 17.171Z" fill="url(#paint0_linear_27_3)"/><defs><linearGradient id="paint0_linear_27_3" x1="25.0059" y1="3.95652" x2="57.8006" y2="25.9971" gradientUnits="userSpaceOnUse"><stop stop-color="#59E457"/><stop offset="1" stop-color="#009D52"/></linearGradient></defs></svg>