<svg width="60" height="60" fill="none" xmlns="http://www.w3.org/2000/svg"><rect x="0.5" y="0.5" width="59" height="59" rx="4.5" stroke="#59E457"/><path fill-rule="evenodd" clip-rule="evenodd" d="M30 18C31.2825 18 32.598 18.033 33.873 18.087L35.379 18.159L36.8205 18.2445L38.1705 18.336L39.4035 18.432C40.7416 18.5344 42.0007 19.1054 42.9593 20.0446C43.9179 20.9837 44.5146 22.2308 44.6445 23.5665L44.7045 24.204L44.817 25.569C44.922 26.9835 45 28.5255 45 30C45 31.4745 44.922 33.0165 44.817 34.431L44.7045 35.796C44.685 36.015 44.6655 36.2265 44.6445 36.4335C44.5146 37.7694 43.9176 39.0167 42.9587 39.9559C41.9998 40.8951 40.7403 41.4659 39.402 41.568L38.172 41.6625L36.822 41.7555L35.379 41.841L33.873 41.913C32.5828 41.9691 31.2915 41.9981 30 42C28.7085 41.9981 27.4173 41.9691 26.127 41.913L24.621 41.841L23.1795 41.7555L21.8295 41.6625L20.5965 41.568C19.2584 41.4656 17.9993 40.8946 17.0407 39.9554C16.0821 39.0163 15.4854 37.7692 15.3555 36.4335L15.2955 35.796L15.183 34.431C15.0683 32.9567 15.0073 31.4787 15 30C15 28.5255 15.078 26.9835 15.183 25.569L15.2955 24.204C15.315 23.985 15.3345 23.7735 15.3555 23.5665C15.4853 22.231 16.0818 20.9841 17.0401 20.045C17.9985 19.1059 19.2572 18.5348 20.595 18.432L21.8265 18.336L23.1765 18.2445L24.6195 18.159L26.1255 18.087C27.4163 18.0309 28.708 18.0019 30 18ZM27 26.3625V33.6375C27 34.3305 27.75 34.7625 28.35 34.4175L34.65 30.78C34.7871 30.7011 34.901 30.5874 34.9801 30.4505C35.0593 30.3136 35.101 30.1582 35.101 30C35.101 29.8418 35.0593 29.6864 34.9801 29.5495C34.901 29.4126 34.7871 29.2989 34.65 29.22L28.35 25.584C28.2131 25.505 28.0579 25.4634 27.8999 25.4634C27.7418 25.4634 27.5866 25.5051 27.4497 25.5841C27.3129 25.6632 27.1993 25.7769 27.1204 25.9138C27.0414 26.0507 26.9999 26.206 27 26.364V26.3625Z" fill="url(#paint0_linear_27_5)"/><defs><linearGradient id="paint0_linear_27_5" x1="26.7391" y1="5.47826" x2="58.4364" y2="27.1758" gradientUnits="userSpaceOnUse"><stop stop-color="#59E457"/><stop offset="1" stop-color="#009D52"/></linearGradient></defs></svg>