<svg width="60" height="60" fill="none" xmlns="http://www.w3.org/2000/svg"><rect x="0.5" y="0.5" width="59" height="59" rx="4.5" stroke="#59E457"/><path d="M23 20C25.3869 20 27.6761 20.9725 29.364 22.7036C31.0518 24.4347 32 26.7826 32 29.2308C32 31.6789 31.0518 34.0268 29.364 35.7579C27.6761 37.489 25.3869 38.4615 23 38.4615C20.6131 38.4615 18.3239 37.489 16.636 35.7579C14.9482 34.0268 14 31.6789 14 29.2308C14 26.7826 14.9482 24.4347 16.636 22.7036C18.3239 20.9725 20.6131 20 23 20ZM36.5 21.5385C38.75 21.5385 40.25 24.9831 40.25 29.2308C40.25 33.4785 38.75 36.9231 36.5 36.9231C34.25 36.9231 32.75 33.4785 32.75 29.2308C32.75 24.9831 34.25 21.5385 36.5 21.5385ZM42.5 22.3077C43.07 22.3077 43.568 23.58 43.82 25.7631L43.8905 26.4446L43.919 26.8062L43.964 27.5662L43.979 27.9646L43.997 28.7969L44 29.2308L43.997 29.6646L43.979 30.4969L43.964 30.8969L43.919 31.6554L43.889 32.0169L43.8215 32.6985C43.568 34.8831 43.0715 36.1538 42.5 36.1538C41.93 36.1538 41.432 34.8815 41.18 32.6985L41.1095 32.0169C41.0992 31.8965 41.0897 31.776 41.081 31.6554L41.036 30.8954C41.0302 30.7626 41.0252 30.6298 41.021 30.4969L41.003 29.6646V28.7969L41.021 27.9646L41.036 27.5646L41.081 26.8062L41.111 26.4446L41.1785 25.7631C41.432 23.5785 41.9285 22.3077 42.5 22.3077Z" fill="url(#paint0_linear_27_6)"/><defs><linearGradient id="paint0_linear_27_6" x1="25.7391" y1="10.3679" x2="51.7171" y2="33.4852" gradientUnits="userSpaceOnUse"><stop stop-color="#59E457"/><stop offset="1" stop-color="#009D52"/></linearGradient></defs></svg>