<svg width="60" height="60" fill="none" xmlns="http://www.w3.org/2000/svg"><rect x="0.5" y="0.5" width="59" height="59" rx="4.5" stroke="#59E457"/><path d="M28.3025 37.842C28.4333 37.8422 28.5628 37.8686 28.6836 37.9199C28.8043 37.9711 28.914 38.0462 29.0063 38.1407C29.0987 38.2352 29.1719 38.3473 29.2218 38.4707C29.2717 38.5941 29.2972 38.7263 29.2971 38.8598C29.2969 38.9933 29.2709 39.1254 29.2207 39.2486C29.1705 39.3719 29.097 39.4838 29.0043 39.578C28.9117 39.6723 28.8018 39.747 28.6809 39.7979C28.56 39.8488 28.4305 39.8749 28.2997 39.8747C28.0356 39.8743 27.7824 39.7669 27.5959 39.576C27.4094 39.3851 27.3048 39.1265 27.3052 38.8569C27.3056 38.5873 27.4108 38.329 27.5979 38.1386C27.7849 37.9483 28.0384 37.8416 28.3025 37.842ZM43.9201 31.5572C43.7893 31.5571 43.6598 31.5307 43.539 31.4796C43.4182 31.4284 43.3085 31.3534 43.2161 31.259C43.1237 31.1646 43.0504 31.0525 43.0004 30.9291C42.9505 30.8058 42.9248 30.6736 42.9249 30.5401C42.925 30.4066 42.9508 30.2745 43.001 30.1512C43.0511 30.0279 43.1245 29.9159 43.2171 29.8216C43.3096 29.7273 43.4195 29.6525 43.5404 29.6015C43.6612 29.5505 43.7907 29.5244 43.9215 29.5244C44.1857 29.5246 44.4389 29.6319 44.6256 29.8226C44.8122 30.0134 44.9169 30.272 44.9168 30.5415C44.9166 30.8111 44.8115 31.0695 44.6246 31.26C44.4376 31.4505 44.1843 31.5574 43.9201 31.5572ZM43.9201 27.3992C43.1035 27.3999 42.3206 27.7313 41.7431 28.3206C41.1657 28.9099 40.841 29.7089 40.8402 30.5423C40.8402 30.8791 40.8955 31.2146 41.0032 31.5413L30.8299 37.0685C30.5478 36.6505 30.1704 36.3088 29.7301 36.0728C29.2898 35.8368 28.7999 35.7136 28.3025 35.7138C27.1281 35.7138 26.0585 36.4005 25.54 37.4718L16.4009 32.5533C15.4347 32.0358 14.7122 30.4136 14.7887 28.936C14.8284 28.1654 15.0891 27.5669 15.4872 27.3355C15.7393 27.191 16.0425 27.2025 16.3655 27.3746L16.425 27.4078C18.8475 28.709 26.7725 32.9697 27.1068 33.1273C27.6211 33.3716 27.9073 33.47 28.7856 33.0449L45.1682 24.35C45.4091 24.2575 45.6896 24.0218 45.6896 23.6647C45.6896 23.1703 45.1881 22.9751 45.1866 22.9751C44.2545 22.5197 42.8222 21.8358 41.4253 21.1679C38.4389 19.7409 35.0545 18.1245 33.5684 17.3294C32.2848 16.6441 31.2521 17.2224 31.0679 17.338L30.7109 17.5188C24.0213 20.8946 15.0678 25.4199 14.5578 25.7365C13.6469 26.3033 13.0816 27.4324 13.008 28.8334C12.8946 31.0555 14.0039 33.3731 15.592 34.2218L25.2567 39.308C25.3631 40.0551 25.7294 40.7382 26.2887 41.2325C26.8479 41.7268 27.5627 41.9992 28.3025 42C29.1105 41.9986 29.8857 41.6737 30.4614 41.0951C31.0371 40.5165 31.3673 39.7305 31.381 38.9061L42.026 33.0174C42.5643 33.4483 43.2344 33.6839 43.9201 33.6839C44.7367 33.6832 45.5197 33.3518 46.0971 32.7625C46.6745 32.1732 46.9992 31.3742 47 30.5408C46.9992 29.7075 46.6745 28.9084 46.0971 28.3192C45.5197 27.7299 44.7367 27.3985 43.9201 27.3977" fill="url(#paint0_linear_27_7)"/><defs><linearGradient id="paint0_linear_27_7" x1="26.3043" y1="3.95652" x2="60.2384" y2="29.2293" gradientUnits="userSpaceOnUse"><stop stop-color="#59E457"/><stop offset="1" stop-color="#009D52"/></linearGradient></defs></svg>