<svg width="60" height="60" fill="none" xmlns="http://www.w3.org/2000/svg"><rect x="0.5" y="0.5" width="59" height="59" rx="4.5" stroke="#59E457"/><path d="M40.8333 23.25C38.9819 19.0833 35.7403 17 31.1111 17C24.1667 17 20 20.4722 20 29.5C20 38.5278 24.8611 42 31.1111 42C37.3611 42 40.8333 37.8333 40.8333 35.0556C40.8333 32.2778 39.4444 28.1111 31.1111 28.1111C27.6389 28.1111 26.9444 29.8472 26.9444 31.5833C26.9444 33.6667 28.3333 35.0556 30.4167 35.0556C33.8889 35.0556 35.2778 32.9722 35.2778 28.1111C35.2778 23.25 32.5 22.5556 31.1111 22.5556C29.7222 22.5556 28.5653 23.0181 27.6389 23.9444" stroke="url(#paint0_linear_27_8)" stroke-width="3" stroke-linecap="round" stroke-linejoin="round"/><defs><linearGradient id="paint0_linear_27_8" x1="28.1522" y1="3.95652" x2="54.9066" y2="16.1659" gradientUnits="userSpaceOnUse"><stop stop-color="#59E457"/><stop offset="1" stop-color="#009D52"/></linearGradient></defs></svg>