<svg width="127" height="33" fill="none" xmlns="http://www.w3.org/2000/svg"><path d="M52.1707 18.5855L50.0773 21.3541H39.939V10.5614H52.1392L50.0301 13.3714H43.2127V14.6657H51.5568L49.6839 17.1205H43.2127V18.5901L52.1707 18.5855Z" fill="white"/><path d="M57.1993 21.3541H54.3292V10.5614H57.2073L57.1993 21.3541Z" fill="white"/><path d="M73.0366 18.5908L70.9528 21.3541H65.6797C62.0449 21.3541 59.3658 18.9846 59.3658 15.8575C59.3658 12.696 62.0517 10.5614 65.6797 10.5614H73.0299L70.9461 13.366H65.6797C63.925 13.366 62.609 14.4483 62.609 15.9957C62.609 17.5431 63.9093 18.5747 65.6797 18.5747L73.0366 18.5908Z" fill="white"/><path d="M87.4268 21.3541H84.3226V17.191H78.3294V21.3541H75.1951V10.5614H78.3294V14.3879H84.3226V10.5614H87.4268V21.3541Z" fill="white"/><path d="M94.7858 21.345L96.7254 18.6247H99.3345C99.9552 18.6247 100.684 18.6247 101.181 18.6565C100.902 18.2756 100.467 17.625 100.126 17.1172L98.2638 14.3086L93.387 21.3541H89.5853L96.2355 11.7515C96.6788 11.1326 97.3084 10.5614 98.317 10.5614C99.2791 10.5614 99.9153 11.085 100.365 11.7515L106.854 21.3541L94.7858 21.345Z" fill="white"/><path d="M111.89 21.3541H109.012V10.5614H111.89V21.3541Z" fill="white"/><path d="M123.972 20.7872L117.662 15.0382V21.1777H114.768V12.5141C114.768 11.1238 115.599 10.5614 116.506 10.5614C116.891 10.5614 117.277 10.6551 117.785 11.1238L124.091 16.8749V10.7288H127V19.3857C127 20.776 126.169 21.354 125.242 21.354C125.003 21.3547 124.767 21.3046 124.548 21.207C124.33 21.1093 124.133 20.9664 123.972 20.7872Z" fill="white"/><path fill-rule="evenodd" clip-rule="evenodd" d="M8.35446 9.4151L16.4971 4.89513L16.5098 0L4.17376 7.07649L8.36022 9.41846L8.35446 9.4151ZM16.496 23.467L32.9896 14.1013L33 9.33871L16.4971 18.7796L0 9.48923V23.4737L16.4971 33L32.9931 23.7534L33 18.9009L16.4868 28.3363L4.08743 21.3137V16.5455L16.4971 23.467H16.496ZM16.7112 14.0182L24.8263 9.50271V4.69968L12.4511 11.6043L16.7101 14.0182H16.7112Z" fill="white"/></svg>