<svg width="119" height="46" fill="none" xmlns="http://www.w3.org/2000/svg"><mask id="mask0_402_248" style="mask-type:alpha" maskUnits="userSpaceOnUse" x="0" y="0" width="119" height="46"><rect width="119" height="46" fill="#D9D9D9"/></mask><g mask="url(#mask0_402_248)"><path d="M41.6035 38.6177C70.3652 33.2866 78.8533 34.3803 119.281 52.4694C120.029 52.8031 121.201 52.5081 120.515 52.1588C83.68 33.1651 83.3422 30.0194 106.88 22.1828C107.492 21.9776 106.594 21.5478 105.844 21.6858C77.0821 27.0169 68.5946 25.9252 28.1663 7.83412C27.4199 7.49987 26.2461 7.79541 26.9346 8.14423C63.7699 27.14 64.1052 30.2842 40.5698 38.1202C39.955 38.3259 40.8528 38.7558 41.6035 38.6177Z" fill="#88F886"/><path d="M66.8647 49.2539C75.9766 47.5647 78.6662 47.9107 91.4739 53.6417C91.7127 53.7471 92.08 53.6546 91.8732 53.5412C80.2032 47.5238 80.0972 46.5294 87.5528 44.0452C87.7489 43.9809 87.4641 43.8446 87.2246 43.888C78.1126 45.5772 75.4251 45.2307 62.6154 39.5002C62.3765 39.3948 62.0093 39.4873 62.2161 39.6008C73.8841 45.6187 73.992 46.6125 66.5344 49.0973C66.3428 49.1625 66.6276 49.2988 66.8647 49.2539Z" fill="#88F886"/><path d="M6.91007 27.5205C20.2323 25.0515 24.1638 25.5581 42.8895 33.9361C43.2363 34.0908 43.7772 33.9546 43.4624 33.7919C26.3994 24.9952 26.2348 23.5402 37.1458 19.9079C37.4297 19.8131 37.0145 19.6141 36.6636 19.6791C23.3388 22.1467 19.4078 21.642 0.681572 13.262C0.334838 13.1073 -0.204095 13.243 0.110704 13.4057C17.1722 22.2049 17.3284 23.6599 6.42792 27.2917C6.14001 27.3875 6.55721 27.586 6.91007 27.5205Z" fill="#88F886"/></g></svg>