<svg width="119" height="46" fill="none" xmlns="http://www.w3.org/2000/svg"><mask id="mask0_402_243" style="mask-type:alpha" maskUnits="userSpaceOnUse" x="0" y="0" width="119" height="46"><rect width="119" height="46" fill="#D9D9D9"/></mask><g mask="url(#mask0_402_243)"><path d="M0.0302887 26.1439C0.381691 21.2955 3.76893 17.2002 8.98193 14.0718C7.58686 13.6597 6.68584 13.015 6.68848 12.2752C6.68848 11.0862 9.10603 10.1482 12.0732 10.1482C13.4132 10.1265 14.7464 10.3439 16.0101 10.7902C22.2087 8.53645 29.9634 7.09123 38.6587 6.67377C38.8173 6.28273 39.6786 6 40.8332 6C41.8663 6 42.8571 6.22725 43.4094 6.55224H43.9378C55.0105 6.57746 66.0298 8.08816 76.7007 11.0439C77.0809 10.9556 77.4704 10.9139 77.8607 10.9197C79.3588 10.9197 80.9943 11.3953 81.5201 11.9898C81.5989 12.056 81.6523 12.1476 81.6711 12.2488C81.6899 12.35 81.6729 12.4546 81.6231 12.5447C91.5392 15.8342 100.472 20.487 106.195 26.1598C108.037 27.9252 109.581 29.9774 110.766 32.2368C113.691 32.7652 116.611 33.9542 118.085 35.3836C120.146 37.3758 118.614 39.0456 114.611 39.0456C113.836 39.0433 113.063 38.9868 112.296 38.8765C111.921 46.2746 104.454 52.7611 90.7016 56.2488C91.3728 57.5699 90.2208 58.6056 87.9855 58.6056C86.6041 58.5904 85.2459 58.2482 84.0222 57.6069C78.8474 58.4002 73.6184 58.788 68.3832 58.7668C52.184 58.7668 36.4896 55.4852 24.1401 50.3303C22.8533 50.7726 21.5004 50.9915 20.1398 50.9777C15.701 50.9777 12.0178 48.9326 11.9201 46.4992C11.9161 46.1135 11.9923 45.7312 12.1438 45.3764C12.2952 45.0217 12.5185 44.7022 12.7998 44.4383C4.1414 38.7788 -0.418884 32.3398 0.0302887 26.1439ZM81.9825 55.5328C81.6839 54.394 82.8464 53.5458 84.8439 53.5458C86.0187 53.5597 87.1787 53.8095 88.255 54.2804C101.231 51.0543 108.409 45.009 108.94 38.0918C106.827 37.4128 104.977 36.4351 104.018 35.3624C102.29 33.4442 103.96 31.9276 107.696 31.9276C106.633 29.7744 105.217 27.8149 103.506 26.1307C98.1631 20.6905 89.6606 16.2093 80.1567 13.0414C80.0087 13.0414 79.8529 13.0599 79.6864 13.0599C78.1487 13.0599 76.4974 12.5658 76.0033 11.9608C75.9429 11.8915 75.8995 11.8092 75.8765 11.7203C65.5993 8.82926 54.9758 7.3537 44.2998 7.33431H43.7714C43.5072 7.66986 42.7145 7.90235 41.6576 7.90235C40.8423 7.9174 40.0327 7.76358 39.2797 7.45055C30.7983 7.8548 23.2655 9.30006 17.3101 11.5406C17.5242 11.7278 17.6685 11.9821 17.7195 12.2619C17.8728 13.4853 15.4658 14.5051 12.3401 14.5051C11.9411 14.5051 11.5475 14.4867 11.1723 14.4549C6.13632 17.4776 2.9155 21.4435 2.70148 26.1307C2.43726 31.9223 6.77839 37.8883 14.8264 43.1093C16.2265 42.5649 17.7184 42.2958 19.2203 42.3166C23.3501 42.3166 27.0095 44.1424 27.4111 46.478C27.5696 47.4081 27.1865 48.2827 26.4044 49.0093C37.9586 53.6621 52.4535 56.6002 67.3712 56.6002C72.2617 56.6185 77.1465 56.2617 81.9825 55.5328Z" fill="#88F886"/><path d="M27.6991 25.7053C29.1206 32.4561 43.0502 38.652 58.6258 38.652C74.2014 38.652 82.3657 32.4508 77.5041 25.7053C73.2343 19.771 60.1529 15.4669 47.8404 15.4669C35.5279 15.4669 26.452 19.771 27.6991 25.7053Z" fill="#88F886"/></g></svg>