<svg width="215" height="33" fill="none" xmlns="http://www.w3.org/2000/svg"><g clip-path="url(#clip0_6_40)"><path d="M211.888 8.89978H195.614C193.895 8.89978 192.502 10.2762 192.502 11.9741V13.2285C192.502 14.9264 193.895 16.3028 195.614 16.3028H211.888C213.607 16.3028 215 14.9264 215 13.2285V11.9741C215 10.2762 213.607 8.89978 211.888 8.89978Z" fill="url(#paint0_linear_6_40)"/><path d="M199.568 10.5938L200.273 11.2281V13.048L199.575 13.6324H196.824V14.8203H195.968V10.5938H199.568ZM199.417 11.6058L199.236 11.4419H196.831V12.7866H199.272L199.424 12.6583L199.417 11.6058Z" fill="white"/><path d="M204.963 13.6324L206.029 14.8203H204.884L203.825 13.6324H202.505V14.8203H201.646V10.5938H205.254L205.961 11.2281V13.048L205.261 13.6324H204.963ZM204.941 12.7866L205.091 12.6583V11.6058L204.913 11.4419H202.505V12.7866H204.941Z" fill="white"/><path d="M210.954 10.5938L211.676 11.2281V14.2382L210.978 14.8203H208.061L207.363 14.2382V11.2281L208.085 10.5938H210.954ZM210.81 11.6058L210.622 11.4419H208.398L208.217 11.6058V13.8462L208.369 13.9745H210.651L210.81 13.8462V11.6058Z" fill="white"/><path d="M19.7565 30.8071C19.6741 31.2548 19.4771 31.6742 19.1842 32.0254C18.8913 32.3766 18.5122 32.6479 18.0831 32.8135C17.654 32.979 17.1892 33.0333 16.7328 32.9712C16.2765 32.9091 15.8438 32.7326 15.4761 32.4585C15.1083 32.1845 14.8177 31.822 14.6319 31.4057C14.4461 30.9893 14.3713 30.5329 14.4146 30.0799C14.4579 29.6269 14.6179 29.1923 14.8793 28.8177C15.1408 28.443 15.4949 28.1407 15.9081 27.9395C16.2742 27.7612 16.5927 27.5003 16.8379 27.178C17.0832 26.8557 17.2483 26.481 17.32 26.084L18.7631 18.1702C18.7889 18.0311 18.8694 17.9077 18.9871 17.8271C19.1047 17.7465 19.2499 17.7153 19.3909 17.7402C19.4607 17.7522 19.5274 17.7778 19.5871 17.8154C19.6468 17.853 19.6984 17.902 19.7389 17.9594C19.7794 18.0168 19.8079 18.0816 19.8229 18.15C19.8379 18.2184 19.839 18.2891 19.8262 18.3579L18.3831 26.2717C18.3081 26.6663 18.3287 27.0729 18.4432 27.4582C18.5578 27.8434 18.763 28.1964 19.0421 28.4884C19.3384 28.7915 19.5576 29.1597 19.6818 29.5628C19.806 29.9659 19.8316 30.3924 19.7565 30.8071Z" fill="url(#paint1_linear_6_40)"/><path d="M36.3356 18.3603C36.7627 18.5326 37.1379 18.8102 37.4254 19.1665C37.7129 19.5229 37.9032 19.9461 37.978 20.3957C38.0528 20.8453 38.0097 21.3064 37.8528 21.7349C37.6958 22.1634 37.4303 22.545 37.0815 22.8433C36.7328 23.1415 36.3125 23.3465 35.8607 23.4386C35.4089 23.5307 34.9407 23.5069 34.5009 23.3695C34.0611 23.232 33.6643 22.9854 33.3484 22.6534C33.0325 22.3213 32.8081 21.9148 32.6965 21.4726C32.5956 21.0819 32.4033 20.7199 32.1351 20.4158C31.867 20.1118 31.5304 19.874 31.1524 19.7216L23.6192 16.6782C23.4867 16.6245 23.3811 16.5211 23.3256 16.3906C23.2702 16.2601 23.2694 16.1132 23.3234 15.9821C23.35 15.9159 23.3898 15.8556 23.4404 15.8048C23.4909 15.754 23.5512 15.7137 23.6178 15.6863C23.6843 15.6588 23.7558 15.6448 23.8279 15.645C23.9 15.6452 23.9714 15.6597 24.0377 15.6875L31.5709 18.7333C31.9464 18.8872 32.3533 18.9516 32.7587 18.921C33.1641 18.8905 33.5564 18.7659 33.9039 18.5575C34.2652 18.3385 34.6735 18.2065 35.096 18.1722C35.5184 18.138 35.9431 18.2024 36.3356 18.3603Z" fill="url(#paint2_linear_6_40)"/><path d="M9.36593 24.2404C9.05917 24.4629 8.6998 24.604 8.32212 24.6503C7.94444 24.6966 7.56105 24.6465 7.20853 24.5049C6.856 24.3632 6.54611 24.1347 6.30841 23.8411C6.07071 23.5476 5.91313 23.1987 5.85072 22.8279C5.7883 22.457 5.82312 22.0766 5.95187 21.7228C6.08061 21.3691 6.29898 21.0538 6.58613 20.8071C6.87329 20.5604 7.21965 20.3905 7.59218 20.3136C7.96471 20.2367 8.35097 20.2554 8.71412 20.3678C9.03752 20.4686 9.38047 20.4922 9.71491 20.4369C10.0494 20.3816 10.3658 20.2488 10.6383 20.0495L16.0524 16.1222C16.0996 16.088 16.1532 16.0633 16.2101 16.0495C16.2669 16.0357 16.326 16.0332 16.3839 16.042C16.4418 16.0508 16.4973 16.0709 16.5473 16.1009C16.5973 16.131 16.6409 16.1706 16.6754 16.2173C16.7448 16.3116 16.7737 16.4293 16.7556 16.5445C16.7376 16.6598 16.6742 16.7633 16.5792 16.8326L11.1674 20.7598C10.8952 20.9535 10.6735 21.2084 10.5204 21.5033C10.3674 21.7982 10.2874 22.1248 10.2871 22.4562C10.2873 22.8043 10.2039 23.1475 10.0437 23.4577C9.88361 23.7678 9.65133 24.0361 9.36593 24.2404Z" fill="url(#paint3_linear_6_40)"/><path d="M18.1522 1.78182C18.152 1.48408 18.2291 1.19126 18.3761 0.931345C18.5231 0.671425 18.7352 0.45308 18.992 0.297167C19.2488 0.141253 19.5417 0.0529773 19.8429 0.040771C20.1441 0.0285648 20.4434 0.0928304 20.7123 0.22744C20.9811 0.362049 21.2106 0.562505 21.3786 0.809654C21.5467 1.0568 21.6479 1.34239 21.6724 1.63914C21.6969 1.9359 21.644 2.23391 21.5187 2.5047C21.3934 2.7755 21.1999 3.01004 20.9566 3.18592C20.7423 3.34201 20.5682 3.5457 20.4483 3.78053C20.3284 4.01535 20.2661 4.27475 20.2664 4.53776V9.78354C20.2667 9.82929 20.2578 9.87466 20.2403 9.91702C20.2228 9.95937 20.197 9.99789 20.1644 10.0304C20.1317 10.0628 20.0929 10.0886 20.0501 10.1062C20.0074 10.1237 19.9615 10.1328 19.9152 10.1328C19.8214 10.1328 19.7315 10.096 19.6652 10.0305C19.5989 9.965 19.5616 9.87617 19.5616 9.78354V4.53776C19.5631 4.27596 19.5021 4.01751 19.3834 3.78343C19.2647 3.54935 19.0917 3.34625 18.8785 3.19067C18.6532 3.02937 18.4699 2.81755 18.3436 2.57262C18.2174 2.3277 18.1517 2.05667 18.1522 1.78182Z" fill="url(#paint4_linear_6_40)"/><path d="M1.8953 11.0286C1.42365 10.8498 1.00626 10.5545 0.682974 10.1711C0.359686 9.78759 0.141287 9.32868 0.0486239 8.83813C-0.0440395 8.34757 -0.00787407 7.84174 0.153665 7.36892C0.315204 6.8961 0.596726 6.47206 0.971364 6.13728C1.346 5.8025 1.80125 5.56814 2.29366 5.45659C2.78608 5.34503 3.29922 5.35999 3.78411 5.50005C4.269 5.6401 4.70947 5.90057 5.06346 6.2566C5.41745 6.61262 5.67316 7.05233 5.80619 7.53374C5.92479 7.95976 6.14341 8.35215 6.4443 8.67908C6.74519 9.00601 7.11987 9.25827 7.53794 9.41538L15.86 12.5705C15.9324 12.5978 15.9986 12.639 16.0549 12.6917C16.1111 12.7444 16.1563 12.8076 16.1878 12.8775C16.2193 12.9475 16.2365 13.0229 16.2384 13.0994C16.2404 13.176 16.227 13.2521 16.1991 13.3236C16.1427 13.4682 16.0304 13.5847 15.8869 13.6475C15.7435 13.7103 15.5807 13.7143 15.4343 13.6586L7.11703 10.5059C6.70321 10.344 6.25651 10.2812 5.81341 10.3225C5.3703 10.3638 4.94337 10.508 4.5675 10.7435C4.17667 10.9964 3.73067 11.1541 3.26613 11.2036C2.8016 11.2532 2.3318 11.1932 1.8953 11.0286Z" fill="url(#paint5_linear_6_40)"/><path d="M30.2696 0.688946C30.6119 0.383801 31.0277 0.170376 31.4772 0.0690296C31.9267 -0.032317 32.395 -0.0182015 32.8375 0.110023C33.2799 0.238248 33.6817 0.476306 34.0045 0.801494C34.3274 1.12668 34.5605 1.52815 34.6816 1.9676C34.8027 2.40706 34.8078 2.86983 34.6964 3.31179C34.5851 3.75375 34.3609 4.16015 34.0453 4.49222C33.7298 4.82429 33.3333 5.07096 32.8938 5.2087C32.4543 5.34643 31.9865 5.37064 31.5348 5.27901C31.1347 5.19868 30.7212 5.21253 30.3275 5.31943C29.9339 5.42634 29.5713 5.62329 29.2691 5.89435L23.2296 11.2851C23.1771 11.3321 23.1156 11.3685 23.0488 11.3921C22.982 11.4157 22.9112 11.426 22.8404 11.4225C22.7695 11.4189 22.7001 11.4016 22.636 11.3715C22.572 11.3414 22.5146 11.2991 22.4671 11.247C22.4195 11.1952 22.3826 11.1345 22.3588 11.0685C22.3349 11.0025 22.3244 10.9326 22.328 10.8626C22.3316 10.7926 22.3491 10.724 22.3796 10.6608C22.4101 10.5975 22.4529 10.5408 22.5056 10.4939L28.5451 5.10321C28.8485 4.83591 29.0837 4.50165 29.2317 4.12763C29.3796 3.7536 29.4361 3.35038 29.3966 2.95072C29.3503 2.53236 29.4053 2.10911 29.5571 1.71588C29.7089 1.32264 29.9531 0.970664 30.2696 0.688946Z" fill="url(#paint6_linear_6_40)"/><path d="M19.9152 17.2817C21.7337 17.2817 23.2079 15.8255 23.2079 14.0292C23.2079 12.2329 21.7337 10.7767 19.9152 10.7767C18.0966 10.7767 16.6224 12.2329 16.6224 14.0292C16.6224 15.8255 18.0966 17.2817 19.9152 17.2817Z" fill="url(#paint7_linear_6_40)"/><path d="M29.8144 14.2333C30.5761 13.4808 30.5761 12.2609 29.8144 11.5084C29.0526 10.756 27.8175 10.756 27.0558 11.5084C26.294 12.2609 26.294 13.4808 27.0558 14.2333C27.8175 14.9857 29.0526 14.9857 29.8144 14.2333Z" fill="url(#paint8_linear_6_40)"/><path d="M24.704 25.6065C25.6405 25.6065 26.3997 24.8566 26.3997 23.9315C26.3997 23.0065 25.6405 22.2566 24.704 22.2566C23.7675 22.2566 23.0083 23.0065 23.0083 23.9315C23.0083 24.8566 23.7675 25.6065 24.704 25.6065Z" fill="url(#paint9_linear_6_40)"/><path d="M14.6935 8.93066C15.5835 8.93066 16.305 8.21799 16.305 7.33886C16.305 6.45974 15.5835 5.74707 14.6935 5.74707C13.8035 5.74707 13.082 6.45974 13.082 7.33886C13.082 8.21799 13.8035 8.93066 14.6935 8.93066Z" fill="url(#paint10_linear_6_40)"/><path d="M6.9727 17.6475C7.95701 17.6475 8.75496 16.8593 8.75496 15.8871C8.75496 14.9148 7.95701 14.1266 6.9727 14.1266C5.98838 14.1266 5.19043 14.9148 5.19043 15.8871C5.19043 16.8593 5.98838 17.6475 6.9727 17.6475Z" fill="url(#paint11_linear_6_40)"/><path d="M49.1843 10.0401C50.3388 10.0401 50.5913 10.1969 51.2744 11.1924L57.985 20.7075C58.0061 20.7518 58.0405 20.7886 58.0835 20.8128C58.1266 20.8371 58.1762 20.8476 58.2255 20.843H58.3891C58.478 20.843 58.5334 20.7859 58.5334 20.6481V10.4607C58.5334 10.1684 58.6584 10.0306 58.9302 10.0306H60.8231C61.0925 10.0306 61.22 10.1684 61.22 10.4607V21.6531C61.22 23.233 60.6957 23.682 59.5965 23.682H58.0451C56.9459 23.682 56.6741 23.5656 55.955 22.5322L49.2204 13.0147C49.1973 12.972 49.1624 12.9366 49.1199 12.9127C49.0773 12.8887 49.0288 12.8771 48.9798 12.8792H48.8187C48.7105 12.8792 48.6744 12.9363 48.6744 13.0741V23.252C48.6744 23.5443 48.5469 23.682 48.2775 23.682H46.3822C46.1128 23.682 45.9685 23.5443 45.9685 23.252V12.0691C45.9685 10.4892 46.4904 10.0401 47.592 10.0401H49.1843Z" fill="white"/><path d="M74.1793 12.9862C76.6519 12.9862 77.3061 13.8249 77.3061 16.184V18.0372C77.3061 18.8735 76.9814 19.1467 76.2766 19.1467H67.1657V19.6218C67.1657 20.8501 67.5794 21.3586 69.1476 21.3586H76.6687C76.8852 21.3586 76.9934 21.475 76.9934 21.7102V23.3471C76.9934 23.5847 76.8852 23.6987 76.6687 23.6987H68.895C65.6504 23.6987 64.6041 22.5869 64.6041 19.7596V16.9443C64.6041 14.1171 65.6504 12.9862 68.895 12.9862H74.1793ZM67.1657 17.4123H74.4679C74.6844 17.4123 74.7758 17.3339 74.7758 17.0797V16.2625C74.7758 15.4618 74.504 15.1506 73.6742 15.1506H69.1476C67.5794 15.1506 67.1657 15.6376 67.1657 16.8849V17.4123Z" fill="white"/><path d="M82.802 12.9862C83.0714 12.9862 83.1989 13.1406 83.1989 13.4352V19.0707C83.1989 20.7076 83.4875 21.2089 85.0557 21.2089H89.7002C91.2684 21.2089 91.6845 20.7028 91.6845 19.0707V13.4352C91.6845 13.1406 91.8096 12.9862 92.0814 12.9862H93.8492C94.1186 12.9862 94.2437 13.1406 94.2437 13.4352V19.7525C94.2437 22.5797 93.1974 23.6916 89.9528 23.6916H84.9114C81.6644 23.6916 80.6181 22.5797 80.6181 19.7525V13.4352C80.6181 13.1406 80.7624 12.9862 81.0342 12.9862H82.802Z" fill="white"/><path d="M107.203 12.9862C107.419 12.9862 107.528 13.1026 107.528 13.3355V14.9748C107.528 15.229 107.419 15.3264 107.203 15.3264H102.405C100.856 15.3264 100.439 15.8324 100.439 17.4646V23.2544C100.439 23.5467 100.312 23.6845 100.043 23.6845H98.2748C98.0054 23.6845 97.8611 23.5467 97.8611 23.2544V16.9443C97.8611 14.1171 98.9074 12.9862 102.152 12.9862H107.203Z" fill="white"/><path d="M119.648 12.9862C122.892 12.9862 123.938 14.1171 123.938 16.9443V19.7525C123.938 22.5797 122.892 23.6916 119.648 23.6916H114.544C111.297 23.6916 110.25 22.5797 110.25 19.7525V16.9443C110.25 14.1171 111.297 12.9862 114.544 12.9862H119.648ZM112.829 19.2655C112.829 20.9024 113.245 21.4037 114.796 21.4037H119.395C120.963 21.4037 121.379 20.8953 121.379 19.2655V17.4123C121.379 15.773 120.963 15.286 119.395 15.286H114.796C113.245 15.286 112.829 15.773 112.829 17.4123V19.2655Z" fill="white"/><path d="M131.135 10.0402C132.217 10.0402 132.578 10.2944 133.059 11.5227L136.809 20.8834C136.823 20.9373 136.857 20.9845 136.903 21.0166C136.949 21.0488 137.005 21.0638 137.061 21.0592H137.278C137.332 21.061 137.385 21.0446 137.429 21.0127C137.473 20.9808 137.504 20.9352 137.518 20.8834L141.27 11.5227C141.752 10.2944 142.117 10.0402 143.195 10.0402H145.119C146.382 10.0402 146.706 10.5866 146.706 12.0691V23.2615C146.706 23.5538 146.562 23.6916 146.29 23.6916H144.45C144.181 23.6916 144.053 23.5538 144.053 23.2615V13.0741C144.053 12.9363 144.017 12.8792 143.909 12.8792H143.748C143.695 12.8693 143.641 12.8798 143.596 12.9086C143.551 12.9374 143.519 12.9822 143.507 13.0337L139.863 21.7695C139.267 23.1736 138.764 23.6821 137.554 23.6821H136.689C135.486 23.6821 134.976 23.1736 134.38 21.7695L130.757 13.0432C130.745 12.9917 130.713 12.9469 130.669 12.9181C130.624 12.8893 130.569 12.8788 130.517 12.8888H130.356C130.247 12.8888 130.211 12.9458 130.211 13.0836V23.2615C130.211 23.5538 130.084 23.6916 129.814 23.6916H127.974C127.705 23.6916 127.561 23.5538 127.561 23.2615V12.0691C127.561 10.5866 127.885 10.0402 129.165 10.0402H131.135Z" fill="white"/><path d="M152.669 9.03516C152.941 9.03516 153.066 9.17057 153.066 9.4628V11.3159C153.066 11.6082 152.941 11.765 152.669 11.765H150.903C150.632 11.765 150.487 11.6082 150.487 11.3159V9.4628C150.487 9.17057 150.632 9.03516 150.903 9.03516H152.669ZM152.669 12.9933C152.941 12.9933 153.066 13.1477 153.066 13.4423V23.2686C153.066 23.5609 152.941 23.6986 152.669 23.6986H150.903C150.632 23.6986 150.506 23.5609 150.506 23.2686V13.4352C150.506 13.1406 150.632 12.9861 150.903 12.9861L152.669 12.9933Z" fill="white"/><path d="M166.213 12.9862C169.46 12.9862 170.506 14.1171 170.506 16.9443V23.2616C170.506 23.5538 170.378 23.6916 170.109 23.6916H168.351C168.081 23.6916 167.954 23.5538 167.954 23.2616V17.6072C167.954 15.9702 167.648 15.4689 166.097 15.4689H161.287C159.738 15.4689 159.322 15.9773 159.322 17.6072V23.2616C159.322 23.5538 159.197 23.6916 158.925 23.6916H157.157C156.888 23.6916 156.743 23.5538 156.743 23.2616V16.9443C156.743 14.1171 157.79 12.9862 161.034 12.9862H166.213Z" fill="white"/><path d="M185.096 12.9861V9.49606C185.096 9.20146 185.223 9.06604 185.493 9.06604H187.261C187.53 9.06604 187.657 9.20146 187.657 9.49606V19.7524C187.657 22.5796 186.611 23.6915 183.364 23.6915H178.313C175.066 23.6915 174.02 22.5796 174.02 19.7524V16.9442C174.02 14.117 175.066 12.9861 178.313 12.9861H185.096ZM185.096 19.206V15.3263H178.568C177.017 15.3263 176.603 15.8323 176.603 17.4645V19.1989C176.603 20.8358 177.017 21.3371 178.568 21.3371H183.112C184.682 21.3514 185.096 20.8429 185.096 19.206Z" fill="white"/></g><defs><linearGradient id="paint0_linear_6_40" x1="192.502" y1="12.6013" x2="215" y2="12.6013" gradientUnits="userSpaceOnUse"><stop stop-color="#F1606F"/><stop offset="1" stop-color="#FDC372"/></linearGradient><linearGradient id="paint1_linear_6_40" x1="14.4" y1="25.3665" x2="19.8358" y2="25.3665" gradientUnits="userSpaceOnUse"><stop stop-color="#F1606F"/><stop offset="1" stop-color="#FDC372"/></linearGradient><linearGradient id="paint2_linear_6_40" x1="23.2801" y1="19.5743" x2="38.0121" y2="19.5743" gradientUnits="userSpaceOnUse"><stop stop-color="#F1606F"/><stop offset="1" stop-color="#FDC372"/></linearGradient><linearGradient id="paint3_linear_6_40" x1="5.81824" y1="20.3488" x2="16.75" y2="20.3488" gradientUnits="userSpaceOnUse"><stop stop-color="#F1606F"/><stop offset="1" stop-color="#FDC372"/></linearGradient><linearGradient id="paint4_linear_6_40" x1="18.1522" y1="5.08894" x2="21.6758" y2="5.08894" gradientUnits="userSpaceOnUse"><stop stop-color="#F1606F"/><stop offset="1" stop-color="#FDC372"/></linearGradient><linearGradient id="paint5_linear_6_40" x1="-7.5699e-06" y1="9.53892" x2="16.2352" y2="9.53892" gradientUnits="userSpaceOnUse"><stop stop-color="#F1606F"/><stop offset="1" stop-color="#FDC372"/></linearGradient><linearGradient id="paint6_linear_6_40" x1="22.3276" y1="5.71141" x2="34.7818" y2="5.71141" gradientUnits="userSpaceOnUse"><stop stop-color="#F1606F"/><stop offset="1" stop-color="#FDC372"/></linearGradient><linearGradient id="paint7_linear_6_40" x1="16.6248" y1="14.0292" x2="23.2079" y2="14.0292" gradientUnits="userSpaceOnUse"><stop stop-color="#F1606F"/><stop offset="1" stop-color="#FDC372"/></linearGradient><linearGradient id="paint8_linear_6_40" x1="26.4841" y1="12.872" x2="30.3853" y2="12.872" gradientUnits="userSpaceOnUse"><stop stop-color="#F1606F"/><stop offset="1" stop-color="#FDC372"/></linearGradient><linearGradient id="paint9_linear_6_40" x1="23.0059" y1="23.9315" x2="26.3997" y2="23.9315" gradientUnits="userSpaceOnUse"><stop stop-color="#F1606F"/><stop offset="1" stop-color="#FDC372"/></linearGradient><linearGradient id="paint10_linear_6_40" x1="13.082" y1="7.33886" x2="16.305" y2="7.33886" gradientUnits="userSpaceOnUse"><stop stop-color="#F1606F"/><stop offset="1" stop-color="#FDC372"/></linearGradient><linearGradient id="paint11_linear_6_40" x1="5.19283" y1="15.8871" x2="8.75496" y2="15.8871" gradientUnits="userSpaceOnUse"><stop stop-color="#F1606F"/><stop offset="1" stop-color="#FDC372"/></linearGradient><clipPath id="clip0_6_40"><rect width="215" height="33" fill="white"/></clipPath></defs></svg>