<svg xmlns="http://www.w3.org/2000/svg" xmlns:xlink="http://www.w3.org/1999/xlink" viewBox="0 0 48 49"><defs><style>.cls-1{fill:none;stroke:#59e457;}.cls-2{fill-rule:evenodd;fill:url(#linear-gradient);}</style><linearGradient id="linear-gradient" x1="277.08" y1="-281.63" x2="305.41" y2="-302.32" gradientTransform="matrix(1, 0, 0, -1, -267.5, -263)" gradientUnits="userSpaceOnUse"><stop offset="0" stop-color="#59e457"/><stop offset="1" stop-color="#009d52"/></linearGradient></defs><g id="Layer_2" data-name="Layer 2"><g id="Layer_1-2" data-name="Layer 1"><rect class="cls-1" x="0.5" y="0.5" width="47" height="48" rx="4.5"/><path class="cls-2" d="M38,35l-1.34-2.38-.79-1.41L27.24,15.88a3.73,3.73,0,0,0-6.48,0L10,35H38ZM20,25h0l.89-1.63L22.74,20a1.28,1.28,0,0,1,.48-.5,1.4,1.4,0,0,1,.69-.19,1.37,1.37,0,0,1,.68.19,1.38,1.38,0,0,1,.49.5l5.54,10.13-.52.28L22.17,24.5l-2.4.95ZM30.6,33l-7.83-5.77,4.84,6.25-7.27-4.81-3.4,1.57L18.72,27h0l3.35-1.2,8.34,5.79.89-.51L32.36,33Z"/></g></g></svg>