<svg width="38" height="35" fill="none" xmlns="http://www.w3.org/2000/svg"><path d="M36.2077 15.7857C35.613 15.1908 34.8199 14.8632 33.9746 14.8632C33.1293 14.8632 32.3362 15.1909 31.7416 15.7856L25.8956 21.6313C25.3602 20.6469 24.3166 19.9773 23.1195 19.9773H14.7532C13.4671 18.701 11.7166 17.9484 9.88777 17.8977C7.89167 17.8427 6.01777 18.5854 4.61329 19.9899L0.265526 24.3378C-0.0816251 24.6849 -0.0893847 25.2453 0.248193 25.6019L8.87591 34.7167C9.04415 34.8944 9.27709 34.9966 9.52184 34.9999C9.52597 34.9999 9.53011 35 9.53424 35C9.7745 35 10.0051 34.9046 10.1752 34.7344L13.683 31.2264H24.8575C25.0979 31.2264 25.3284 31.1309 25.4985 30.961L36.2077 20.2518C36.8025 19.657 37.1301 18.8639 37.1301 18.0186C37.13 17.1733 36.8024 16.3803 36.2077 15.7857ZM34.9257 18.9699L24.482 29.4135H13.3075C13.0671 29.4135 12.8365 29.509 12.6665 29.679L9.55208 32.7937L2.17112 24.9961L5.89528 21.2719C6.94384 20.2234 8.34492 19.6695 9.83759 19.7101C11.3321 19.7515 12.6999 20.383 13.6891 21.4883C13.861 21.6805 14.1067 21.7903 14.3645 21.7903H23.1194C23.861 21.7903 24.4644 22.3938 24.4644 23.1355C24.4644 23.8772 23.861 24.4805 23.1194 24.4805H15.9469C15.4463 24.4805 15.0404 24.8864 15.0404 25.387C15.0404 25.8876 15.4463 26.2935 15.9469 26.2935H23.1194C24.5946 26.2935 25.8368 25.2769 26.182 23.9074C26.1927 23.8976 26.2032 23.8876 26.2136 23.8772L33.0236 17.0674C33.2759 16.8151 33.6136 16.6761 33.9745 16.6761C34.3355 16.6761 34.6733 16.815 34.9256 17.0675C35.1779 17.3198 35.3169 17.6575 35.3169 18.0185C35.317 18.3796 35.1781 18.7175 34.9257 18.9699ZM21.1647 18.7141C26.3242 18.7141 30.5217 14.5165 30.5217 9.35704C30.5217 4.19757 26.3242 0 21.1647 0C16.0052 0 11.8076 4.1975 11.8076 9.35704C11.8076 14.5166 16.0051 18.7141 21.1647 18.7141ZM21.1647 1.81299C25.3245 1.81299 28.7087 5.19725 28.7087 9.35704C28.7087 13.5168 25.3245 16.9011 21.1647 16.9011C17.0049 16.9011 13.6206 13.5168 13.6206 9.35704C13.6206 5.19725 17.0048 1.81299 21.1647 1.81299Z" fill="#59E457"/><path fill-rule="evenodd" clip-rule="evenodd" d="M19.2785 7.56775L21.4992 6.33503L21.5027 5L18.1383 6.92995L19.2801 7.56867L19.2785 7.56775ZM21.4989 11.4001L25.9972 8.84581L26 7.54692L21.4992 10.1217L17 7.58797V11.4019L21.4992 14L25.9981 11.4782L26 10.1548L21.4964 12.7281L18.1148 10.8128V9.51241L21.4992 11.4001H21.4989ZM21.5576 8.82314L23.7708 7.59165V6.28173L20.3958 8.16481L21.5573 8.82314H21.5576Z" fill="#59E457"/></svg>