<svg width="122" height="40" fill="none" xmlns="http://www.w3.org/2000/svg"><path d="M64.7455 10.354C64.0571 13.3128 62.1927 14.5318 59.1775 14.5318H48.1157C45.5645 14.5318 42.6978 15.2284 41.8373 17.984C41.7104 17.5206 41.6429 17.0426 41.6365 16.5618V16.1349C41.6365 12.9167 44.6466 10.3625 47.3142 10.3625L64.7455 10.354ZM64.8316 23.9305C64.8316 27.2666 61.8198 29.6176 59.1252 29.6176H47.3142C44.9048 29.6176 42.2102 27.8761 41.7226 25.4398H57.3772C59.0391 25.4398 58.9531 23.8725 58.9531 23.8725V23.8178C58.9531 23.3534 58.8957 22.3103 57.3772 22.3103H47.3142C45.88 22.3103 44.2181 21.6717 43.2428 20.4818C43.0025 20.0674 42.8739 19.5964 42.8699 19.1159C42.8699 16.7649 45.5696 15.8089 47.5437 15.8089C47.5187 15.9156 47.5074 16.0252 47.51 16.1349V16.5703C47.51 16.9766 47.5386 18.1376 49.0572 18.1376H59.1201C62.3935 18.1291 64.8316 20.9154 64.8316 23.9305Z" fill="white"/><path d="M89.4304 16.647L89.3444 16.5309C88.0536 14.8783 86.0474 14.53 84.6706 14.53H64.7202C64.9784 12.4129 67.0723 10.3522 69.5374 10.3522H82.926C86.5638 10.33 88.9715 13.0805 89.4304 16.647Z" fill="white"/><path d="M89.2583 19.3788C89.2583 21.728 86.9653 24.2224 84.7566 24.89C84.4051 25.0478 84.0241 25.127 83.6396 25.1222H73.0098V29.6226H67.1262V15.7798H73.003V20.9717H81.0294C82.4636 20.9717 83.6396 19.5205 83.6396 17.7517C83.6478 17.0552 83.4587 16.3709 83.0946 15.7798H84.6706C87.1947 15.7798 89.2583 17.1422 89.2583 19.3788Z" fill="white"/><path d="M91.7251 10.354H97.6019V14.5318H91.7251V10.354ZM91.7251 15.7798H97.6019V29.6227H91.7251V15.7798Z" fill="white"/><path d="M122 10.354C121.83 11.5103 121.257 12.567 120.385 13.3332C119.512 14.0994 118.397 14.5245 117.242 14.5318H105.2C103.796 14.5318 101.825 14.8732 100.528 16.5037V15.2813C100.525 13.9776 101.034 12.7261 101.942 11.8014C102.85 10.8767 104.084 10.3543 105.372 10.3489L122 10.354ZM122 25.4688C121.813 26.6281 121.228 27.6832 120.346 28.4477C119.465 29.2122 118.345 29.6369 117.185 29.6466H105.374C104.09 29.643 102.859 29.1251 101.952 28.2063C101.044 27.2875 100.533 26.0424 100.529 24.7432V20.6457C100.529 17.4257 102.191 15.773 105.201 15.773H106.406V23.8947C106.406 24.301 106.464 25.462 107.953 25.462L122 25.4688Z" fill="white"/><path fill-rule="evenodd" clip-rule="evenodd" d="M20.7497 16.9203L25.2007 14.8152L25.2007 14.8152L33.9763 10.6715C34.6479 11.9305 35.0004 13.3384 35.0021 14.7691V25.2349C34.9998 26.7515 34.6042 28.241 33.8548 29.5544C33.1054 30.8679 32.0284 31.9593 30.7316 32.7197L21.7705 37.9543C20.4713 38.7105 18.9987 39.1085 17.5 39.1085C16.0012 39.1085 14.5286 38.7105 13.2295 37.9543L4.26831 32.7197C2.97147 31.9593 1.89455 30.8679 1.14516 29.5544C0.395764 28.241 0.000135327 26.7515 -0.00219727 25.2349V14.7691C-0.00075033 13.2516 0.394459 11.7611 1.1439 10.4467C1.89334 9.13223 2.97073 8.03997 4.26831 7.27913L13.2328 2.04452C14.5321 1.28866 16.0046 0.890869 17.5033 0.890869C19.0021 0.890869 20.4746 1.28866 21.7738 2.04452L26.4189 4.75743L26.4156 4.759L22.5719 6.5723L9.57143 12.7186C7.44546 13.7225 6.45165 16.1025 7.44546 18.252L7.52307 18.4227C8.30597 19.7373 9.4567 20.4322 10.6209 20.8266C10.683 20.8441 10.7454 20.8607 10.808 20.8763C11.0895 20.9472 11.3753 20.9996 11.6637 21.0332C11.7337 21.0417 11.8013 21.0509 11.8665 21.0605C13.7208 21.343 13.6539 22.0584 13.4471 22.7388C13.3504 23.021 13.1966 23.2797 12.9956 23.4984C12.7945 23.7171 12.5507 23.891 12.2795 24.009L8.98426 25.5661C6.97639 26.5171 5.86785 28.851 6.61194 30.9646C6.80914 31.5302 7.12115 32.0477 7.5279 32.484C7.93466 32.9202 8.42715 33.2654 8.9737 33.4975C9.52025 33.7295 10.1087 33.8433 10.7013 33.8313C11.2939 33.8194 11.8775 33.6821 12.4145 33.4282L25.2851 27.3451C27.217 26.4317 28.3137 24.2293 27.6962 22.1634C27.4583 21.352 26.9873 20.6306 26.3432 20.0907C25.699 19.5508 24.9108 19.2168 24.0787 19.1313C24.0566 19.124 24.034 19.1183 24.0112 19.1142C18.347 18.3083 20.7497 16.9203 20.7497 16.9203L20.7497 16.9203Z" fill="white"/></svg>