<svg width="35" height="35" fill="none" xmlns="http://www.w3.org/2000/svg"><path d="M11.261 3.34839C9.69602 3.34839 8.16614 3.81247 6.86487 4.68195C5.5636 5.55143 4.54939 6.78726 3.95048 8.23315C3.35157 9.67904 3.19487 11.2701 3.50019 12.805C3.80551 14.34 4.55914 15.7499 5.66578 16.8565C6.77242 17.9632 8.18236 18.7168 9.71731 19.0221C11.2523 19.3275 12.8433 19.1708 14.2892 18.5718C15.7351 17.9729 16.9709 16.9587 17.8404 15.6574C18.7098 14.3562 19.1739 12.8263 19.1739 11.2613C19.1716 9.16336 18.3372 7.15202 16.8538 5.66857C15.3703 4.18511 13.359 3.35069 11.261 3.34839ZM11.261 17.5916C10.009 17.5916 8.78512 17.2203 7.74411 16.5247C6.70309 15.8292 5.89172 14.8405 5.41259 13.6838C4.93347 12.5271 4.80811 11.2543 5.05236 10.0263C5.29662 8.79834 5.89952 7.67038 6.78483 6.78507C7.67014 5.89976 8.7981 5.29686 10.0261 5.0526C11.254 4.80835 12.5268 4.93371 13.6835 5.41283C14.8403 5.89196 15.8289 6.70333 16.5245 7.74435C17.2201 8.78536 17.5914 10.0093 17.5914 11.2613C17.5895 12.9396 16.9219 14.5487 15.7352 15.7354C14.5484 16.9222 12.9394 17.5897 11.261 17.5916Z" fill="#59E457"/><path d="M23.9219 12.8439C23.3423 12.8452 22.7637 12.892 22.1914 12.984C22.5754 10.6507 22.2091 8.25583 21.1452 6.14409C20.0812 4.03235 18.3746 2.31273 16.271 1.23285C14.1673 0.152961 11.7753 -0.231473 9.4392 0.1349C7.10314 0.501272 4.94362 1.59955 3.27158 3.27158C1.59955 4.94362 0.501272 7.10314 0.1349 9.4392C-0.231473 11.7753 0.152961 14.1673 1.23285 16.271C2.31273 18.3746 4.03235 20.0812 6.14409 21.1452C8.25583 22.2091 10.6507 22.5754 12.984 22.1914C12.6301 24.4288 12.9706 26.721 13.9597 28.7589C14.9488 30.7968 16.5388 32.4826 18.5155 33.5889C20.4922 34.6952 22.7606 35.169 25.0149 34.9463C27.2692 34.7237 29.401 33.8153 31.1231 32.3436C32.8452 30.872 34.0747 28.9077 34.646 26.7157C35.2173 24.5237 35.1028 22.2092 34.3181 20.0842C33.5333 17.9592 32.116 16.1259 30.2571 14.8313C28.3983 13.5367 26.1872 12.8431 23.9219 12.8439ZM23.9219 17.5916C25.174 17.5916 26.3979 17.9629 27.4389 18.6585C28.4799 19.3541 29.2913 20.3427 29.7704 21.4994C30.2495 22.6561 30.3749 23.929 30.1306 25.1569C29.8864 26.3849 29.2835 27.5128 28.3982 28.3981C27.5128 29.2835 26.3849 29.8864 25.1569 30.1306C23.929 30.3749 22.6562 30.2495 21.4994 29.7704C20.3427 29.2913 19.3541 28.4799 18.6585 27.4389C17.9629 26.3979 17.5916 25.174 17.5916 23.9219C17.5935 22.2436 18.2611 20.6346 19.4478 19.4478C20.6346 18.2611 22.2436 17.5935 23.9219 17.5916ZM1.76584 11.2613C1.76584 9.38329 2.32274 7.54743 3.36612 5.98591C4.40949 4.42439 5.89248 3.20733 7.62755 2.48864C9.36262 1.76995 11.2718 1.58191 13.1138 1.94829C14.9557 2.31468 16.6477 3.21904 17.9756 4.547C19.3036 5.87497 20.2079 7.5669 20.5743 9.40884C20.9407 11.2508 20.7527 13.16 20.034 14.8951C19.3153 16.6301 18.0982 18.1131 16.5367 19.1565C14.9752 20.1999 13.1393 20.7568 11.2613 20.7568C8.74379 20.7541 6.33017 19.7528 4.55001 17.9726C2.76985 16.1925 1.76857 13.7788 1.76584 11.2613ZM23.9219 33.4174C21.4044 33.4147 18.9908 32.4134 17.2106 30.6332C15.4305 28.8531 14.4292 26.4395 14.4265 23.9219C14.4309 23.2032 14.5196 22.4875 14.6908 21.7894C15.3467 21.5767 15.9812 21.3028 16.5859 20.9712C15.9011 22.6672 15.8235 24.5477 16.3662 26.2943C16.9089 28.0409 18.0385 29.5464 19.5637 30.5557C21.089 31.565 22.9162 32.0162 24.736 31.8328C26.5558 31.6495 28.2563 30.8429 29.5496 29.5496C30.8429 28.2563 31.6495 26.5558 31.8328 24.736C32.0162 22.9162 31.565 21.089 30.5557 19.5637C29.5464 18.0385 28.0409 16.9088 26.2943 16.3662C24.5477 15.8235 22.6672 15.9011 20.9712 16.5859C21.3028 15.9812 21.5767 15.3467 21.7894 14.6908C22.4875 14.5196 23.2032 14.4309 23.9219 14.4265C26.4403 14.4265 28.8555 15.4269 30.6363 17.2076C32.417 18.9884 33.4174 21.4036 33.4174 23.9219C33.4174 26.4403 32.417 28.8555 30.6363 30.6363C28.8555 32.417 26.4403 33.4174 23.9219 33.4174Z" fill="#59E457"/><path d="M22.3396 3.34845H27.8787C28.5082 3.34845 29.112 3.59855 29.5572 4.04374C30.0024 4.48892 30.2525 5.09273 30.2525 5.72231V9.35117L30.0207 9.11932C29.8714 8.97518 29.6716 8.89542 29.4641 8.89722C29.2566 8.89903 29.0581 8.98225 28.9114 9.12896C28.7647 9.27567 28.6815 9.47414 28.6797 9.68161C28.6779 9.88908 28.7577 10.089 28.9018 10.2382L30.4844 11.8208C30.6335 11.9678 30.8344 12.0502 31.0438 12.0502C31.2532 12.0502 31.4542 11.9678 31.6033 11.8208L33.1858 10.2382C33.33 10.089 33.4097 9.88908 33.4079 9.68161C33.4061 9.47414 33.3229 9.27567 33.1762 9.12896C33.0295 8.98225 32.831 8.89903 32.6235 8.89722C32.4161 8.89542 32.2162 8.97518 32.0669 9.11932L31.8351 9.35117V5.72231C31.8338 4.67339 31.4166 3.66778 30.6749 2.92607C29.9332 2.18437 28.9276 1.76713 27.8787 1.76587H22.3396C22.1298 1.76587 21.9285 1.84924 21.7801 1.99763C21.6317 2.14603 21.5483 2.3473 21.5483 2.55716C21.5483 2.76702 21.6317 2.96829 21.7801 3.11668C21.9285 3.26508 22.1298 3.34845 22.3396 3.34845Z" fill="#59E457"/><path d="M12.8442 31.8346H7.30518C6.67559 31.8346 6.07179 31.5845 5.6266 31.1393C5.18142 30.6941 4.93131 30.0903 4.93131 29.4607V25.8319L5.16316 26.0637C5.3124 26.2079 5.51228 26.2876 5.71975 26.2858C5.92723 26.284 6.12569 26.2008 6.2724 26.0541C6.41912 25.9074 6.50233 25.7089 6.50414 25.5014C6.50594 25.2939 6.42618 25.0941 6.28204 24.9448L4.69946 23.3622C4.54864 23.2186 4.34833 23.1384 4.14002 23.1384C3.93172 23.1384 3.7314 23.2186 3.58058 23.3622L1.998 24.9448C1.85386 25.0941 1.77411 25.2939 1.77591 25.5014C1.77771 25.7089 1.86093 25.9074 2.00764 26.0541C2.15435 26.2008 2.35282 26.284 2.56029 26.2858C2.76777 26.2876 2.96765 26.2079 3.11689 26.0637L3.34873 25.8319V29.4607C3.34999 30.5096 3.76723 31.5153 4.50894 32.257C5.25064 32.9987 6.25625 33.4159 7.30518 33.4172H12.8442C13.0541 33.4172 13.2553 33.3338 13.4037 33.1854C13.5521 33.037 13.6355 32.8357 13.6355 32.6259C13.6355 32.416 13.5521 32.2147 13.4037 32.0663C13.2553 31.9179 13.0541 31.8346 12.8442 31.8346Z" fill="#59E457"/><path fill-rule="evenodd" clip-rule="evenodd" d="M9.42569 9.71528L11.2378 8.71952L11.2407 7.64111L8.49528 9.20008L9.42697 9.71602L9.42569 9.71528ZM11.2376 12.8109L14.9083 10.7477L14.9106 9.69845L11.2378 11.7783L7.56641 9.73161V12.8124L11.2378 14.9111L14.909 12.874L14.9106 11.805L11.2355 13.8837L8.47607 12.3366V11.2861L11.2378 12.8109H11.2376ZM11.2855 10.7293L13.0915 9.73458V8.67646L10.3374 10.1976L11.2852 10.7293H11.2855Z" fill="#59E457"/><path fill-rule="evenodd" clip-rule="evenodd" d="M26.8976 22.5412V21.3647H21.464V22.5412H23.4565V23.3076L23.3921 23.3109C23.2002 23.321 22.9693 23.3354 22.8581 23.3443C21.4849 23.4547 20.6047 23.7152 20.6233 24.006C20.6295 24.103 20.7345 24.1964 20.9373 24.2852C21.3814 24.4797 22.2784 24.6294 23.2847 24.6768C23.3493 24.6799 23.4156 24.6836 23.4321 24.6851L23.4622 24.6878V27.151H24.905V24.6879L24.9466 24.6851C24.9694 24.6835 25.037 24.6798 25.0969 24.6768C25.1567 24.6739 25.2559 24.6681 25.3173 24.664C26.5952 24.5782 27.5169 24.36 27.7093 24.0975C27.7876 23.9906 27.7346 23.8747 27.561 23.7735C27.209 23.5683 26.3955 23.4056 25.3631 23.334C25.2387 23.3254 24.9467 23.3089 24.9151 23.3087C24.9056 23.3087 24.905 23.287 24.905 22.9249V22.5412H26.8976ZM27.3063 23.7994C27.0257 23.6139 26.2136 23.4672 25.1369 23.4075C25.0708 23.4038 24.9916 23.4005 24.9609 23.4002L24.9051 23.3995L24.9022 24.2554L24.865 24.2586C24.6155 24.2801 23.7204 24.2808 23.4951 24.2597L23.4622 24.2566V23.3981L23.3692 23.4016C23.2429 23.4063 22.9771 23.4227 22.8238 23.4352C21.8868 23.5113 21.2202 23.6574 21.024 23.8296C20.8837 23.9527 20.9846 24.0771 21.3151 24.1887C21.7873 24.348 22.6781 24.4574 23.7342 24.4857C23.9672 24.492 24.5829 24.4888 24.8106 24.4802C25.6049 24.45 26.2402 24.3828 26.7191 24.2782C27.2025 24.1726 27.4432 24.0414 27.4019 23.9061C27.3925 23.8752 27.3511 23.8291 27.3063 23.7994Z" fill="#59E457"/></svg>