<svg width="207" height="27" fill="none" xmlns="http://www.w3.org/2000/svg"><path fill-rule="evenodd" clip-rule="evenodd" d="M164.931 0.277542C164.114 0.726822 163.622 1.52109 163.617 2.40311C163.61 3.46709 164.163 4.2688 165.202 4.70274C165.897 4.99283 166.124 4.99283 166.819 4.70274C168.592 3.96241 168.949 2.16888 167.594 0.814328C166.734 -0.0453934 165.845 -0.224482 164.931 0.277542ZM98.5988 4.35175C98.5988 8.24903 98.5768 8.44538 98.179 8.09679C96.0502 6.23134 92.2614 6.55763 90.1596 8.78749C87.5651 11.54 87.5044 16.2114 90.0263 19.0744C92.1906 21.5316 95.4468 22.0111 97.8192 20.2218L98.5988 19.6337V20.3652V21.0967H100.518H102.437V10.6678V0.238944H100.518H98.5988V4.35175ZM106.635 0.517286C105.869 0.938276 105.327 1.74334 105.321 2.46856C105.304 4.70441 107.871 5.87412 109.413 4.33305C111.346 2.40119 109.021 -0.793634 106.635 0.517286ZM0 5.15369V9.10947H3.8384H7.6768V15.1031V21.0967H11.5152H15.3536V11.1473V1.19792H7.6768H0V5.15369ZM20.9346 1.43191C19.9064 1.67501 18.5699 2.71622 18.0645 3.66776C17.4033 4.91251 17.5081 6.91869 18.2967 8.10926C20.1756 10.9466 24.5374 10.6436 25.9301 7.57894C26.4792 6.37015 26.5065 5.29946 26.0176 4.13047C25.1422 2.03654 23.0575 0.929886 20.9346 1.43191ZM30.005 1.73734C29.8894 2.03415 28.0568 6.42098 25.9327 11.486C23.8086 16.5514 22.0708 20.7881 22.0708 20.9015C22.0708 21.0147 24.0197 21.078 26.4019 21.0422L30.7331 20.9768L34.7984 11.2792C37.0343 5.94557 38.8638 1.4952 38.8638 1.38972C38.8638 1.28423 36.918 1.19792 34.5396 1.19792C30.2778 1.19792 30.2125 1.20559 30.005 1.73734ZM47.5002 3.23574V5.27357H50.1391H52.778V13.1851V21.0967H54.8171H56.8563V13.1851V5.27357H59.4952H62.1341V3.23574V1.19792H54.8171H47.5002V3.23574ZM142.75 1.36862C142.755 1.47267 144.564 5.92687 146.768 11.2672L150.777 20.9768L152.479 21.0466C153.657 21.0947 154.254 21.0209 154.418 20.8068C154.71 20.4256 162.412 1.76084 162.412 1.43335C162.412 1.29693 161.514 1.19792 160.277 1.19792H158.142L157.319 3.17581C156.867 4.26353 155.648 7.2855 154.611 9.89127C153.574 12.4971 152.647 14.5469 152.55 14.4464C152.453 14.346 151.19 11.3511 149.743 7.79088L147.111 1.31779L144.926 1.24875C143.724 1.21087 142.745 1.26481 142.75 1.36862ZM76.768 6.93211C72.4488 7.83331 70.1131 12.8986 72.0055 17.2608C72.9298 19.3916 75.5399 21.3304 77.4877 21.3328C78.7236 21.3342 80.1414 20.889 81.0262 20.2218L81.8059 19.6337V20.3652V21.0967H83.7251H85.6443V14.1441V7.19152H83.7251C81.808 7.19152 81.8059 7.19224 81.8059 7.82804C81.8059 8.41445 81.773 8.43555 81.386 8.09679C80.2508 7.10185 78.3055 6.61134 76.768 6.93211ZM119.71 6.92468C118.773 7.12343 117.882 7.54874 117.251 8.09847C116.865 8.43531 116.831 8.41373 116.831 7.82804C116.831 7.19224 116.829 7.19152 114.912 7.19152H112.993V14.1441V21.0967H114.912H116.831L116.837 17.081C116.841 13.6217 116.907 12.9228 117.309 12.0372C118.159 10.1653 120.569 9.78723 121.726 11.3444C122.187 11.9643 122.236 12.399 122.312 16.5588L122.394 21.0967H124.291H126.187V16.6732C126.187 14.2402 126.07 11.7004 125.925 11.0289C125.303 8.127 122.565 6.31957 119.71 6.92468ZM133.116 7.04312C130.807 7.86759 129.42 9.37894 128.7 11.8533C127.946 14.444 128.759 17.2284 130.805 19.0672C133.006 21.0449 136.037 21.3383 138.091 19.7726L138.902 19.1543V19.8934C138.902 20.8926 138.379 22.0516 137.606 22.7641C137.1 23.2304 136.645 23.373 135.413 23.4514C133.792 23.5545 132.851 23.3076 131.612 22.4531L130.918 21.9753L130.249 22.7948C129.881 23.2453 129.407 23.9045 129.197 24.2598C128.817 24.9024 128.82 24.9088 129.848 25.5108C132.098 26.8285 134.321 27.2564 136.833 26.8553C137.74 26.7105 138.799 26.4283 139.186 26.2281C140.55 25.5233 141.748 24.2097 142.25 22.8672C142.704 21.6543 142.74 21.0221 142.74 14.2549V6.95177H140.821H138.902V7.69234V8.43291L138.175 7.82132C136.904 6.75279 134.825 6.43273 133.116 7.04312ZM176.063 6.94362C172.886 7.51301 170.625 10.1006 170.384 13.4428C170.16 16.5559 171.571 19.1521 174.258 20.5685C175.344 21.1415 175.75 21.2163 177.766 21.2146C179.671 21.2132 180.234 21.1204 181.196 20.6483C182.472 20.0224 184.096 18.6112 183.966 18.2401C183.921 18.109 183.3 17.5672 182.587 17.0366C181.519 16.2418 181.244 16.1304 181.027 16.4056C180.417 17.1807 179.074 17.7386 177.814 17.7393C176.375 17.7402 175.4 17.3233 174.668 16.3941C173.677 15.1347 173.734 15.1182 179.265 15.0479L184.363 14.9832L184.317 13.305C184.293 12.382 184.101 11.2197 183.892 10.7225C182.719 7.92921 179.428 6.34067 176.063 6.94362ZM67.7513 7.2867C67.3445 7.46698 66.7776 7.91147 66.4919 8.27444L65.9725 8.93446V8.06299V7.19152H64.0533H62.1341V14.1542V21.1168L63.9933 21.0468L65.8525 20.9768L65.9725 16.7573C66.0972 12.3652 66.1385 12.1902 67.2816 11.2036C67.6496 10.8862 68.1306 10.7925 69.2111 10.8284L70.6505 10.8761V8.97377V7.07165L69.571 7.01531C68.9772 6.98438 68.1584 7.10641 67.7513 7.2867ZM105.796 14.1441V21.0967H107.715H109.634V14.1441V7.19152H107.715H105.796V14.1441ZM164.092 14.1441V21.0967H166.011H167.93V14.1441V7.19152H166.011H164.092V14.1441ZM185.203 7.37444C185.203 7.47513 186.211 10.5769 187.442 14.2671L189.682 20.9768H191.581H193.479L194.781 17.1474L196.083 13.3182L197.38 17.2073L198.677 21.0967H200.566H202.455L203.659 17.3207C204.321 15.2438 205.343 12.1151 205.931 10.3681L207 7.19152H204.906H202.812L201.639 11.2808C200.994 13.5299 200.403 15.4095 200.325 15.4574C200.247 15.5054 199.595 13.6608 198.875 11.3583L197.566 7.1721L196.026 7.24187L194.487 7.31139L193.244 11.2672C192.56 13.4428 191.951 15.3728 191.889 15.5559C191.799 15.8266 190.723 12.4453 189.476 7.97069L189.258 7.19152H187.231C186.115 7.19152 185.203 7.27399 185.203 7.37444ZM175.967 10.3482C175.112 10.8205 174.407 11.5798 174.407 12.0281C174.407 12.4297 174.667 12.4659 177.54 12.4659C179.263 12.4659 180.635 12.3849 180.588 12.2861C180.024 11.101 179.741 10.7551 179.074 10.4388C178.169 10.0095 176.659 9.9656 175.967 10.3482ZM77.7777 10.5501C76.2157 10.9083 75.3281 12.2288 75.3295 14.192C75.3305 15.765 75.9753 16.9148 77.1254 17.395C79.8245 18.5221 82.1779 16.8009 81.9848 13.8413C81.8248 11.3885 80.0788 10.0227 77.7777 10.5501ZM94.5206 10.5995C92.961 11.0248 92.1216 12.2849 92.1216 14.2C92.1216 16.8712 94.5383 18.4405 97.0419 17.395C98.2069 16.9086 98.8371 15.7676 98.8371 14.1441C98.8371 11.4937 96.9433 9.93874 94.5206 10.5995ZM133.974 10.7548C132.89 11.4153 132.398 12.3196 132.388 13.6718C132.376 15.2253 133.075 16.3658 134.353 16.8769C135.612 17.3802 136.144 17.3612 137.365 16.7707C139.642 15.6689 139.8 12.1 137.631 10.7781C136.643 10.1759 134.942 10.1651 133.974 10.7548Z" fill="white"/></svg>