<svg width="32" height="32" fill="none" xmlns="http://www.w3.org/2000/svg"><path d="M31.7769 9.36605L27.7134 5.30255C27.6068 5.196 27.4711 5.12345 27.3233 5.09405C27.1755 5.06465 27.0223 5.07974 26.8831 5.13741C26.7438 5.19507 26.6249 5.29272 26.5411 5.41801C26.4574 5.5433 26.4127 5.6906 26.4127 5.84128V7.11113H24.8889V2.79366C24.8881 2.05299 24.5935 1.34289 24.0698 0.819153C23.546 0.295419 22.8359 0.000823464 22.0953 0H9.90475C9.16408 0.000823464 8.45398 0.295419 7.93024 0.819153C7.40651 1.34289 7.11191 2.05299 7.11109 2.79366V19.3016H5.58728V18.0318C5.58727 17.8811 5.54258 17.7338 5.45886 17.6085C5.37514 17.4832 5.25615 17.3856 5.11694 17.3279C4.97772 17.2702 4.82453 17.2552 4.67674 17.2846C4.52895 17.3139 4.39319 17.3865 4.28664 17.4931L0.223139 21.5566C0.0802651 21.6994 0 21.8932 0 22.0953C0 22.2973 0.0802651 22.4911 0.223139 22.634L4.28664 26.6975C4.73909 27.1793 5.60855 26.8166 5.58728 26.1588V24.8889H7.11109V29.2064C7.11191 29.9471 7.40651 30.6572 7.93024 31.1809C8.45398 31.7047 9.16408 31.9993 9.90475 32.0001H22.0953C22.8359 31.9993 23.546 31.7047 24.0698 31.1809C24.5935 30.6572 24.8881 29.9471 24.8889 29.2064V12.6984H26.4127V13.9683C26.3915 14.6263 27.2609 14.9887 27.7134 14.507L31.7769 10.4435C31.9197 10.3006 32 10.1068 32 9.90478C32 9.70272 31.9197 9.50894 31.7769 9.36605ZM9.90475 1.52381H22.0953C22.4319 1.5242 22.7547 1.65811 22.9927 1.89617C23.2308 2.13423 23.3647 2.45699 23.3651 2.79366V4.0635H8.6349V2.79366C8.63529 2.45699 8.7692 2.13423 9.00726 1.89617C9.24532 1.65811 9.56808 1.5242 9.90475 1.52381ZM22.0953 30.4763H9.90475C9.56808 30.4759 9.24532 30.342 9.00726 30.1039C8.7692 29.8658 8.63529 29.5431 8.6349 29.2064V27.9366H23.3651V29.2064C23.3647 29.5431 23.2308 29.8658 22.9927 30.1039C22.7547 30.342 22.4319 30.4759 22.0953 30.4763ZM27.9365 12.1289V11.9365C27.9365 11.7345 27.8563 11.5407 27.7134 11.3978C27.5705 11.2549 27.3767 11.1746 27.1746 11.1746H21.0794C20.8773 11.1746 20.6835 11.2549 20.5406 11.3978C20.3977 11.5407 20.3175 11.7345 20.3175 11.9365C20.3175 12.1386 20.3977 12.3324 20.5406 12.4753C20.6835 12.6182 20.8773 12.6984 21.0794 12.6984H23.3651V26.4128H8.6349V24.8889H10.9206C11.1227 24.8889 11.3165 24.8087 11.4594 24.6658C11.6023 24.5229 11.6825 24.3291 11.6825 24.127C11.6825 23.925 11.6023 23.7312 11.4594 23.5883C11.3165 23.4454 11.1227 23.3651 10.9206 23.3651H4.82537C4.6233 23.3651 4.42951 23.4454 4.28662 23.5883C4.14374 23.7312 4.06347 23.925 4.06347 24.127V24.3194L1.8394 22.0953L4.06347 19.8712V20.0635C4.06347 20.2656 4.14374 20.4594 4.28662 20.6023C4.42951 20.7452 4.6233 20.8254 4.82537 20.8254H10.9206C11.1227 20.8254 11.3165 20.7452 11.4594 20.6023C11.6023 20.4594 11.6825 20.2656 11.6825 20.0635C11.6825 19.8615 11.6023 19.6677 11.4594 19.5248C11.3165 19.3819 11.1227 19.3016 10.9206 19.3016H8.6349V5.58731H23.3651V7.11113H21.0794C20.8773 7.11113 20.6835 7.1914 20.5406 7.33428C20.3977 7.47717 20.3175 7.67096 20.3175 7.87303C20.3175 8.0751 20.3977 8.2689 20.5406 8.41178C20.6835 8.55467 20.8773 8.63494 21.0794 8.63494H27.1746C27.3767 8.63494 27.5705 8.55467 27.7134 8.41178C27.8563 8.2689 27.9365 8.0751 27.9365 7.87303V7.68072L30.1606 9.90478L27.9365 12.1289Z" fill="#59E457"/><path d="M14.9841 12.6981H17.5238C17.7258 12.6984 17.9194 12.7787 18.0623 12.9215C18.2051 13.0644 18.2855 13.258 18.2857 13.46C18.2857 13.6621 18.366 13.8559 18.5088 13.9988C18.6517 14.1417 18.8455 14.222 19.0476 14.222C19.2497 14.222 19.4435 14.1417 19.5863 13.9988C19.7292 13.8559 19.8095 13.6621 19.8095 13.46C19.8088 12.854 19.5678 12.2731 19.1393 11.8445C18.7108 11.416 18.1298 11.175 17.5238 11.1743H16.7619V9.90448C16.7619 9.70241 16.6816 9.50862 16.5387 9.36574C16.3958 9.22285 16.202 9.14258 16 9.14258C15.7979 9.14258 15.6041 9.22285 15.4612 9.36574C15.3183 9.50862 15.2381 9.70241 15.2381 9.90448V11.1743H14.9841C14.2432 11.1743 13.5326 11.4687 13.0087 11.9926C12.4848 12.5165 12.1904 13.2271 12.1904 13.968C12.1904 14.7089 12.4848 15.4195 13.0087 15.9434C13.5326 16.4673 14.2432 16.7616 14.9841 16.7616H17.0158C17.3526 16.7616 17.6756 16.8954 17.9138 17.1336C18.1519 17.3717 18.2857 17.6947 18.2857 18.0315C18.2857 18.3683 18.1519 18.6913 17.9138 18.9294C17.6756 19.1675 17.3526 19.3013 17.0158 19.3013H14.4761C14.2741 19.3011 14.0805 19.2208 13.9376 19.0779C13.7948 18.9351 13.7145 18.7414 13.7142 18.5394C13.7142 18.3374 13.634 18.1436 13.4911 18.0007C13.3482 17.8578 13.1544 17.7775 12.9523 17.7775C12.7503 17.7775 12.5565 17.8578 12.4136 18.0007C12.2707 18.1436 12.1904 18.3374 12.1904 18.5394C12.1911 19.1454 12.4321 19.7264 12.8606 20.1549C13.2892 20.5834 13.8701 20.8245 14.4761 20.8251H15.2381V22.095C15.2381 22.2971 15.3183 22.4909 15.4612 22.6337C15.6041 22.7766 15.7979 22.8569 16 22.8569C16.202 22.8569 16.3958 22.7766 16.5387 22.6337C16.6816 22.4909 16.7619 22.2971 16.7619 22.095V20.8251H17.0158C17.7568 20.8251 18.4673 20.5308 18.9913 20.0069C19.5152 19.483 19.8095 18.7724 19.8095 18.0315C19.8095 17.2906 19.5152 16.58 18.9913 16.0561C18.4673 15.5322 17.7568 15.2378 17.0158 15.2378H14.9841C14.6473 15.2378 14.3243 15.104 14.0862 14.8659C13.848 14.6278 13.7142 14.3048 13.7142 13.968C13.7142 13.6312 13.848 13.3082 14.0862 13.0701C14.3243 12.8319 14.6473 12.6981 14.9841 12.6981Z" fill="#59E457"/></svg>