<svg width="236" height="105" fill="none" xmlns="http://www.w3.org/2000/svg"><mask id="mask0_729_531" style="mask-type:alpha" maskUnits="userSpaceOnUse" x="0" y="0" width="236" height="105"><rect width="236" height="105" rx="5" fill="#59E457"/></mask><g mask="url(#mask0_729_531)"><path fill-rule="evenodd" clip-rule="evenodd" d="M13.9321 13.3626C13.8152 13.4385 13.7225 13.5875 13.7256 13.6937C13.7289 13.7999 18.0781 27.2003 23.3905 43.4723C30.3159 64.685 33.118 73.13 33.2916 73.3125C33.4249 73.4526 33.7537 73.6934 34.0222 73.8477C34.6 74.1796 199.636 144.754 200.265 144.939C200.814 145.099 201.334 145.092 201.573 144.92C201.871 144.706 230.978 71.3655 230.904 71.015C230.867 70.8385 230.722 70.5885 230.563 70.4249C230.411 70.2688 230.307 70.187 230.33 70.2432C230.354 70.2993 229.938 70.0617 229.405 69.7152C226.663 67.933 138.519 11.9787 138.263 11.858C138.098 11.7801 137.776 11.6715 137.547 11.6168C137.198 11.5333 127.308 11.6537 75.6378 12.371C17.2884 13.1809 14.1336 13.2316 13.9321 13.3626ZM54.3678 39.9782L62.763 48.8627L79.93 48.6244L97.097 48.3861L102.574 54.182C107.741 59.6508 108.041 59.9781 107.878 59.9812C107.336 59.9913 102.54 60.31 100.519 60.4702C83.751 61.7993 72.0553 64.4507 68.9176 67.634C67.3704 69.2037 68.1108 70.9668 70.9877 72.5633C78.0486 76.4817 97.0455 79.5579 120.29 80.547C121.407 80.5944 123.199 80.6582 124.272 80.6886C125.345 80.7189 126.563 80.7587 126.979 80.7771L127.736 80.8105L145.312 99.4118L162.889 118.013L175.321 117.841L187.752 117.668L170.174 99.0657L152.596 80.4633L153.075 80.4153C153.339 80.3888 154.429 80.3169 155.498 80.2555C172.16 79.2981 185.482 76.8231 190.359 73.779C192.585 72.3891 193.062 70.9534 191.783 69.4858C187.954 65.0905 169.069 61.3653 143.831 60.0272C141.788 59.9189 137.602 59.7559 134.154 59.6503L132.996 59.6148L127.527 53.8273L122.058 48.0397L139.225 47.8014L156.392 47.5632L147.997 38.6787L139.602 29.7942L92.7872 30.4439L45.9726 31.0937L54.3678 39.9782ZM105.465 61.5261C87.7643 62.6853 75.8644 65.0957 73.6778 67.9648C73.3285 68.4231 73.2743 69.1305 73.5525 69.5991C74.7714 71.6522 80.792 73.5759 90.6278 75.0551C100.374 76.5208 112.281 77.3844 126.398 77.6495C130.445 77.7254 141.1 77.6262 145.025 77.476C162.818 76.7952 176.608 74.9299 182.47 72.4107C186.573 70.6475 186.536 68.7442 182.363 66.9184C176.524 64.3643 162.953 62.3171 145.719 61.3908C142.899 61.2392 138.085 61.0555 135.842 61.0138L134.189 60.9831L140.315 67.4667L146.442 73.9504L145.919 74.0048C142.338 74.3775 126.903 74.5807 122.298 74.3159L121.611 74.2763L115.479 67.8135L109.346 61.3507L108.394 61.3736C107.87 61.3863 106.552 61.4549 105.465 61.5261ZM33.3053 73.3C33.4837 73.4887 33.5759 73.5656 33.5103 73.471C33.4446 73.3763 33.2986 73.2218 33.186 73.1278C33.0733 73.0338 33.127 73.1112 33.3053 73.3Z" fill="#88F886"/></g></svg>