<svg width="35" height="35" fill="none" xmlns="http://www.w3.org/2000/svg"><circle cx="17.5" cy="17.5" r="17.5" fill="#50C0AA"/><path fill-rule="evenodd" clip-rule="evenodd" d="M25.8356 12.308V8.75H9.14556V12.308H15.2658V14.6258L15.068 14.636C14.4788 14.6663 13.7694 14.71 13.428 14.737C9.20983 15.0707 6.50632 15.8588 6.56339 16.738C6.58243 17.0316 6.90492 17.3141 7.52777 17.5826C8.89186 18.1709 11.6474 18.6236 14.7382 18.7671C14.9365 18.7763 15.1403 18.7875 15.1911 18.792L15.2834 18.8002V26.25H19.7153V18.8006L19.8428 18.7919C19.913 18.7872 20.1207 18.776 20.3045 18.767C20.4883 18.7581 20.793 18.7405 20.9816 18.7281C24.907 18.4688 27.738 17.8087 28.3289 17.0149C28.5696 16.6915 28.4068 16.341 27.8736 16.035C26.7923 15.4144 24.2936 14.9225 21.1223 14.7058C20.7401 14.6797 19.8433 14.6298 19.7461 14.6293C19.7171 14.6292 19.7153 14.5636 19.7153 13.4686V12.308H25.8356ZM27.091 16.1134C26.2293 15.5524 23.7348 15.1086 20.4276 14.928C20.2245 14.9169 19.9812 14.907 19.8869 14.9059L19.7155 14.904L19.7065 17.4924L19.5922 17.5021C18.8261 17.567 16.0766 17.5692 15.3845 17.5054L15.2834 17.4961V14.8995L14.9976 14.9101C14.6099 14.9245 13.7935 14.974 13.3225 15.0117C10.4442 15.2421 8.39669 15.6839 7.79407 16.2047C7.3633 16.5771 7.67319 16.9533 8.6883 17.2906C10.1386 17.7724 12.875 18.1032 16.1188 18.189C16.8345 18.2079 18.7258 18.1983 19.4251 18.1722C21.8649 18.0811 23.8165 17.8777 25.2875 17.5613C26.7722 17.242 27.5117 16.8452 27.3848 16.4361C27.3558 16.3427 27.2287 16.203 27.091 16.1134Z" fill="white"/></svg>