<?xml version="1.0" encoding="UTF-8"?>
<svg width="500px" height="88px" viewBox="0 0 500 88" version="1.1" xmlns="http://www.w3.org/2000/svg" xmlns:xlink="http://www.w3.org/1999/xlink">
    <!-- Generator: Sketch 55.2 (78181) - https://sketchapp.com -->
    <title>画板</title>
    <desc>Created with Sketch.</desc>
    <g id="画板" stroke="none" stroke-width="1" fill="none" fill-rule="evenodd">
        <g id="logo" transform="translate(0.000000, 7.000000)">
            <g transform="translate(0.000000, 0.151515)" fill="#3DA4F2">
                <path d="M58.0458785,1.59603643 C14.120442,9.97120819 -1.42108547e-14,72.5097435 -1.42108547e-14,72.5097435 L46.6843536,72.5097435 C46.6843536,72.5097435 47.1079669,68.816544 47.3740829,67.907942 C53.3372542,48.0149048 65.5622984,32.3548836 81.3554697,19.1908453 C88.6166354,13.1406255 98.576978,5.86112071 106.066243,0.0781367614 L103.464823,0.0781367614 C103.464823,0.0781367614 69.1955967,-0.520471559 58.0458785,1.59603643" id="Fill-1"></path>
                <path d="M104.841566,70.9075364 C148.761572,62.5283807 162.887445,-7.10542736e-15 162.887445,-7.10542736e-15 L116.192229,-7.10542736e-15 C116.192229,-7.10542736e-15 115.784909,3.70328757 115.513362,4.5957104 C109.550191,24.4962052 97.3251465,40.1483398 81.5319752,53.3102406 C74.2653785,59.3648219 64.3158978,66.6378008 56.8212017,72.4305334 L59.4280525,72.4305334 C59.4280525,72.4305334 93.6918481,73.0343884 104.841566,70.9075364" id="Fill-4"></path>
            </g>
            <path d="M231.375502,1.33939394 L238.604418,1.33939394 L238.604418,9.04848485 C238.529116,11.230303 238.453815,13.3393939 238.303213,15.4484848 L266.992972,15.4484848 C266.691767,28.2484848 266.23996,38.5757576 265.486948,46.5030303 C264.733936,54.2848485 263.453815,59.7393939 261.646586,62.8666667 C259.839357,65.8484848 256.977912,67.4484848 252.986948,67.7393939 L242.52008,67.7393939 L240.562249,61.0484848 C243.7249,61.1939394 246.661647,61.2666667 249.447791,61.2666667 C253.438755,61.2666667 256.074297,58.8666667 257.279116,54.1393939 C258.559237,49.1212121 259.38755,38.430303 259.764056,22.1393939 L237.700803,22.1393939 C236.495984,32.2484848 234.312249,40.7575758 231.074297,47.5939394 C226.556225,56.5393939 219.252008,63.4484848 209.161647,68.2484848 L205.321285,62.430303 C215.261044,57.1939394 221.962851,50.5757576 225.577309,42.5030303 C227.911647,36.830303 229.568273,29.9939394 230.471888,22.1393939 L209.312249,22.1393939 L209.312249,15.4484848 L231.074297,15.4484848 C231.2249,13.2666667 231.300201,11.1575758 231.375502,9.04848485 L231.375502,1.33939394 Z M295.381526,21.630303 L302.384538,21.630303 L302.384538,31.5939394 L311.044177,31.5939394 L311.044177,37.7757576 L302.384538,37.7757576 L302.384538,45.9939394 C305.848394,45.3393939 309.236948,44.6121212 312.399598,43.8848485 L312.399598,50.3575758 C309.161647,51.1575758 305.848394,51.8848485 302.384538,52.6121212 L302.384538,68.2484848 L295.381526,68.2484848 L295.381526,53.9212121 C290.712851,54.6484848 285.818273,55.3757576 280.773092,55.9575758 L279.869478,49.1939394 C285.291165,48.6121212 290.486948,47.8848485 295.381526,47.1575758 L295.381526,37.7757576 L282.429719,37.7757576 L280.923695,31.6666667 C282.881526,27.8848485 284.688755,23.0848485 286.345382,17.3393939 L280.02008,17.3393939 L280.02008,10.6484848 L288.15261,10.6484848 C288.905622,7.59393939 289.583333,4.46666667 290.261044,1.12121212 L297.113454,2.13939394 C296.511044,5.04848485 295.833333,7.88484848 295.155622,10.6484848 L312.550201,10.6484848 L312.550201,17.3393939 L293.348394,17.3393939 C291.842369,22.6484848 290.185743,27.3757576 288.378514,31.5939394 L295.381526,31.5939394 L295.381526,21.630303 Z M318.950803,0.248484848 L326.029116,1.33939394 C325.577309,5.12121212 324.9749,8.61212121 324.297189,11.8121212 L347.339357,11.8121212 L347.339357,16.2484848 C345.983936,22.5030303 344.176707,28.6848485 341.992972,34.8666667 L334.839357,32.9757576 C336.721888,28.7575758 338.378514,23.9575758 339.733936,18.430303 L322.565261,18.430303 C320.758032,24.1030303 318.574297,28.6121212 315.863454,32.1030303 L309.98996,28.1030303 C314.658635,21.4121212 317.595382,12.1757576 318.950803,0.248484848 Z M325.125502,22.7939394 L331.977912,22.7939394 C331.977912,27.8848485 331.676707,32.4666667 331.2249,36.6848485 C334.688755,47.5939394 340.63755,56.2484848 349.071285,62.6484848 L344.026104,68.3212121 C337.550201,62.6484848 332.580321,55.7393939 329.041165,47.7393939 C326.631526,56.1757576 321.209839,63.0848485 312.851406,68.6121212 L308.10743,63.0121212 C315.336345,58.2121212 320.00502,52.3939394 322.264056,45.4121212 C324.071285,39.5939394 325.050201,32.030303 325.125502,22.7939394 Z M362.173695,29.9212121 C360.215863,32.3939394 358.182731,34.8666667 355.923695,37.3393939 L353.589357,29.9212121 C360.517068,21.4848485 365.712851,11.5939394 369.101406,0.393939394 L375.803213,3.44848485 C374.071285,8.83030303 371.88755,14.0666667 369.176707,19.0848485 L369.176707,68.3939394 L362.173695,68.3939394 L362.173695,29.9212121 Z M374.447791,9.92121212 L396.511044,9.92121212 C395.532129,7.44848485 394.40261,5.04848485 393.12249,2.72121212 L399.9749,0.903030303 C401.556225,4.17575758 402.761044,7.15757576 403.589357,9.92121212 L423.920683,9.92121212 L423.920683,16.3939394 L374.447791,16.3939394 L374.447791,9.92121212 Z M381.300201,20.830303 L417.52008,20.830303 L417.52008,27.0121212 L381.300201,27.0121212 L381.300201,20.830303 Z M381.300201,31.0848485 L417.52008,31.0848485 L417.52008,37.3393939 L381.300201,37.3393939 L381.300201,31.0848485 Z M419.101406,41.9212121 L419.101406,68.2484848 L412.173695,68.2484848 L412.173695,64.4666667 L386.571285,64.4666667 L386.571285,68.2484848 L379.643574,68.2484848 L379.643574,41.9212121 L419.101406,41.9212121 Z M386.571285,57.9939394 L412.173695,57.9939394 L412.173695,48.3212121 L386.571285,48.3212121 L386.571285,57.9939394 Z M440.562249,6.06666667 L457.203815,6.06666667 C458.10743,4.24848485 458.785141,2.43030303 459.312249,0.539393939 L466.767068,1.48484848 C466.315261,3.08484848 465.63755,4.61212121 464.884538,6.06666667 L488.75502,6.06666667 L488.75502,42.7939394 L440.562249,42.7939394 L440.562249,6.06666667 Z M481.827309,36.9030303 L481.827309,32.1757576 L447.48996,32.1757576 L447.48996,36.9030303 L481.827309,36.9030303 Z M447.48996,26.6484848 L481.827309,26.6484848 L481.827309,22.0666667 L447.48996,22.0666667 L447.48996,26.6484848 Z M447.48996,16.6121212 L481.827309,16.6121212 L481.827309,11.9575758 L447.48996,11.9575758 L447.48996,16.6121212 Z M436.495984,47.0121212 L443.273092,48.3212121 C441.465863,55.0848485 439.056225,60.9030303 435.893574,65.8484848 L429.869478,62.1393939 C433.032129,57.4848485 435.215863,52.3939394 436.495984,47.0121212 Z M473.995984,67.1575758 L454.869478,67.1575758 C449.899598,67.1575758 447.414659,64.830303 447.414659,60.1757576 L447.414659,46.8666667 L454.643574,46.8666667 L454.643574,58.7212121 C454.643574,60.1757576 455.396586,60.9757576 456.90261,60.9757576 L472.640562,60.9757576 C474.071285,60.9757576 475.050201,60.6121212 475.577309,59.8848485 C476.405622,59.0121212 476.932731,56.4666667 477.158635,52.1757576 L484.011044,54.2848485 C483.408635,60.4666667 482.279116,64.1757576 480.697791,65.4848485 C479.191767,66.5757576 477.008032,67.1575758 473.995984,67.1575758 Z M464.733936,44.030303 C468.423695,47.6666667 471.285141,50.7939394 473.242972,53.5575758 L467.896586,57.1939394 C465.788153,54.1393939 463.002008,50.7939394 459.462851,47.1575758 L464.733936,44.030303 Z M488.830321,45.5575758 C493.348394,51.230303 496.736948,56.2484848 499.146586,60.4666667 L493.498996,64.3212121 C490.938755,59.6666667 487.550201,54.5757576 483.258032,48.9030303 L488.830321,45.5575758 Z" id="力软信息" fill="#737479" fill-rule="nonzero"></path>
        </g>
    </g>
</svg>