<?xml version="1.0" encoding="UTF-8"?>
<svg width="200px" height="200px" viewBox="0 0 200 200" version="1.1" xmlns="http://www.w3.org/2000/svg" xmlns:xlink="http://www.w3.org/1999/xlink">
    <!-- Generator: Sketch 55.2 (78181) - https://sketchapp.com -->
    <title>画板</title>
    <desc>Created with Sketch.</desc>
    <g id="画板" stroke="none" stroke-width="1" fill="none" fill-rule="evenodd">
        <g id="logo" transform="translate(0.000000, 54.000000)" fill="#3DA4F2">
            <path d="M71.1553169,2.01898608 C17.3094895,12.6135784 -1.42108547e-14,91.7248255 -1.42108547e-14,91.7248255 L57.2278353,91.7248255 C57.2278353,91.7248255 57.74712,87.0529281 58.0733373,85.9035467 C65.3832679,60.7388546 80.3692913,40.9289277 99.7292896,24.2764193 C108.630362,16.6228912 120.840209,7.4143177 130.020896,0.0988430031 L126.831956,0.0988430031 C126.831956,0.0988430031 84.8231561,-0.658396522 71.1553169,2.01898608" id="Fill-1"></path>
            <path d="M128.519631,89.6980335 C182.358801,79.0984016 199.674948,-7.10542736e-15 199.674948,-7.10542736e-15 L142.433797,-7.10542736e-15 C142.433797,-7.10542736e-15 141.934485,4.68465877 141.60161,5.81357366 C134.29168,30.9876996 119.305656,50.7876499 99.9456582,67.4374544 C91.0379286,75.0964997 78.841396,84.296818 69.6540515,91.6246248 L72.8496496,91.6246248 C72.8496496,91.6246248 114.851792,92.3885013 128.519631,89.6980335" id="Fill-4"></path>
        </g>
    </g>
</svg>