<svg xmlns="http://www.w3.org/2000/svg" width="202.492" height="28.38" viewBox="0 0 202.492 28.38">
    <defs>
        <style>
            .prefix__cls-1{fill:#00c0ff}.prefix__cls-2{fill:#fff}
        </style>
    </defs>
    <g id="prefix__Group_39" data-name="Group 39" transform="translate(-426.342 -613.895)">
        <g id="prefix__Group_39-2" data-name="Group 39" transform="translate(442.585 614.068)">
            <path id="prefix__Path_39" d="M437.434 616.126h7.58c5.032 0 8.665 1.545 8.665 6.063a5.38 5.38 0 01-4.228 5.352v.151c3.532.608 5.486 2.514 5.486 5.853 0 4.935-3.9 7.241-9.294 7.241h-8.208zm7.193 10.134c3.416 0 4.809-1.248 4.809-3.544 0-2.249-1.56-3.091-4.714-3.091h-2.967v6.635zm.567 11.028c3.58 0 5.5-1.243 5.5-4.031 0-2.6-1.849-3.664-5.5-3.664h-3.438v7.7z" class="prefix__cls-1" data-name="Path 39" transform="translate(-437.434 -613.032)"/>
            <path id="prefix__Path_40" d="M451.828 634.011c0-4.153 3.617-6.222 12.677-6.867-.152-2.073-1.375-3.632-4.367-3.632a12.712 12.712 0 00-5.992 1.965l-1.6-2.886a16.726 16.726 0 018.394-2.585c5.092 0 7.889 2.855 7.889 8.013v10.964h-3.55l-.331-2.295h-.124a11.7 11.7 0 01-6.848 2.747c-3.576.001-6.148-2.211-6.148-5.424zm12.677-.246v-3.9c-6.59.438-8.49 1.8-8.49 3.8 0 1.633 1.428 2.339 3.247 2.339a8.417 8.417 0 005.243-2.239z" class="prefix__cls-1" data-name="Path 40" transform="translate(-430.75 -611.229)"/>
            <path id="prefix__Path_41" d="M466.7 629.745c0-6.188 4.824-9.738 10.425-9.738a9.575 9.575 0 016.776 2.608l-2.04 2.733a7.083 7.083 0 00-4.529-1.784 5.87 5.87 0 00-6.209 6.181 5.792 5.792 0 006.08 6.134 8.485 8.485 0 005.234-2.039l1.807 2.784a11.363 11.363 0 01-7.416 2.812c-5.764 0-10.128-3.549-10.128-9.691z" class="prefix__cls-1" data-name="Path 41" transform="translate(-423.845 -611.229)"/>
            <path id="prefix__Path_42" d="M481.911 614.777h4.321v16.663h.149l8.255-8.552h4.8l-13.2 13.685v4.84h-4.321zm7.357 17.54l2.526-2.756 8.417 11.851h-4.724z" class="prefix__cls-1" data-name="Path 42" transform="translate(-416.78 -613.658)"/>
            <path id="prefix__Path_43" d="M500.811 633.234v-7.624H495.9v-3.252l5.089-.2.562-5.8h3.578v5.8h8.341v3.455h-8.341v7.606c0 3.059 1.138 4.439 4.238 4.439a11.311 11.311 0 003.99-.747l.838 3.173a17.77 17.77 0 01-5.871 1.051c-5.604-.002-7.513-3.181-7.513-7.901z" class="prefix__cls-1" data-name="Path 43" transform="translate(-410.282 -612.926)"/>
            <path id="prefix__Path_44" d="M511 634.011c0-4.153 3.618-6.222 12.679-6.867-.154-2.073-1.377-3.632-4.367-3.632a12.713 12.713 0 00-5.994 1.965l-1.6-2.886a16.726 16.726 0 018.394-2.585c5.092 0 7.89 2.855 7.89 8.013v10.964h-3.551l-.331-2.295h-.124a11.7 11.7 0 01-6.847 2.747c-3.579.001-6.149-2.211-6.149-5.424zm12.679-.246v-3.9c-6.591.438-8.492 1.8-8.492 3.8 0 1.633 1.428 2.339 3.247 2.339a8.421 8.421 0 005.247-2.239z" class="prefix__cls-1" data-name="Path 44" transform="translate(-403.27 -611.229)"/>
            <path id="prefix__Path_45" d="M534.068 623.77h-7.925v-3.454h12.245v18.526h-4.32z" class="prefix__cls-1" data-name="Path 45" transform="translate(-396.239 -611.086)"/>
            <path id="prefix__Path_46" d="M530.741 616.953a3.071 3.071 0 016.137 0 3.073 3.073 0 01-6.137 0z" class="prefix__cls-1" data-name="Path 46" transform="translate(-394.104 -614.013)"/>
            <path id="prefix__Path_47" d="M546.484 634.669v-16.436h-6.124v-3.456h10.44V634.9c0 2.473 1.447 3.412 3.3 3.412a8 8 0 003.138-.721l1 3.226a12.984 12.984 0 01-5.2 1.052c-4.274-.004-6.554-2.654-6.554-7.2z" class="prefix__cls-1" data-name="Path 47" transform="translate(-389.637 -613.658)"/>
        </g>
        <g id="prefix__Group_40" data-name="Group 40" transform="translate(426.342 613.895)">
            <path id="prefix__Rectangle_99" d="M0 0H10.392V27.927H0z" class="prefix__cls-2" data-name="Rectangle 99" transform="translate(192.1)"/>
            <path id="prefix__Path_48" d="M426.342 622.323a3.071 3.071 0 016.137 0 3.073 3.073 0 01-6.137 0z" class="prefix__cls-2" data-name="Path 48" transform="translate(-426.342 -611.346)"/>
            <path id="prefix__Path_49" d="M426.342 631.9a3.071 3.071 0 016.137 0 3.073 3.073 0 01-6.137 0z" class="prefix__cls-2" data-name="Path 49" transform="translate(-426.342 -606.9)"/>
        </g>
    </g>
</svg>
