<?xml version="1.0" encoding="UTF-8"?>
<svg width="118px" height="20px" viewBox="0 0 118 20" version="1.1" xmlns="http://www.w3.org/2000/svg" xmlns:xlink="http://www.w3.org/1999/xlink">
    <!-- Generator: Sketch 55.2 (78181) - https://sketchapp.com -->
    <title>logo</title>
    <desc>Created with Sketch.</desc>
    <g id="core产品" stroke="none" stroke-width="1" fill="none" fill-rule="evenodd">
        <g id=".net-core" transform="translate(-146.000000, -20.000000)" fill="#43A6EF">
            <g id="导航条">
                <g id="logo" transform="translate(146.000000, 20.000000)">
                    <path d="M15.3232975,0.440226748 C3.72759857,2.7503085 0,20 0,20 L12.3240143,20 C12.3240143,20 12.4358423,18.9813232 12.5060932,18.7307081 C14.0802867,13.2437111 17.3075269,8.92428577 21.4767025,5.2933149 C23.3935484,3.62451302 26.0229391,1.61664362 28,0.0215520722 L27.3132616,0.0215520722 C27.3132616,0.0215520722 18.2666667,-0.143559068 15.3232975,0.440226748" id="Fill-1"></path>
                    <path d="M27.6767025,19.5580712 C39.2709677,17.2468906 43,0 43,0 L30.6731183,0 C30.6731183,0 30.5655914,1.02145929 30.4939068,1.26761182 C28.9197133,6.7566658 25.6924731,11.0739158 21.5232975,14.7042971 C19.6050179,16.374302 16.9784946,18.3803714 15,19.9781519 L15.688172,19.9781519 C15.688172,19.9781519 24.7333333,20.1447102 27.6767025,19.5580712" id="Fill-4"></path>
                    <polygon id="Fill-7" points="51 18 54 18 54 0 51 0"></polygon>
                    <path d="M65.5549643,9.65744431 C65.5549643,7.66494725 64.7855938,6.66541618 63.251525,6.66541618 C62.6176509,6.66541618 62.056976,6.93950762 61.5679429,7.48604924 C61.0789098,8.03423212 60.7752109,8.75967175 60.6552888,9.65744431 L65.5549643,9.65744431 Z M69,12.0963658 L60.6646334,12.0963658 C60.7939001,14.1627198 61.977547,15.2 64.2124594,15.2 C65.6110318,15.2 66.8429591,14.8372802 67.9113563,14.1118406 L67.9113563,16.9725674 C66.7604153,17.6569754 65.2481506,18 63.3776768,18 C61.3623621,18 59.7971447,17.3976553 58.6789098,16.2011723 C57.55756,14.9997655 57,13.3322392 57,11.1903869 C57,9.06002345 57.5949384,7.32848769 58.7863725,5.99906213 C59.9778066,4.66471278 61.4729396,4 63.273329,4 C65.0706035,4 66.4722907,4.57280188 67.4830629,5.72004689 C68.4938352,6.86565064 69,8.44126612 69,10.4436108 L69,12.0963658 Z" id="Fill-9"></path>
                    <path d="M75.278122,11.6253224 C73.9801735,11.8091442 73.3274129,12.4459555 73.3274129,13.5324736 C73.3274129,14.0297773 73.4879526,14.4318875 73.802974,14.737163 C74.1195098,15.0473623 74.5420625,15.2 75.0766901,15.2 C75.8127496,15.2 76.4170453,14.916061 76.8926064,14.3514654 C77.3681674,13.7901524 77.605948,13.0893318 77.605948,12.2539273 L77.605948,11.3003517 L75.278122,11.6253224 Z M71.2116205,5.13411489 C71.771995,4.79765533 72.5156272,4.52356389 73.4455459,4.31348183 C74.3769792,4.10339977 75.1736197,4 75.8354674,4 C79.2794988,4 81,5.86940211 81,9.6098476 L81,17.673388 L77.5817155,17.673388 L77.5817155,15.730129 L77.5377943,15.730129 C76.6972325,17.2400938 75.4719813,18 73.8529533,18 C72.6867686,18 71.7523062,17.6372802 71.0525953,16.9167644 C70.35137,16.1978898 70,15.2180539 70,13.9805393 C70,11.4218054 71.4069944,9.93153576 74.2209831,9.51465416 L77.605948,9.01735053 C77.605948,7.46799531 76.8592868,6.69003517 75.3659645,6.69003517 C73.8983891,6.69003517 72.5125981,7.17420868 71.2116205,8.13927315 L71.2116205,5.13411489 Z" id="Fill-10"></path>
                    <path d="M91,7.88202587 C90.5539263,7.60111205 90.0136986,7.45896289 89.3777735,7.45896289 C88.5442794,7.45896289 87.8867451,7.80925904 87.3989967,8.50477457 C86.9112483,9.2002901 86.6658306,10.1597969 86.6658306,11.3782183 L86.6658306,18 L83,18 L83,4.23691527 L86.6658306,4.23691527 L86.6658306,6.82436843 L86.7121358,6.82436843 C87.3156473,4.94258431 88.4177117,4 90.0136986,4 C90.4443373,4 90.7746479,4.05415206 91,4.16245618 L91,7.88202587 Z" id="Fill-11"></path>
                    <path d="M105,17.6656265 L101.336482,17.6656265 L101.336482,15.5787326 L101.279022,15.5787326 C100.333247,17.1901104 99.0442604,18 97.4074026,18 C94.4691342,18 93,16.081133 93,12.2400384 L93,4 L96.6883655,4 L96.6883655,11.8703793 C96.6883655,13.9119059 97.4275916,14.9318291 98.9044907,14.9318291 C99.6406108,14.9318291 100.232302,14.656265 100.6718,14.0933749 C101.11751,13.5338454 101.336482,12.7760442 101.336482,11.8199712 L101.336482,4 L105,4 L105,17.6656265 Z" id="Fill-12"></path>
                    <path d="M118,18 L114.331823,18 L114.331823,10.3757052 C114.331823,8.16924739 113.600362,7.06349778 112.128122,7.06349778 C111.427721,7.06349778 110.8469,7.35926059 110.382555,7.94742528 C109.916656,8.53727044 109.688365,9.28676029 109.688365,10.2009363 L109.688365,18 L106,18 L106,4.33273317 L109.688365,4.33273317 L109.688365,6.5089425 L109.731849,6.5089425 C110.652776,4.83687432 112.008541,4 113.794487,4 C116.597645,4 118,5.87708558 118,9.63293722 L118,18 Z" id="Fill-13"></path>
                </g>
            </g>
        </g>
    </g>
</svg>