<svg t="1617331861483" class="icon"  fill="#fff" viewBox="0 0 1024 1024" version="1.1" xmlns="http://www.w3.org/2000/svg" p-id="1472" width="200" height="200"><path d="M360.254 288.301C87.637 342.357 0 746 0 746h289.74s2.63-23.837 4.28-29.701c37.01-128.396 112.883-229.47 210.902-314.435 45.065-39.05 106.883-86.035 153.364-123.36H642.14s-212.687-3.863-281.886 9.797M663.746 735.659C936.33 681.577 1024 278 1024 278H734.192s-2.527 23.902-4.213 29.662c-37.01 128.444-112.882 229.468-210.9 314.419-45.1 39.078-106.85 86.02-153.365 123.408h16.18s212.653 3.897 281.852-9.83" p-id="1473"></path></svg>