<?xml version="1.0" standalone="no"?><!DOCTYPE svg PUBLIC "-//W3C//DTD SVG 1.1//EN" "http://www.w3.org/Graphics/SVG/1.1/DTD/svg11.dtd"><svg t="1683535547986" class="icon" viewBox="0 0 1024 1024" version="1.1" xmlns="http://www.w3.org/2000/svg" p-id="2879" width="18" height="17" xmlns:xlink="http://www.w3.org/1999/xlink"><path d="M443.862627 224.692457m45.254834 45.254834l135.764502 135.764502q45.254834 45.254834 0 90.509668l-135.764502 135.764502q-45.254834 45.254834-90.509668 0l-135.764502-135.764502q-45.254834-45.254834 0-90.509668l135.764502-135.764502q45.254834-45.254834 90.509668 0Z" fill="#F8F8F8" p-id="2881" data-spm-anchor-id="a313x.7781069.0.i7" class="selected"></path><path d="M398.176 225.088L318.976 145.92 364.224 100.64l118.304 118.272c2.272 1.76 4.48 3.68 6.592 5.76l181.024 181.024a64 64 0 0 1 0 90.496l-181.024 181.024a64 64 0 0 1-90.528 0L217.6 496.192a64 64 0 0 1 0-90.496l180.576-180.608z m170.144 169.28l-0.448 0.416-124.416-124.416-175.136 175.104h351.104L568.32 394.368zM752 704a80 80 0 0 1-80-80c0-44.16 67.68-124.672 80-124.672 12.32 0 80 80.48 80 124.672a80 80 0 0 1-80 80z" fill="#999999" p-id="2882" data-spm-anchor-id="a313x.7781069.0.i8" class=""></path></svg>