<?xml version="1.0" encoding="UTF-8"?>
<svg width="24px" height="24px" viewBox="0 0 24 24" version="1.1" xmlns="http://www.w3.org/2000/svg" xmlns:xlink="http://www.w3.org/1999/xlink">
    <title>图表icon</title>
    <g id="页面-1" stroke="none" stroke-width="1" fill="none" fill-rule="evenodd">
        <g id="大屏设计器-图表展示-基础设置" transform="translate(-16.000000, -82.000000)" fill="#626263" fill-rule="nonzero">
            <g id="左侧" transform="translate(0.000000, 66.000000)">
                <g id="图表icon" transform="translate(16.000000, 16.000000)">
                    <rect id="矩形" opacity="0" x="0" y="0" width="24" height="24"></rect>
                    <path d="M0.75,0 C1.14848438,0 1.47438281,0.310757813 1.49857031,0.703125 L1.50335156,0.703125 L1.50335156,22.496625 L23.2968516,22.496625 L23.2968516,22.5014062 C23.6892422,22.5256172 23.9999766,22.8515156 23.9999766,23.2499766 C23.9999766,23.6484375 23.6892422,23.9743359 23.2968516,23.9985234 L23.2968516,23.9999766 L0,23.9999766 L0,0.703125 L0.0014296875,0.703125 C0.0256171875,0.31078125 0.351515625,0 0.75,0 Z M10.2421875,8.671875 C10.6563984,8.671875 10.9921875,9.00801562 10.9921875,9.42267187 L10.9921875,18.0929297 C10.9921875,18.5075859 10.6563984,18.84375 10.2421875,18.84375 C9.82797656,18.84375 9.4921875,18.5076094 9.4921875,18.0929531 L9.4921875,9.42267187 C9.4921875,9.00801562 9.82797656,8.671875 10.2421875,8.671875 Z M4.8984375,12.46875 C5.31264844,12.46875 5.6484375,12.8038125 5.6484375,13.2171328 L5.6484375,18.0953203 C5.6484375,18.5086406 5.31264844,18.84375 4.8984375,18.84375 C4.48422656,18.84375 4.1484375,18.5086641 4.1484375,18.0953437 L4.1484375,13.2171328 C4.1484375,12.8038125 4.48422656,12.46875 4.8984375,12.46875 Z M20.90625,4.265625 C21.3204375,4.265625 21.65625,4.60185938 21.65625,5.01660937 L21.65625,18.0927422 C21.65625,18.5074922 21.3204141,18.84375 20.90625,18.84375 C20.4920156,18.84375 20.15625,18.5075156 20.15625,18.0927656 L20.15625,5.01660937 C20.15625,4.60185938 20.4919922,4.265625 20.90625,4.265625 Z M15.5625,5.71875 C15.9766875,5.71875 16.3125,6.05409375 16.3125,6.46776562 L16.3125,18.0946875 C16.3125,18.5083594 15.9766875,18.8437031 15.5625,18.8437031 C15.1482656,18.8437031 14.8125,18.5083594 14.8125,18.0946875 L14.8125,6.46776563 C14.8125,6.05409375 15.1482656,5.71875 15.5625,5.71875 Z" id="形状"></path>
                </g>
            </g>
        </g>
    </g>
</svg>