<?xml version="1.0" encoding="UTF-8"?>
<svg width="28px" height="28px" viewBox="0 0 28 28" version="1.1" xmlns="http://www.w3.org/2000/svg" xmlns:xlink="http://www.w3.org/1999/xlink">
    <title>历史记录icon</title>
    <g id="页面-1" stroke="none" stroke-width="1" fill="none" fill-rule="evenodd">
        <g id="大屏设计器-图表展示-基础设置" transform="translate(-1628.000000, -8.000000)" fill="#999999" fill-rule="nonzero">
            <g id="按钮" transform="translate(1618.000000, 8.000000)">
                <g id="历史记录icon" transform="translate(10.000000, 0.000000)">
                    <rect id="矩形" opacity="0" x="0" y="0" width="28" height="28"></rect>
                    <g id="编组-13" transform="translate(2.000000, 2.000000)">
                        <rect id="矩形" opacity="0" x="0" y="0" width="22.5880739" height="22.5880739"></rect>
                        <path d="M12.7058773,1.41175462 C6.46889974,1.41175462 1.41175462,6.46889974 1.41175462,12.7058773 C1.41175462,18.9428549 6.46889974,24 12.7058773,24 C18.9428549,24 24,18.9428549 24,12.7058773 C24,6.46889974 18.9428549,1.41175462 12.7058773,1.41175462 Z M19.5504182,19.5504182 C18.6605018,20.4403345 17.6243669,21.1386542 16.4722655,21.625209 C15.279828,22.1294109 14.0117602,22.3865539 12.7058773,22.3865539 C11.3974734,22.3865539 10.1294056,22.1319319 8.93696807,21.625209 C7.78486671,21.1386542 6.74873179,20.4403345 5.85881543,19.5504182 C4.96889907,18.6605018 4.27057943,17.6243669 3.78402459,16.4722655 C3.27982268,15.279828 3.02520072,14.0117602 3.02520072,12.7058773 C3.02520072,11.3974734 3.27982268,10.1294056 3.78402459,8.93696807 C4.27057943,7.78486671 4.96889907,6.74873179 5.85881543,5.85881543 C6.74873179,4.96889907 7.78486671,4.27057943 8.93696807,3.78402459 C10.1294056,3.27982268 11.3974734,3.02520072 12.7058773,3.02520072 C14.0142813,3.02520072 15.279828,3.27982268 16.4722655,3.78402459 C17.6243669,4.27057943 18.6605018,4.96889907 19.5504182,5.85881543 C20.4403345,6.74873179 21.1386542,7.78486671 21.625209,8.93696807 C22.1294109,10.1294056 22.3865539,11.3974734 22.3865539,12.7058773 C22.3865539,14.0142813 22.1319319,15.279828 21.625209,16.4722655 C21.1386542,17.6243669 20.4403345,18.6605018 19.5504182,19.5504182 Z" id="形状"></path>
                        <path d="M16.2351781,11.9999143 L10.5881597,11.9999143 L10.5881597,6.3528958 C10.5881597,5.96245741 10.2727207,5.64701849 9.88228235,5.64701849 C9.49184396,5.64701849 9.17640504,5.96245741 9.17640504,6.3528958 L9.17640504,12.7057916 C9.17640504,13.09623 9.49184396,13.4116689 9.88228235,13.4116689 L16.2351781,13.4116689 C16.6256165,13.4116689 16.9410555,13.09623 16.9410555,12.7057916 C16.9410555,12.3153532 16.6256165,11.9999143 16.2351781,11.9999143 Z" id="路径"></path>
                    </g>
                </g>
            </g>
        </g>
    </g>
</svg>