<?xml version="1.0" encoding="UTF-8"?>
<svg width="28px" height="28px" viewBox="0 0 28 28" version="1.1" xmlns="http://www.w3.org/2000/svg" xmlns:xlink="http://www.w3.org/1999/xlink">
    <title>图层</title>
    <g id="页面-1" stroke="none" stroke-width="1" fill="none" fill-rule="evenodd">
        <g id="大屏设计器-图表展示-基础设置" transform="translate(-614.000000, -8.000000)" fill="#5D95FF" fill-rule="nonzero">
            <g id="4个操作" transform="translate(614.000000, 8.000000)">
                <g id="N图层" transform="translate(2.000000, 2.000000)">
                    <rect id="矩形" opacity="0" x="0" y="0" width="24" height="24"></rect>
                    <path d="M22.6050078,13.2927675 L13.6059453,17.337705 C12.7443125,17.7124707 12.4012578,17.7124707 11.6060234,17.337705 L2.6065625,13.2927675 C2.12883594,13.0390097 2,12.1001035 2,11.5877832 C2.60072656,11.9308378 3.44548437,12.3134082 3.41410156,12.2939785 L12.6057969,16.5312207 L21.7978203,12.293955 C21.8133359,12.2900878 22.6328516,11.8770957 23.2115703,11.5877832 C23.2115703,12.1120566 23.0490781,13.0856035 22.6050078,13.2927441 L22.6050078,13.2927675 Z M22.6050078,9.05519721 L13.6059453,13.1004863 C12.7443125,13.4752753 12.4012578,13.4752753 11.6060234,13.1004863 L2.6065625,9.05519721 C1.8996875,8.68010346 1.92167187,7.49878315 2.6065625,7.05761909 L11.6059766,2.30613471 C12.4012109,1.90903315 12.8986953,1.88702534 13.6058984,2.30613471 L22.6049844,7.05761909 C23.2898516,7.43273628 23.2672109,8.7461269 22.6049844,9.05519721 L22.6050078,9.05519721 Z M12.6057969,3.11266596 L3.41410156,8.05640815 L12.6057734,11.9295253 L21.7978203,8.05640815 L12.6057734,3.11266596 L12.6057969,3.11266596 Z M12.6057969,20.7690253 L21.7978203,16.5311738 C21.8133359,16.5272832 22.6328516,16.1143144 23.2115703,15.8249785 C23.2115703,16.3492988 23.0491016,17.3228222 22.6050078,17.5299628 L13.6059453,21.57558 C12.7443359,21.9503457 12.4012578,21.9503457 11.6060234,21.57558 L2.60658594,17.5299394 C2.12885937,17.276205 2.00002344,16.3376269 2.00002344,15.8249785 C2.60075,16.1680332 3.44550781,16.55058 3.414125,16.5311503 L12.6057734,20.7690253 L12.6057969,20.7690253 Z" id="形状"></path>
                </g>
            </g>
        </g>
    </g>
</svg>