<?xml version="1.0" encoding="UTF-8"?>
<svg width="48px" height="48px" viewBox="0 0 48 48" version="1.1" xmlns="http://www.w3.org/2000/svg" xmlns:xlink="http://www.w3.org/1999/xlink">
    <title>图表_地图</title>
    <g id="页面-1" stroke="none" stroke-width="1" fill="none" fill-rule="evenodd">
        <g id="大屏设计器-图表展示-基础设置" transform="translate(-97.000000, -599.000000)" fill-rule="nonzero">
            <g id="图表" transform="translate(57.000000, 66.000000)">
                <g id="地图" transform="translate(16.000000, 521.000000)">
                    <g id="图表_地图" transform="translate(24.000000, 12.000000)">
                        <rect id="矩形" fill="#000000" opacity="0" x="0" y="0" width="48" height="48"></rect>
                        <path d="M31.9136976,26.4563748 C32.5620489,26.4563748 33.1648473,26.7788051 33.5258145,27.3184933 L38.7196416,35.0742049 C38.1512474,34.5261486 37.9725641,33.6878635 38.2680675,32.9556645 C38.563571,32.2234654 39.274062,31.7440365 40.0636428,31.7440365 C40.8532235,31.7440365 41.5637145,32.2234654 41.859218,32.9556645 C42.1547214,33.6878635 41.9760382,34.5261486 41.4076439,35.0742049 C41.0887389,35.2880062 40.7137396,35.4036512 40.3281991,35.4036512 L9.44574181,35.4036512 C10.0896971,36.1951084 10.0107292,37.3500704 9.26504195,38.0465139 C8.51935473,38.7429573 7.36169627,38.7429573 6.61600905,38.0465139 C5.87032183,37.3500704 5.79135387,36.1951084 6.43530919,35.4036512 L11.5766014,27.6444486 L14.8989573,27.6444486 C16.3708902,29.3161506 18.0180532,30.8266204 19.8089253,32.1513532 L20.0367245,32.3160763 L20.2820466,32.4913064 L20.5273687,32.3160763 L20.7551679,32.1513532 C21.6593484,31.4854788 23.7200475,29.876887 25.6651016,27.6444486 L28.9068585,27.6479395 L31.9136976,26.4563748 Z" id="路径" fill="#5D95FF"></path>
                        <polygon id="路径" points="31.0445631 34.2120523 31.0445631 36.1501246 15.529683 36.1501246 15.529683 34.2085614"></polygon>
                        <path d="M23.2853605,9 C27.567991,9 31.041038,12.4730469 31.041038,16.7591684 C31.041038,22.3600016 25.2156882,27.4764729 23.6622615,28.7412949 L23.5025527,28.8699512 C23.3629512,28.9811312 23.2853947,29.0393076 23.2853947,29.0393076 C23.2853947,29.0393076 23.2315356,28.9989073 23.1327939,28.9211003 L22.9085246,28.7412949 C21.3550843,27.4764729 15.529683,22.3600016 15.529683,16.7591684 C15.529683,12.4765721 19.00273,9 23.2853605,9 Z M23.2853605,13.8503487 C21.6802596,13.8503487 20.3765408,15.1540675 20.3765408,16.7591684 C20.3765408,18.3642693 21.6802596,19.6679881 23.2853605,19.6679881 C24.8904614,19.6679881 26.1941802,18.3643035 26.1941802,16.7591684 C26.1941802,15.1540333 24.8939865,13.8503487 23.2853605,13.8503487 Z" id="形状结合" fill="#29C287"></path>
                    </g>
                </g>
            </g>
        </g>
    </g>
</svg>