<?xml version="1.0" encoding="UTF-8"?>
<svg width="48px" height="45px" viewBox="0 0 48 45" version="1.1" xmlns="http://www.w3.org/2000/svg" xmlns:xlink="http://www.w3.org/1999/xlink">
    <title>图表_散点图</title>
    <g id="页面-1" stroke="none" stroke-width="1" fill="none" fill-rule="evenodd">
        <g id="大屏设计器-图表展示-基础设置" transform="translate(-209.000000, -487.000000)" fill-rule="nonzero">
            <g id="图表" transform="translate(57.000000, 66.000000)">
                <g id="散点图" transform="translate(128.000000, 409.000000)">
                    <g id="图表_散点图" transform="translate(24.000000, 12.000000)">
                        <rect id="矩形" fill="#000000" opacity="0" x="0" y="0" width="47.1071075" height="44.01248"></rect>
                        <path d="M1.25186279,26.1891878 C1.25186279,28.9206264 3.41436269,31.0829973 6.14584425,31.0829973 C8.87706792,31.0829973 11.0395678,28.9207123 11.0395678,26.1891878 C11.0395678,23.4576633 8.87706792,21.2952493 6.14584425,21.2952493 C3.41436269,21.2952493 1.25186279,23.4577492 1.25186279,26.1891878 Z" id="路径" fill="#528FDE"></path>
                        <path d="M22.1929062,12.7596649 C22.1929062,14.6944518 23.672482,16.1738127 25.6073119,16.1738127 C27.4281563,16.1738127 29.0215026,14.5804664 29.0215026,12.7596649 C29.0215026,10.8248351 27.5421418,9.34525927 25.6073119,9.34525927 C23.672482,9.34525927 22.1929062,10.9385626 22.1929062,12.7596649 L22.1929062,12.7596649 Z" id="路径" fill="#29C287"></path>
                        <path d="M36.6468797,29.0344829 C36.6468797,31.1969398 38.3539966,32.9040567 40.5164535,32.9040567 C42.6787815,32.9040567 44.3858554,31.1969398 44.3858554,29.0344829 C44.3858554,26.8721549 42.6787815,25.1648661 40.5164965,25.1648661 C38.3539966,25.0510956 36.6468797,26.8721549 36.6468797,29.0344399 L36.6468797,29.0344829 Z" id="路径" fill="#FFC107"></path>
                        <path d="M0,35.0663417 C0,36.2044339 0.910422218,37.1148562 2.04851446,37.1148562 C3.18664969,37.1148562 4.09711488,36.2044339 4.09711488,35.0663417 C4.09711488,33.9282494 3.18669267,33.0178702 2.04851446,33.0178702 C0.910422218,33.0178272 0,33.9282065 0,35.0663417 Z M45.0687795,19.0192368 C45.0687447,18.6066601 45.3172528,18.2346906 45.6984173,18.0767883 C46.0795818,17.918886 46.5183329,18.0061494 46.8100687,18.2978852 C47.1018045,18.589621 47.1890679,19.0283721 47.0311656,19.4095366 C46.8732633,19.7907011 46.5012938,20.0392092 46.0887171,20.0391744 C46.3205129,20.4406582 46.7930611,20.636362 47.2408463,20.5163238 C47.6886316,20.3962855 48,19.9904363 48,19.5268148 C48,19.0631932 47.6886316,18.6574018 47.2408463,18.5374466 C46.7930611,18.4174914 46.3205129,18.6132829 46.0887171,19.0148097 L45.0687795,19.0192368 Z" id="形状" fill="#F89275"></path>
                        <path d="M38.1262406,17.539661 C38.1262406,18.2225421 38.6954371,18.6777962 39.2643758,18.6777962 C39.9472569,18.6777962 40.4024681,18.1085996 40.4024681,17.539661 C40.4024681,16.8566939 39.8335294,16.4015257 39.2643328,16.4015257 C38.5816666,16.2877982 38.1262406,16.8566939 38.1262406,17.539661 Z" id="路径" fill="#98DB8E"></path>
                        <path d="M12.7466847,8.43483706 C12.7466847,9.23148873 13.4295658,9.91441285 14.2262605,9.91441285 C15.0229552,9.91441285 15.7058363,9.23148873 15.7058363,8.43483706 C15.7058363,7.63818538 15.0229122,6.95526126 14.2262605,6.95526126 C13.4295658,6.84149072 12.7466847,7.52445782 12.7466847,8.43483706 Z" id="路径" fill="#EED285"></path>
                        <path d="M29.0214597,21.9781734 C29.0214597,22.7748681 29.5906132,23.3440217 30.3872649,23.3440217 C31.1839166,23.3440217 31.7528982,22.6610546 31.7528982,21.9781734 C31.7528982,21.1815218 31.1839596,20.6125831 30.3872649,20.6125831 C29.5905703,20.6125831 29.0214597,21.1815218 29.0214597,21.9781734 Z" id="路径" fill="#F89275"></path>
                        <path d="M16.274775,21.8644029 C16.274775,22.6610976 16.8439285,23.2300792 17.6406232,23.2300792 C18.4373178,23.2300792 19.0062995,22.6611405 19.0062995,21.8644029 C19.0062995,21.0677512 18.4372749,20.4985976 17.6406232,20.4985976 C16.8439715,20.4985976 16.274732,21.0677512 16.274732,21.8644029 L16.274775,21.8644029 Z" id="路径" fill="#EED285"></path>
                        <path d="M11.3810514,15.14962 C11.3810514,15.7186446 11.8362195,16.2877552 12.4052012,16.2877552 C12.9743977,16.2877552 13.4295658,15.8325441 13.4295658,15.14962 C13.4295658,14.5804664 12.9743977,14.0115277 12.4052012,14.0115277 C11.8362625,14.0115277 11.3810514,14.5804664 11.3810514,15.149663 L11.3810514,15.14962 Z" id="路径" fill="#F89275"></path>
                        <path d="M22.6481603,28.1240177 C22.6481255,27.711441 22.8966336,27.3394716 23.2777981,27.1815692 C23.6589626,27.0236669 24.0977137,27.1109303 24.3894495,27.4026661 C24.6811853,27.6944019 24.7684487,28.1331531 24.6105464,28.5143176 C24.4526441,28.8954821 24.0806746,29.1439901 23.6680979,29.1439553 C23.8998891,29.5454542 24.3724421,29.7411593 24.8202353,29.6211065 C25.2680285,29.5010537 25.5794042,29.0951783 25.5794042,28.6315366 C25.5794042,28.1678948 25.2680285,27.7620965 24.8202353,27.6421544 C24.3724421,27.5222124 23.8998891,27.7180345 23.6680979,28.1195907 L22.6481603,28.1240177 Z" id="路径" fill="#98DB8E"></path>
                    </g>
                </g>
            </g>
        </g>
    </g>
</svg>