<?xml version="1.0" encoding="UTF-8"?>
<svg width="48px" height="48px" viewBox="0 0 48 48" version="1.1" xmlns="http://www.w3.org/2000/svg" xmlns:xlink="http://www.w3.org/1999/xlink">
    <title>图表_环图</title>
    <g id="页面-1" stroke="none" stroke-width="1" fill="none" fill-rule="evenodd">
        <g id="大屏设计器-图表展示-基础设置" transform="translate(-97.000000, -263.000000)" fill-rule="nonzero">
            <g id="图表" transform="translate(57.000000, 66.000000)">
                <g id="环图" transform="translate(16.000000, 185.000000)">
                    <g id="图表_环图" transform="translate(24.000000, 12.000000)">
                        <rect id="矩形" fill="#000000" opacity="0" x="0" y="0" width="48" height="48"></rect>
                        <path d="M25.6286719,12.1717969 C32.4469687,13.024125 35.92425,18.0013125 35.92425,24.0354375 C35.92425,25.6036406 35.6855625,27.1036406 35.140125,28.4672813 L41.071875,31.9104375 C42.1627969,29.524125 42.7082812,26.8309219 42.7082812,24.0354375 C42.7082812,14.2172812 35.8559531,6.13771875 25.6286719,5.2854375 L25.6286719,12.1718437 L25.6286719,12.1717969 Z" id="路径" fill="#5D95FF"></path>
                        <path d="M22.2196875,35.8990781 C17.1060937,35.0467969 12.0265312,30.0695156 12.0265312,24.0354844 C12.0265312,18.0013125 17.1060469,13.0240781 22.2196875,12.1717969 L22.2196875,5.2854375 C13.6969687,6.13771875 5.24240625,14.2172812 5.24240625,24.0354375 C5.24240625,33.8535937 13.6969687,41.93325 22.2196875,42.7854375 L22.2196875,35.8990781 Z" id="路径" fill="#29C287"></path>
                        <path d="M33.4015312,31.4331562 C31.5264844,33.8194687 29.0378906,35.4217969 25.6287656,35.8990781 L25.6287656,42.7854844 C30.7424063,42.2740781 36.1628906,39.2740781 39.2310937,34.8763594 L33.4015312,31.4331562 Z" id="路径" fill="#FFC107"></path>
                    </g>
                </g>
            </g>
        </g>
    </g>
</svg>