<?xml version="1.0" encoding="UTF-8"?>
<svg width="48px" height="48px" viewBox="0 0 48 48" version="1.1" xmlns="http://www.w3.org/2000/svg" xmlns:xlink="http://www.w3.org/1999/xlink">
    <title>图表_柱形图</title>
    <g id="页面-1" stroke="none" stroke-width="1" fill="none" fill-rule="evenodd">
        <g id="大屏设计器-图表展示-基础设置" transform="translate(-97.000000, -151.000000)" fill-rule="nonzero">
            <g id="图表" transform="translate(57.000000, 66.000000)">
                <g id="柱状图" transform="translate(16.000000, 73.000000)">
                    <g id="图表_柱形图" transform="translate(24.000000, 12.000000)">
                        <rect id="矩形" fill="#000000" opacity="0" x="0" y="0" width="48" height="48"></rect>
                        <path d="M14.99925,6.86039062 C16.2960937,6.86039062 20.29425,6.85570312 21.5910469,6.86039062 C22.69125,6.86507812 23.1922031,7.36603125 23.1968906,8.46154687 C23.2015781,9.25275 23.2015781,10.0439531 23.1922031,10.8397969 C23.1828281,11.794875 22.6491094,12.3379219 21.6800156,12.3379219 C19.0207969,12.3426094 13.655625,12.3426094 11.0011406,12.3379219 C10.0226719,12.3379219 9.47957812,11.7855 9.47489062,10.8117187 C9.47020312,9.997125 9.47020312,9.17784375 9.47489062,8.35382812 C9.47957812,7.426875 10.0132969,6.87445312 10.9495781,6.86507812 C12.302625,6.85101562 13.6509844,6.86039062 14.99925,6.86039062 L14.99925,6.86039062 Z M19.8354375,39.6976406 C16.9561875,39.6976406 14.0676094,39.7023281 11.1884063,39.6976406 C9.98985938,39.6976406 9.49828125,39.2060625 9.49828125,38.0169375 C9.49828125,37.249125 9.49359375,36.486 9.49828125,35.7181875 C9.50765625,34.7865937 10.0460625,34.22475 10.9777031,34.22475 C16.8859688,34.215375 32.3308125,34.215375 38.2437656,34.22475 C39.1567031,34.22475 39.6904219,34.7631562 39.709125,35.6901562 C39.7231875,36.5188125 39.7185,37.3521562 39.709125,38.1854531 C39.69975,39.1779844 39.1800938,39.6929531 38.1782344,39.6976406 L19.8354375,39.6976406 Z" id="形状" fill="#29C287"></path>
                        <path d="M17.1668906,20.4981094 C19.1378906,20.4981094 27.8551406,20.4981094 29.8261406,20.5027969 C30.9356719,20.5027969 31.455375,21.0224531 31.4600156,22.1273437 C31.4647031,22.9232344 31.4693906,23.7144375 31.4600156,24.5056406 C31.4506406,25.4372812 30.9169687,25.9990781 29.9806406,26.0037656 C25.9169531,26.0131406 15.1069687,26.0131406 11.0432344,26.0037656 C10.0928906,26.0037656 9.54979687,25.4279062 9.54510937,24.4775156 C9.54042187,23.7097031 9.54042187,22.946625 9.54042187,22.1788125 C9.54510937,21.0224531 10.0647656,20.4981094 11.2071094,20.4981094 L17.1668906,20.4981094 L17.1668906,20.4981094 Z" id="路径" fill="#5D95FF"></path>
                    </g>
                </g>
            </g>
        </g>
    </g>
</svg>