<?xml version="1.0" encoding="UTF-8"?>
<svg width="48px" height="48px" viewBox="0 0 48 48" version="1.1" xmlns="http://www.w3.org/2000/svg" xmlns:xlink="http://www.w3.org/1999/xlink">
    <title>图表_雷达图</title>
    <g id="页面-1" stroke="none" stroke-width="1" fill="none" fill-rule="evenodd">
        <g id="大屏设计器-图表展示-基础设置" transform="translate(-209.000000, -375.000000)" fill-rule="nonzero">
            <g id="图表" transform="translate(57.000000, 66.000000)">
                <g id="雷达图" transform="translate(128.000000, 297.000000)">
                    <g id="图表_雷达图" transform="translate(24.000000, 12.000000)">
                        <rect id="矩形" fill="#000000" opacity="0" x="0" y="0" width="48" height="48"></rect>
                        <path d="M23.9675625,45.0230156 C23.8435312,45.0230156 23.6946094,44.9981719 23.5951406,44.9238281 L6.069375,34.8203906 C5.82103125,34.696125 5.69695312,34.4480156 5.69695312,34.1747812 L5.69695312,13.8935156 C5.69695312,13.620375 5.82103125,13.3968281 6.069375,13.2479531 L23.5951406,3.14451562 C23.8435312,3.0204375 24.0916406,3.0204375 24.3399844,3.14451562 L41.8660781,13.2479531 C42.1141875,13.3722656 42.2382656,13.620375 42.2382656,13.8935156 L42.2382656,34.1499375 C42.2382656,34.4231719 42.1141875,34.646625 41.8660781,34.7955 L24.3399844,44.9237812 C24.2407969,44.9981719 24.0916406,45.0230156 23.9675625,45.0230156 Z M7.1863125,33.7280625 L23.9675625,43.4093906 L40.7488125,33.7280625 L40.7488125,14.3651719 L23.9675625,4.68351563 L7.1863125,14.3651719 L7.1863125,33.7280625 Z" id="形状" fill="#5D95FF"></path>
                        <polygon id="路径" fill="#5DEDB9" points="23.8186875 7.71220312 37.5960937 16.2765938 33.1278281 28.936875 23.8185937 30.9726563 9.69365625 32.28825 11.902875 17.3935781 23.8186875 7.71225"></polygon>
                        <polygon id="路径" fill="#29C287" points="23.8186875 14.0424375 32.7554531 19.2306563 36.8513437 31.1710312 23.8186875 36.3594375 14.881875 28.936875 15.9990469 19.6030781 23.8186875 14.0424844"></polygon>
                    </g>
                </g>
            </g>
        </g>
    </g>
</svg>