<?xml version="1.0" encoding="UTF-8"?>
<svg width="48px" height="48px" viewBox="0 0 48 48" version="1.1" xmlns="http://www.w3.org/2000/svg" xmlns:xlink="http://www.w3.org/1999/xlink">
    <title>图表_仪表盘</title>
    <g id="页面-1" stroke="none" stroke-width="1" fill="none" fill-rule="evenodd">
        <g id="大屏设计器-图表展示-基础设置" transform="translate(-97.000000, -375.000000)" fill-rule="nonzero">
            <g id="图表" transform="translate(57.000000, 66.000000)">
                <g id="仪表盘" transform="translate(16.000000, 297.000000)">
                    <g id="图表_仪表盘" transform="translate(24.000000, 12.000000)">
                        <rect id="矩形" fill="#000000" opacity="0" x="0" y="0" width="48" height="48"></rect>
                        <path d="M15.8933437,32.5333125 C14.7555469,30.9689062 14.0444531,28.9777969 14.0444531,26.8444219 C14.0444531,21.2977969 18.4533281,16.888875 24,16.888875 C29.5466719,16.888875 33.9555469,21.2977969 33.9555469,26.8444219 C33.9555469,28.9777969 33.2444531,30.9689063 32.1066563,32.5333125 L34.6666875,33.8133281 C35.9466563,31.8222188 36.7999688,29.4044531 36.7999688,26.8444219 C36.7999688,19.7333438 31.111125,14.0444531 24,14.0444531 C16.888875,14.0444531 11.1999844,19.7333437 11.1999844,26.844375 C11.1999844,29.4044062 11.9110781,31.8221719 13.3333125,33.8133281 L15.8933437,32.5332656 L15.8933437,32.5333125 Z" id="路径" fill="#29C287"></path>
                        <path d="M8.35551562,26.8444688 C8.35551562,18.1688906 15.3244219,11.1999844 24,11.1999844 C32.6755781,11.1999844 39.6444375,18.1688906 39.6444375,26.8444219 C39.6444375,29.9733281 38.791125,32.8177969 37.226625,35.2355156 L40.9244531,37.2266719 C42.7733438,34.2399844 43.9110937,30.684375 43.9110937,26.844375 C43.9110937,15.8932969 34.951125,6.93328125 24,6.93328125 C13.048875,6.93328125 4.08890625,15.8933438 4.08890625,26.8444219 C4.08890625,30.6844219 5.22665625,34.2399844 7.07554688,37.2266719 L10.7733281,35.2355625 C9.208875,32.81775 8.35551562,29.973375 8.35551562,26.8444688 Z" id="路径" fill="#5D95FF"></path>
                        <path d="M26.7022031,36.088875 C27.1289063,34.5244219 27.9822188,20.3022188 27.9822188,20.3022188 C27.9822188,20.3022188 21.5822344,33.1022344 21.155625,34.6666875 C20.7289219,36.2310937 21.5822813,37.7955937 23.1467344,38.0799844 C24.7111406,38.5066875 26.2756406,37.6533281 26.70225,36.088875 L26.7022031,36.088875 Z" id="路径" fill="#5DEDB9"></path>
                    </g>
                </g>
            </g>
        </g>
    </g>
</svg>