<?xml version="1.0" encoding="UTF-8"?>
<svg width="24px" height="24px" viewBox="0 0 24 24" version="1.1" xmlns="http://www.w3.org/2000/svg" xmlns:xlink="http://www.w3.org/1999/xlink">
    <title>组件icon</title>
    <g id="页面-1" stroke="none" stroke-width="1" fill="none" fill-rule="evenodd">
        <g id="大屏设计器-图表展示-基础设置" transform="translate(-16.000000, -251.000000)" fill="#FFFFFF" fill-rule="nonzero">
            <g id="左侧" transform="translate(0.000000, 66.000000)">
                <g id="组件" transform="translate(0.000000, 169.000000)">
                    <g id="组件icon" transform="translate(16.000000, 16.000000)">
                        <rect id="矩形" opacity="0" x="0" y="0" width="24" height="24"></rect>
                        <path d="M22.5200859,4.265625 L1.47991406,4.265625 C1.47991406,4.265625 0,4.265625 0,5.74999219 L0,18.2734453 C0,18.2734453 0,19.734375 1.47991406,19.734375 L22.5200859,19.734375 C24,19.734375 24,18.2500078 24,18.2500078 L24,5.74999219 C24,5.74999219 24,4.265625 22.5200859,4.265625 Z M22.5,5.765625 L22.5,18.2109844 L1.5,18.2344219 L1.5,5.7890625 L22.5,5.765625 Z M6.24128906,8.578125 L4.1953125,8.578125 L4.1953125,15.515625 L6.39257812,15.515625 L6.41289844,15.5154609 C6.64267969,15.5115703 6.87248437,15.4427344 7.10226563,15.3669844 L7.14405469,15.3531562 L7.18359375,15.3400078 L7.19899219,15.3347344 C7.4184375,15.2578125 7.57661719,15.1196953 7.72621875,14.9730234 L7.74705469,14.9524922 L7.7574375,14.9422031 L7.77813281,14.9215781 L7.79882812,14.9009297 C7.97460938,14.7252656 8.15039062,14.4618281 8.23828125,14.1983672 L8.25377344,14.1518672 L8.2640625,14.1207891 C8.34257813,13.8824297 8.4140625,13.6370391 8.4140625,13.3202344 C8.4140625,13.1445703 8.4140625,12.8811328 8.32617188,12.7055156 C8.23828125,12.529875 8.23828125,12.3542344 8.15039062,12.2663906 L8.14410938,12.2539688 C8.06224219,12.0943125 7.97859375,12.0071016 7.82226562,11.8507266 L7.79882812,11.8273125 L7.78830469,11.8171875 C7.69755469,11.7327422 7.53178125,11.6482969 7.44726562,11.5638281 C7.53515625,11.4760547 7.62304688,11.4760547 7.62304688,11.3882109 C7.7109375,11.3004141 7.7109375,11.2125937 7.79882812,11.1247734 C7.79882812,11.0369766 7.88671875,10.9491562 7.88671875,10.7734922 L7.88671875,10.4222578 L7.88655469,10.4019844 C7.88242969,10.1584688 7.80515625,9.91495313 7.72413281,9.6714375 L7.7109375,9.63192187 L7.70482031,9.61410937 C7.61510156,9.36049219 7.44525,9.18883594 7.35935156,9.01720312 C7.18359375,8.8415625 7.0078125,8.75376562 6.83200781,8.66594531 C6.66424219,8.58210937 6.41636719,8.57828906 6.24128906,8.578125 L6.24128906,8.578125 Z M19.8070313,8.57116406 L18.4195312,8.57116406 L18.4195312,12.3906328 L18.417,12.3879844 C18.3241875,12.2889375 17.3655937,11.019 15.5412187,8.578125 L14.34375,8.578125 L14.34375,15.5060625 L15.73125,15.5060625 L15.73125,11.0017266 L19.1132812,15.515625 L19.8070313,15.515625 L19.8070313,8.57116406 L19.8070313,8.57116406 Z M13.7320312,8.578125 L8.7890625,8.578125 L8.7890625,9.88019531 L10.5234375,9.88019531 L10.5234375,15.5060625 L11.9976562,15.5060625 L11.9976562,9.88021875 L13.7320312,9.88021875 L13.7320312,8.578125 Z M6.20571094,12.515625 C6.46746094,12.515625 6.64192969,12.6034922 6.81639844,12.7792969 C6.99089062,12.9550781 7.078125,13.1308594 7.07803133,13.4826094 L7.077375,13.4839688 C7.06886719,13.5013359 6.99089062,13.6630078 6.99089062,13.7460938 C6.950625,13.7866641 6.92894531,13.8272344 6.90869531,13.8678047 L6.89861719,13.8880781 C6.87834375,13.928625 6.85666406,13.9691953 6.81639844,14.0097656 C6.72916406,14.0976797 6.64192969,14.0976797 6.55469531,14.1855703 C6.46746094,14.1855703 6.38022656,14.2734375 6.20571094,14.2734375 L5.5078125,14.2734375 L5.5078125,12.515625 L6.20571094,12.515625 Z M5.5078125,9.796875 L5.94726562,9.79692188 L5.95760156,9.79701563 C6.12991406,9.80036719 6.3005625,9.8865 6.38674219,9.97267969 C6.55507031,10.0568438 6.56219531,10.2216563 6.56247656,10.4670703 L6.5625,10.4944453 L6.5625,10.5000234 C6.5625,10.7636719 6.47460937,10.9394766 6.38671875,11.0273672 C6.30965625,11.1814922 6.165,11.2004531 6.012,11.2027969 L5.995875,11.2029844 C5.98778906,11.2030547 5.97970312,11.2031016 5.97159375,11.2031016 L5.955375,11.203125 L5.5078125,11.203125 L5.5078125,9.796875 Z" id="形状"></path>
                    </g>
                </g>
            </g>
        </g>
    </g>
</svg>