<?xml version="1.0" encoding="UTF-8"?>
<svg width="24px" height="24px" viewBox="0 0 24 24" version="1.1" xmlns="http://www.w3.org/2000/svg" xmlns:xlink="http://www.w3.org/1999/xlink">
    <title>图片icon</title>
    <g id="页面-1" stroke="none" stroke-width="1" fill="none" fill-rule="evenodd">
        <g id="大屏设计器-图表展示-基础设置" transform="translate(-16.000000, -195.000000)" fill="#797979" fill-rule="nonzero">
            <g id="左侧" transform="translate(0.000000, 66.000000)">
                <g id="图片" transform="translate(0.000000, 113.000000)">
                    <g id="图片icon" transform="translate(16.000000, 16.000000)">
                        <rect id="矩形" opacity="0" x="0" y="0" width="24" height="24"></rect>
                        <path d="M19.9660781,13.2107344 L21.7950937,15.0438047 C22.0970625,15.3457969 22.0970625,15.8427891 21.7950937,16.1447813 C21.493125,16.44675 20.9962031,16.44675 20.6942344,16.1447813 L20.1915937,15.6420469 L20.1915937,23.2217813 C20.1915937,23.6499375 19.8418594,23.9997422 19.41375,23.9997422 C18.9856406,23.9997422 18.6359062,23.6499375 18.6359062,23.2217813 L18.6359062,15.6420703 L18.1332656,16.1447813 C17.8312969,16.44675 17.3343984,16.44675 17.0324062,16.1447813 C16.7285156,15.8427656 16.7285156,15.3476953 17.0324062,15.0437813 L18.8652422,13.2107344 C19.1672109,12.9087187 19.6641094,12.9087187 19.9661016,13.2107344 L19.9660781,13.2107344 Z M22.4997656,11.7243281 C22.3453594,11.4903281 21.8879766,10.8809531 21.2360625,10.5641719 C20.2444219,10.0823672 18.9785859,9.79678125 17.558625,9.79678125 C14.0331563,9.79678125 10.924875,11.9417578 9.72909375,15.1037344 C9.6500625,15.3131016 9.51480469,15.6752109 9.32395313,16.1888203 C9.10160156,16.7878828 8.32645313,16.9792969 7.83665625,16.5559922 C7.36078125,16.1444062 7.00996875,15.8509922 6.79038281,15.6800156 C5.64107813,14.7823594 4.20996094,14.2941562 2.73527344,14.2967344 C2.31651563,14.2967344 1.90361719,14.3351016 1.49997656,14.4107109 L1.49997656,19.4997891 L14.6248359,19.4997891 L14.6248359,19.5012187 C14.6362734,19.5005156 14.6477578,19.5000703 14.6592891,19.4998828 L14.6717109,19.4997891 C15.0859219,19.4997891 15.4217109,19.8355781 15.4217109,20.2497891 C15.4217109,20.664 15.0859219,20.9997891 14.6717109,20.9997891 C14.6560078,20.9997891 14.6403516,20.9993203 14.6248359,20.9983359 L14.6248359,20.9997891 L1.44914063,20.9997891 C1.453125,20.9997891 0.0008203125,20.9997891 0.0008203125,19.5513516 L0.0008203125,1.51872656 L0.0007265625,1.51692188 C-0.00215625,1.4585625 -0.055546875,0 1.73039063,0 L22.2464063,0 C23.9230078,0 23.9984063,1.28545312 23.9997656,1.49111719 L23.9997656,1.50297656 C23.9997656,1.51155469 23.9995078,1.51680469 23.9994375,1.51828125 L23.9994375,12.9623437 C23.9997656,12.9696094 23.9997656,12.9768984 23.9997656,12.9842344 C23.9997656,13.3984453 23.6639766,13.7342344 23.2497656,13.7342344 C22.8355781,13.7342344 22.4997656,13.3984453 22.4997656,12.9842344 L22.4997656,11.7243281 Z M22.4997656,1.49997656 L1.5,1.49997656 L1.50070313,12.8784141 C3.43767188,12.8756016 5.31471094,13.5417891 6.80709375,14.7617109 C8.30475,10.9062891 12.0647109,8.30200781 16.3230469,8.30200781 C18.2252578,8.30200781 19.9996172,8.78191406 21.2638594,9.50224219 L21.2638594,3.02545313 L21.2645625,1.49997656 L22.4997656,1.49997656 Z M6.65617969,3.84372656 C8.20945312,3.84372656 9.46865625,5.10292969 9.46865625,6.65620312 C9.46865625,8.20947656 8.20945312,9.46867969 6.65615625,9.46867969 C5.10285937,9.46867969 3.84370312,8.20947656 3.84370312,6.65617969 C3.84370312,5.10288281 5.10290625,3.84372656 6.65617969,3.84372656 L6.65617969,3.84372656 Z M6.65617969,5.34370313 C5.93130469,5.34370313 5.34367969,5.93132813 5.34367969,6.65620313 C5.34367969,7.38107813 5.93130469,7.96870313 6.65617969,7.96870313 C7.38105469,7.96870313 7.96867969,7.38107813 7.96867969,6.65620313 C7.96867969,5.93132813 7.38105469,5.34370313 6.65617969,5.34370313 L6.65617969,5.34370313 Z" id="形状"></path>
                    </g>
                </g>
            </g>
        </g>
    </g>
</svg>