<?xml version="1.0" encoding="UTF-8"?>
<svg width="28px" height="28px" viewBox="0 0 28 28" version="1.1" xmlns="http://www.w3.org/2000/svg" xmlns:xlink="http://www.w3.org/1999/xlink">
    <title>预览icon</title>
    <g id="页面-1" stroke="none" stroke-width="1" fill="none" fill-rule="evenodd">
        <g id="大屏设计器-图表展示-基础设置" transform="translate(-1742.000000, -8.000000)" fill="#999999" fill-rule="nonzero">
            <g id="按钮" transform="translate(1618.000000, 8.000000)">
                <g id="预览icon" transform="translate(124.000000, 0.000000)">
                    <rect id="矩形" opacity="0" x="0" y="0" width="28" height="28"></rect>
                    <g id="编组-15" transform="translate(2.000000, 2.000000)">
                        <rect id="矩形" opacity="0" x="0.000137276906" y="9.44255569e-06" width="23.999769" height="23.999769"></rect>
                        <path d="M11.9174522,2.81027162e-05 C18.5640992,-0.0141701084 23.9686409,5.35341103 24,12.000058 C24,18.6166349 18.6440437,23.9846145 12.0275371,23.9997865 C5.41098363,24.0147548 0.0307463573,18.6713141 0.000126693726,12.0548075 C-0.0299561834,5.43827741 5.30106281,0.0457121276 11.9174522,2.81027162e-05 L11.9174522,2.81027162e-05 Z M11.9999046,1.4999723 C7.74639084,1.4999723 3.9131543,4.06656405 2.29246677,7.99919807 C0.671779249,11.9318555 1.58388766,16.4537729 4.60230391,19.4507206 C7.62072017,22.4476449 12.1490594,23.3274099 16.0700216,21.6786679 C19.9910073,20.0299729 22.5299204,16.1785256 22.4996394,11.9251056 C22.4754287,6.14840338 17.7766302,1.48304985 11.9999046,1.4999723 L11.9999046,1.4999723 Z M6.82769655,4.47652885 C6.98268725,4.47652885 7.14170916,4.51482536 7.29269208,4.59950423 L19.1429764,11.153199 C19.8092982,11.520086 19.8092982,12.4776393 19.1429764,12.846542 L7.29269208,19.4002836 C7.14170916,19.4849625 6.98268725,19.523259 6.82769655,19.523259 C6.32042019,19.523259 5.85945587,19.1180285 5.85945587,18.5536121 L5.85945587,5.4461992 C5.85945587,4.88175932 6.32243579,4.47652885 6.82769655,4.47652885 Z M7.35944143,6.23432443 L7.35944143,17.7654634 L17.8087627,11.9998939 L7.35944143,6.23432443 Z" id="形状"></path>
                    </g>
                </g>
            </g>
        </g>
    </g>
</svg>