<?xml version="1.0" encoding="UTF-8"?>
<svg width="24px" height="24px" viewBox="0 0 24 24" version="1.1" xmlns="http://www.w3.org/2000/svg" xmlns:xlink="http://www.w3.org/1999/xlink">
    <title>发布icon</title>
    <g id="页面-1" stroke="none" stroke-width="1" fill="none" fill-rule="evenodd">
        <g id="大屏设计器-图表展示-基础设置" transform="translate(-1802.000000, -20.000000)" fill="#FFFFFF" fill-rule="nonzero">
            <g id="按钮" transform="translate(1618.000000, 8.000000)">
                <g id="发布icon" transform="translate(184.000000, 12.000000)">
                    <rect id="矩形" opacity="0" x="0" y="0" width="24" height="24"></rect>
                    <path d="M17.9554688,20.6460938 L12.6445312,18.0421875 C12.2484375,17.8476563 12.0820312,17.3695313 12.2765625,16.9710938 C12.3703125,16.78125 12.534375,16.6359375 12.7335938,16.565625 C12.9351563,16.4976563 13.153125,16.509375 13.3453125,16.603125 L17.7,18.740625 L19.5796875,5.87109375 L11.1140625,16.0289063 L11.1140625,20.7492188 C11.1140625,21.1898438 10.7554688,21.5484375 10.3148438,21.5484375 C9.87421875,21.5484375 9.515625,21.1898438 9.515625,20.7492188 L9.515625,15.7664063 C9.515625,15.7242188 9.51796875,15.684375 9.525,15.6421875 C9.54375,15.4875 9.60703125,15.3398438 9.70546875,15.2203125 L17.68125,5.6484375 L4.89375,12.2835938 L7.9078125,13.846875 C8.30390625,14.0554688 8.4609375,14.5382813 8.26640625,14.9390625 C8.17734375,15.1242188 8.015625,15.2648438 7.82109375,15.3328125 C7.6265625,15.4007813 7.41328125,15.3867188 7.228125,15.2976563 L2.86875,13.0289063 C2.70234375,12.9421875 2.57109375,12.8015625 2.49609375,12.6304688 C2.39765625,12.4453125 2.3765625,12.2273438 2.4375,12.028125 C2.4984375,11.8265625 2.63671875,11.6578125 2.82421875,11.559375 L20.3929688,2.44453125 C20.5101563,2.38359375 20.6414063,2.35299392 20.7726563,2.35299392 C21.1640625,2.34609375 21.5015625,2.62265625 21.571875,3.00703125 C21.5976563,3.1359375 21.5929688,3.2671875 21.5578125,3.39375 L19.1273438,20.0367188 C19.0757812,20.3976563 18.7921875,20.6648438 18.45,20.7164063 C18.28125,20.746875 18.1078125,20.7234375 17.9554688,20.6460938 Z" id="路径"></path>
                </g>
            </g>
        </g>
    </g>
</svg>