<?xml version="1.0" standalone="no"?><!DOCTYPE svg PUBLIC "-//W3C//DTD SVG 1.1//EN" "http://www.w3.org/Graphics/SVG/1.1/DTD/svg11.dtd"><svg t="1684112770510" class="icon" viewBox="0 0 1024 1024" version="1.1" xmlns="http://www.w3.org/2000/svg" p-id="2927" xmlns:xlink="http://www.w3.org/1999/xlink" width="20" height="20"><path d="M872.802928 755.99406 872.864326 755.99406 872.864326 755.624646Z" fill="#272536" p-id="2928"></path><path d="M827.929928 109.914342l-245.393943 0.089028c-2.910283-0.455371-7.087419-0.367367-7.820106-0.089028L196.067003 109.914342c-47.544853 0-86.267782 38.694277-86.267782 86.22378l0 631.90795c0 47.544853 38.72293 86.268806 86.267782 86.268806l149.160181 0c47.572482 0 86.266759-38.723953 86.266759-86.268806L431.493943 416.98295 852.540442 416.98295c1.854231 0-1.88186-0.148379 0-0.530073 31.843242 1.985214 61.658292-26.25599 61.658292-56.275701L914.198733 196.167798C914.198733 148.639319 875.47478 109.914342 827.929928 109.914342M858.099041 326.099033c3.527336 35.886325-40.136116 32.44597-40.136116 32.44597L398.562926 358.545002c-1.792832 0.574075-3.233648 1.382487-4.821819 2.057869-0.763386 0.294712-1.469468 0.558725-2.174526 0.89744-10.057053 4.821819-16.173354 12.040221-16.173354 25.257244l0 437.144128c0 18.906605-15.406898 34.283828-34.281781 34.283828L200.213439 858.18551c-18.906605 0-34.283828-15.377222-34.283828-34.283828l0-77.769224 139.457192 0c16.141632 0 29.226648-13.114692 29.226648-29.227672 0-16.112979-13.085016-29.256324-29.226648-29.256324L165.928588 687.648462l0-95.087659 95.589079 0c16.112979 0 29.255301-13.144368 29.255301-29.284977 0-16.054651-13.143345-29.197996-29.255301-29.197996l-95.589079 0 0-95.117334 139.457192 0c16.141632 0 29.226648-13.113669 29.226648-29.256324 0-16.112979-13.085016-29.240975-29.226648-29.240975L165.928588 380.463198 165.928588 200.328561c0-18.906605 15.378246-34.298154 34.283828-34.298154l173.093267 0 0 103.703897c0 16.553001 13.085016 30.048363 29.255301 30.048363 16.112979 0 29.227672-13.495362 29.227672-30.048363L431.788655 166.030407l117.051903 0 0 81.753979c0 16.553001 13.112646 30.019711 29.194926 30.019711 16.142655 0 29.255301-13.46671 29.255301-30.019711l0-81.753979 95.119381 0 0 103.703897c0 16.553001 13.143345 30.048363 29.255301 30.048363 16.112979 0 29.197996-13.495362 29.197996-30.048363L760.863463 166.030407l62.921052 0c18.905582 0 34.31248 15.391549 34.31248 34.298154L858.096994 326.099033z" fill="#5E95FF" p-id="2929" data-spm-anchor-id="a313x.7781069.0.i4" class="selected"></path></svg>