<?xml version="1.0" encoding="UTF-8"?>
<svg width="14px" height="14px" viewBox="0 0 1024 1024" version="1.1" xmlns="http://www.w3.org/2000/svg" xmlns:xlink="http://www.w3.org/1999/xlink">
    <title>圆角</title>
    <g id="圆角" stroke="none" stroke-width="1" fill="none" fill-rule="evenodd">
        <path d="M1024,855.092784 L1024,1024 L270.060499,1024 C228.822211,1024 191.60717,1017.4649 158.415377,1004.3947 C125.223583,991.324497 97.0608499,973.227295 73.9271758,950.103093 C50.7935017,926.978891 32.6888873,899.079038 19.6133324,866.403535 C6.53777745,833.728031 0,798.287678 0,760.082474 L0,0 L171.993838,0 L171.993838,680.153166 C171.993838,718.35837 176.017085,749.023073 184.063581,772.147275 C192.110076,795.271478 203.676913,812.865979 218.764092,824.930781 C233.85127,836.995582 252.458791,845.038783 274.586653,849.060383 C296.714515,853.081983 322.362719,855.092784 351.531265,855.092784 L1024,855.092784 Z" id="路径" fill="#5E95FF" fill-rule="nonzero"></path>
    </g>
</svg>