<?xml version="1.0" encoding="UTF-8"?>
<svg width="14px" height="14px" viewBox="0 0 1024 1024" version="1.1" xmlns="http://www.w3.org/2000/svg" xmlns:xlink="http://www.w3.org/1999/xlink">
    <title> </title>
    <g id="-" stroke="none" stroke-width="1" fill="none" fill-rule="evenodd">
        <path d="M170,512 C170,698.992571 320.071555,850.934051 506.344405,853.954182 L512,854 L1024,854 L1024,1024 L512,1024 C229.230208,1024 0,794.769792 0,512 C0,229.230208 229.230208,0 512,0 L1024,0 L1024,170 L512,170 C323.118616,170 170,323.118616 170,512 Z" id="形状结合" fill="#999999"></path>
        <path d="M1024,170 L1024,854 L512,854 C323.118616,854 170,700.881384 170,512 C170,323.118616 323.118616,170 512,170 L512,170 L1024,170 Z" id="形状结合" fill="#F5F2F2"></path>
        <path d="M503,427 C533.418489,427 560.105033,442.978358 575.12431,466.999752 L1024,467 L1024,552 L578.018217,552.001441 C563.709673,578.779526 535.482647,597 503,597 C456.055796,597 418,558.944204 418,512 C418,465.055796 456.055796,427 503,427 Z" id="形状结合" fill="#999999"></path>
    </g>
</svg>