<?xml version="1.0" encoding="UTF-8"?>
<svg width="28px" height="28px" viewBox="0 0 28 28" version="1.1" xmlns="http://www.w3.org/2000/svg" xmlns:xlink="http://www.w3.org/1999/xlink">
    <title>保存icon</title>
    <g id="页面-1" stroke="none" stroke-width="1" fill="none" fill-rule="evenodd">
        <g id="大屏设计器-图表展示-基础设置" transform="translate(-1690.000000, -8.000000)" fill="#999999" fill-rule="nonzero">
            <g id="按钮" transform="translate(1618.000000, 8.000000)">
                <g id="保存icon" transform="translate(72.000000, 0.000000)">
                    <rect id="矩形" opacity="0" x="0" y="0" width="28" height="28"></rect>
                    <g id="编组-14" transform="translate(2.000000, 2.000000)">
                        <rect id="矩形" opacity="0" x="0" y="0" width="24" height="24"></rect>
                        <path d="M19.2146016,1.96157812 L4.85135156,1.96157812 C3.2645625,1.96157812 1.97819531,3.24794531 1.97819531,4.83473437 L1.97819531,19.1980078 C1.97819531,20.7847969 3.2645625,22.0711641 4.85135156,22.0711641 L19.214625,22.0711641 C20.8014141,22.0711641 22.0877813,20.7847969 22.0877813,19.1980078 L22.0877813,4.83473437 C22.0877813,3.24794531 20.8014141,1.96157812 19.2146016,1.96157812 Z M16.2981563,3.44547656 L16.2981563,9.09724219 L7.77590625,9.09724219 L7.77590625,3.44547656 L16.2981563,3.44547656 Z M20.6525399,19.2018984 C20.6531719,19.9932656 20.0121563,20.6352891 19.2207891,20.6359219 L4.85467969,20.6359219 C4.4705625,20.6359219 4.10786719,20.4883359 3.83622656,20.2166953 C3.56458594,19.9450547 3.4134375,19.5859922 3.4134375,19.2018984 L3.4134375,4.83611719 C3.41486719,4.04104687 4.05960938,3.39717187 4.85467969,3.39682031 L6.29203125,3.39682031 L6.29203125,9.14589844 C6.29085938,9.93740625 6.93154688,10.5799687 7.72305469,10.5811406 L16.3454297,10.5811406 C17.1388594,10.5811406 17.782125,9.93925781 17.782125,9.14589844 L17.782125,3.39682031 L19.2166406,3.39682031 C20.0105156,3.39766406 20.6533828,4.04191406 20.6525399,4.83578906 L20.6525399,19.2018984 Z" id="形状"></path>
                        <path d="M13.4722734,7.732875 C13.8820313,7.732875 14.2142109,7.40069531 14.2142109,6.9909375 L14.2142109,5.55440625 C14.2142109,5.14464844 13.8820313,4.81246875 13.4722734,4.81246875 C13.0625156,4.81246875 12.7303359,5.14464844 12.7303359,5.55440625 L12.7303359,6.9909375 C12.7303359,7.40069531 13.0625156,7.732875 13.4722734,7.732875 Z" id="路径"></path>
                    </g>
                </g>
            </g>
        </g>
    </g>
</svg>