<svg xmlns="http://www.w3.org/2000/svg" width="24" height="24" viewBox="0 0 24 24"><defs><style>.a{fill:none;}.b{fill:#999;}</style></defs><path class="a" d="M0,0H24V24H0Z"/><g transform="translate(0 -1)"><path class="b" d="M6,7H8.5L5,3.5,1.5,7H4V17H1.5L5,20.5,8.5,17H6Z" transform="translate(24 13) rotate(90)"/><path class="b" d="M371.577-2781.333,367.761-2790h1.861l2.474,6.085c.1.239.188.472.269.7.088-.234.181-.468.281-.7l2.569-6.081H377l-3.857,8.667Zm-4.072,0-1.082-2.473h-3.571l-1.019,2.473H360l3.783-8.667h1.627l4.031,8.667Zm-3.217-5.9-.871,2.046h2.41l-.817-1.91c-.157-.364-.293-.7-.409-.994C364.511-2787.8,364.407-2787.516,364.288-2787.233Z" transform="translate(-356.5 2794.583)"/></g></svg>