<?xml version="1.0" encoding="UTF-8"?>
<svg width="24px" height="24px" viewBox="0 0 24 24" version="1.1" xmlns="http://www.w3.org/2000/svg" xmlns:xlink="http://www.w3.org/1999/xlink">
    <title>文字icon</title>
    <g id="页面-1" stroke="none" stroke-width="1" fill="none" fill-rule="evenodd">
        <g id="大屏设计器-图表展示-基础设置" transform="translate(-16.000000, -139.000000)" fill="#FFFFFF" fill-rule="nonzero">
            <g id="左侧" transform="translate(0.000000, 66.000000)">
                <g id="文字" transform="translate(0.000000, 57.000000)">
                    <g id="文字icon" transform="translate(16.000000, 16.000000)">
                        <rect id="矩形" opacity="0" x="0" y="0" width="24" height="24"></rect>
                        <path d="M22.2761719,19.5 C22.7363437,19.5 23.109375,19.8777656 23.109375,20.34375 C23.109375,20.8097578 22.7363437,21.1875 22.2761719,21.1875 L1.72382812,21.1875 C1.26365625,21.1875 0.890625,20.8097578 0.890625,20.34375 C0.890625,19.8777656 1.26365625,19.5 1.72382812,19.5 L22.2761719,19.5 Z M21.5296875,13.3125 C21.9879141,13.3125 22.359375,13.6902656 22.359375,14.15625 C22.359375,14.6222344 21.9879141,15 21.5296875,15 L14.8921875,15 C14.4339609,15 14.0625,14.6222344 14.0625,14.15625 C14.0625,13.6902656 14.4339609,13.3125 14.8921875,13.3125 L21.5296875,13.3125 L21.5296875,13.3125 Z M7.96260937,2.8125 L12.5390625,15 L10.9699453,15 L9.87635156,11.8274062 L4.84110938,11.8274062 L3.74620313,15 L2.1796875,15 L6.73270312,2.8125 L7.96260937,2.8125 Z M7.40020312,4.96192969 L7.40020312,4.96324219 L7.33282031,4.96321875 L5.42936719,10.3059375 L9.28680469,10.3059375 L7.40020312,4.96192969 L7.40020312,4.96192969 Z M21.5296875,7.21875 C21.9879141,7.21875 22.359375,7.59651563 22.359375,8.0625 C22.359375,8.52850781 21.9879141,8.90625 21.5296875,8.90625 L14.8921875,8.90625 C14.4339609,8.90625 14.0625,8.52850781 14.0625,8.0625 C14.0625,7.59651563 14.4339609,7.21875 14.8921875,7.21875 L21.5296875,7.21875 L21.5296875,7.21875 Z" id="形状"></path>
                    </g>
                </g>
            </g>
        </g>
    </g>
</svg>