<?xml version="1.0" standalone="no"?><!DOCTYPE svg PUBLIC "-//W3C//DTD SVG 1.1//EN" "http://www.w3.org/Graphics/SVG/1.1/DTD/svg11.dtd"><svg t="1683595708331" class="icon" viewBox="0 0 1024 1024" version="1.1" xmlns="http://www.w3.org/2000/svg" p-id="1004" xmlns:xlink="http://www.w3.org/1999/xlink" width="14" height="14"><path d="M267.733333 938.666667a63.616 63.616 0 0 1-24.917333-5.034667 64 64 0 0 1-10.88-5.888 64 64 0 0 1-9.472-7.808 64.554667 64.554667 0 0 1-7.808-9.472 64 64 0 0 1-5.888-10.88 63.488 63.488 0 0 1-5.034667-24.917333V260.266667a63.488 63.488 0 0 1 5.034667-24.917334 64 64 0 0 1 5.888-10.88 64.597333 64.597333 0 0 1 7.808-9.472 64 64 0 0 1 9.472-7.808 64 64 0 0 1 10.88-5.888 63.616 63.616 0 0 1 24.917333-5.034666h128a63.573333 63.573333 0 0 1 24.917334 5.034666 64.341333 64.341333 0 0 1 10.88 5.888 64.64 64.64 0 0 1 9.472 7.808 64 64 0 0 1 7.808 9.472 64 64 0 0 1 5.888 10.88 63.658667 63.658667 0 0 1 5.034666 24.917334v614.4a63.658667 63.658667 0 0 1-5.034666 24.917333 64 64 0 0 1-5.888 10.88 64 64 0 0 1-7.808 9.472 64.597333 64.597333 0 0 1-9.472 7.808 64.341333 64.341333 0 0 1-10.88 5.888 63.573333 63.573333 0 0 1-24.917334 5.034667z m-4.266666-59.733334h136.533333V256h-136.533333z m361.6-170.666666a63.616 63.616 0 0 1-24.917334-5.034667 64 64 0 0 1-20.352-13.696 63.744 63.744 0 0 1-13.696-20.352 63.488 63.488 0 0 1-5.034666-24.917333v-384a63.488 63.488 0 0 1 5.034666-24.917334 63.744 63.744 0 0 1 13.696-20.352 64 64 0 0 1 20.352-13.696 63.616 63.616 0 0 1 24.917334-5.034666h128a63.573333 63.573333 0 0 1 24.917333 5.034666 63.701333 63.701333 0 0 1 20.352 13.696 64 64 0 0 1 13.738667 20.352 63.658667 63.658667 0 0 1 5.034666 24.917334v384a63.658667 63.658667 0 0 1-5.034666 24.917333 64 64 0 0 1-13.738667 20.352 63.701333 63.701333 0 0 1-20.352 13.696 63.573333 63.573333 0 0 1-24.917333 5.034667z m-4.266667-59.733334h136.533333V256h-136.533333zM85.333333 145.066667V85.333333h853.333334v59.733334z" p-id="1005" data-spm-anchor-id="a313x.7781069.0.i1" class="selected" fill="#999999"></path></svg>