<?xml version="1.0" standalone="no"?><!DOCTYPE svg PUBLIC "-//W3C//DTD SVG 1.1//EN" "http://www.w3.org/Graphics/SVG/1.1/DTD/svg11.dtd"><svg t="1683537427544" class="icon" viewBox="0 0 1024 1024" version="1.1" xmlns="http://www.w3.org/2000/svg" p-id="6918" xmlns:xlink="http://www.w3.org/1999/xlink" width="14" height="14"><path d="M128 448l0 192 576 0L704 448 128 448M128 384l576 0c35.392 0 64 28.608 64 64l0 192c0 35.392-28.608 64-64 64L128 704c-35.392 0-64-28.608-64-64L64 448C64 412.608 92.608 384 128 384L128 384zM928 64C945.664 64 960 78.336 960 96l0 832c0 17.664-14.336 32-32 32l0 0c-17.664 0-32-14.336-32-32l0-832C896 78.336 910.336 64 928 64L928 64z" fill="#999999" p-id="6919" data-spm-anchor-id="a313x.7781069.0.i33" class="selected"></path></svg>