<?xml version="1.0" standalone="no"?><!DOCTYPE svg PUBLIC "-//W3C//DTD SVG 1.1//EN" "http://www.w3.org/Graphics/SVG/1.1/DTD/svg11.dtd"><svg t="1683537472392" class="icon" viewBox="0 0 1024 1024" version="1.1" xmlns="http://www.w3.org/2000/svg" p-id="7595" xmlns:xlink="http://www.w3.org/1999/xlink" width="14" height="14"><path d="M896 448l0 192L320 640 320 448 896 448M896 384 320 384C284.608 384 256 412.608 256 448l0 192c0 35.392 28.608 64 64 64l576 0c35.392 0 64-28.608 64-64L960 448C960 412.608 931.392 384 896 384L896 384zM96 64C78.336 64 64 78.336 64 96l0 832C64 945.664 78.336 960 96 960l0 0C113.664 960 128 945.664 128 928l0-832C128 78.336 113.664 64 96 64L96 64z" fill="#999999" p-id="7596"></path></svg>